<svg width="154" height="50" viewBox="0 0 154 50" fill="none" xmlns="http://www.w3.org/2000/svg">
<g id="Frame 47779">
<rect id="Rectangle 4167" x="4.21484" y="25.7509" width="134.571" height="10.7989" fill="white"/>
<rect id="Rectangle 4169" x="7.53809" y="19.936" width="77.254" height="10.7989" fill="white"/>
<rect id="Rectangle 4170" x="18.3379" y="16.6135" width="66.455" height="10.7989" fill="white"/>
<rect id="Rectangle 4171" x="37.4424" y="6.64508" width="47.3492" height="17.4444" fill="white"/>
<rect id="Rectangle 4172" x="47.4111" y="3.32233" width="25.7513" height="3.32275" fill="white"/>
<rect id="Rectangle 4173" x="99.7441" y="19.1059" width="28.2434" height="6.6455" fill="white"/>
<rect id="Rectangle 4168" x="21.6602" y="32.3968" width="132.079" height="11.6296" fill="white"/>
<rect id="Rectangle 4113" x="22.4912" y="43.1955" width="58.1482" height="3.32275" fill="#D9D9D9"/>
<rect id="Rectangle 4143" x="8.36914" y="39.873" width="142.048" height="3.32275" fill="#D9D9D9"/>
<rect id="Rectangle 4145" x="4.21484" y="36.5503" width="18.2751" height="3.32275" fill="#D9D9D9"/>
<rect id="Rectangle 4146" x="8.36914" y="33.2271" width="18.2751" height="3.32275" fill="#D9D9D9"/>
<rect id="Rectangle 4147" x="29.9668" y="36.5503" width="47.3492" height="3.32275" fill="#D9D9D9"/>
<rect id="Rectangle 4148" x="37.4424" y="33.2271" width="35.7196" height="3.32275" fill="#D9D9D9"/>
<rect id="Rectangle 4158" x="37.4424" y="29.9044" width="35.7196" height="3.32275" fill="#F2F0F3"/>
<rect id="Rectangle 4149" x="41.5967" y="29.9044" width="35.7196" height="3.32275" fill="#D9D9D9"/>
<rect id="Rectangle 4159" x="40.7656" y="26.5821" width="35.7196" height="3.32275" fill="#F2F0F3"/>
<rect id="Rectangle 4150" x="44.9189" y="26.5821" width="35.7196" height="3.32275" fill="#D9D9D9"/>
<rect id="Rectangle 4160" x="40.7656" y="23.2593" width="35.7196" height="3.32275" fill="#F2F0F3"/>
<rect id="Rectangle 4151" x="44.9189" y="23.2593" width="35.7196" height="3.32275" fill="#D9D9D9"/>
<rect id="Rectangle 4161" x="40.7656" y="19.936" width="35.7196" height="3.32275" fill="#F2F0F3"/>
<rect id="Rectangle 4152" x="44.918" y="19.936" width="35.7196" height="3.32275" fill="#D9D9D9"/>
<rect id="Rectangle 4164" x="84.792" y="36.5503" width="35.7196" height="3.32275" fill="#F2F0F3"/>
<rect id="Rectangle 4155" x="96.4219" y="36.5503" width="35.7196" height="3.32275" fill="#D9D9D9"/>
<rect id="Rectangle 4162" x="46.5811" y="16.6135" width="26.582" height="3.32275" fill="#F2F0F3"/>
<rect id="Rectangle 4153" x="50.7344" y="16.6135" width="26.582" height="3.32275" fill="#D9D9D9"/>
<rect id="Rectangle 4165" x="90.6064" y="33.2271" width="26.582" height="3.32275" fill="#F2F0F3"/>
<rect id="Rectangle 4156" x="102.236" y="33.2271" width="26.582" height="3.32275" fill="#D9D9D9"/>
<rect id="Rectangle 4163" x="49.9033" y="13.291" width="19.9365" height="3.32275" fill="#F2F0F3"/>
<rect id="Rectangle 4154" x="54.0566" y="13.291" width="19.9365" height="3.32275" fill="#D9D9D9"/>
<rect id="Rectangle 4166" x="93.9297" y="29.9044" width="19.9365" height="3.32275" fill="#F2F0F3"/>
<rect id="Rectangle 4157" x="105.56" y="29.9044" width="19.9365" height="3.32275" fill="#D9D9D9"/>
<rect id="Rectangle 4114" x="22.4912" y="46.5181" width="58.1482" height="3.32275" fill="#1D201C"/>
<rect id="Rectangle 4138" x="8.36914" y="43.1955" width="14.1217" height="3.32275" fill="#1D201C"/>
<rect id="Rectangle 4115" x="80.6387" y="43.1955" width="36.5503" height="3.32275" fill="#1D201C"/>
<rect id="Rectangle 4116" x="113.866" y="46.5181" width="24.9206" height="3.32275" fill="#1D201C"/>
<rect id="Rectangle 4117" x="114.697" y="46.5181" width="24.9206" height="3.32275" fill="#1D201C"/>
<rect id="Rectangle 4144" x="117.188" y="43.1955" width="22.4286" height="3.32275" fill="#D9D9D9"/>
<rect id="Rectangle 4118" x="139.617" y="43.1955" width="14.1217" height="3.32275" fill="#1D201C"/>
<rect id="Rectangle 4119" x="153.739" y="32.3968" width="10.7989" height="3.32275" transform="rotate(90 153.739 32.3968)" fill="#1D201C"/>
<rect id="Rectangle 4120" x="142.94" y="32.3968" width="10.7989" height="3.32275" fill="#1D201C"/>
<rect id="Rectangle 4121" x="138.787" y="29.074" width="7.47619" height="3.32275" fill="#1D201C"/>
<rect id="Rectangle 4122" x="134.633" y="25.7509" width="7.47619" height="3.32275" fill="#1D201C"/>
<rect id="Rectangle 4123" x="127.987" y="22.4282" width="9.96825" height="3.32275" fill="#1D201C"/>
<rect id="Rectangle 4124" x="124.665" y="19.1059" width="3.32275" height="3.32275" fill="#1D201C"/>
<rect id="Rectangle 4126" x="99.7441" y="19.1059" width="3.32275" height="3.32275" fill="#1D201C"/>
<rect id="Rectangle 4139" x="4.21484" y="39.873" width="4.15344" height="3.32275" fill="#1D201C"/>
<rect id="Rectangle 4140" x="7.53809" y="19.936" width="3.32275" height="3.32275" fill="#1D201C"/>
<rect id="Rectangle 4141" x="4.21484" y="23.2593" width="3.32275" height="3.32275" fill="#1D201C"/>
<rect id="Rectangle 4142" x="0.892578" y="26.5821" width="3.32275" height="13.291" fill="#1D201C"/>
<rect id="Rectangle 4125" x="103.067" y="15.7831" width="21.5979" height="3.32275" fill="#1D201C"/>
<rect id="Rectangle 4127" x="84.792" y="22.4282" width="14.9524" height="3.32275" fill="#1D201C"/>
<rect id="Rectangle 4128" x="84.792" y="14.1216" width="3.32275" height="8.30688" fill="#1D201C"/>
<rect id="Rectangle 4130" x="73.1631" y="3.32233" width="8.30688" height="3.32275" fill="#1D201C"/>
<rect id="Rectangle 4132" x="40.7656" y="3.32233" width="6.6455" height="3.32275" fill="#1D201C"/>
<rect id="Rectangle 4133" x="37.4424" y="6.64508" width="3.32275" height="6.6455" fill="#1D201C"/>
<rect id="Rectangle 4134" x="34.1201" y="13.291" width="3.32275" height="6.6455" fill="#1D201C"/>
<rect id="Rectangle 4135" x="35.7812" y="16.6135" width="3.32275" height="6.6455" transform="rotate(90 35.7812 16.6135)" fill="#1D201C"/>
<rect id="Rectangle 4136" x="29.1357" y="13.291" width="3.32275" height="10.7989" transform="rotate(90 29.1357 13.291)" fill="#1D201C"/>
<rect id="Rectangle 4137" x="18.3379" y="16.6135" width="3.32275" height="7.47619" transform="rotate(90 18.3379 16.6135)" fill="#1D201C"/>
<rect id="Rectangle 4131" x="47.4111" width="25.7513" height="3.32275" fill="#1D201C"/>
<rect id="Rectangle 4129" x="81.4688" y="6.64508" width="3.32275" height="7.47619" fill="#1D201C"/>
</g>
</svg>
