<?xml version="1.0" encoding="utf-8"?>
<svg xmlns="http://www.w3.org/2000/svg" fill="none" height="37" viewBox="0 0 208 37" width="208">
<path d="M20.8034 36.0369C18.8333 35.2748 17.1039 33.9975 15.7961 32.3386C14.4883 30.6797 13.65 28.7 13.3688 26.6064H26.7487V12.8362H36.8141V25.0423C36.8133 26.954 36.3474 28.8368 35.4565 30.5282C34.5657 32.2197 33.2768 33.669 31.7009 34.7512C30.125 35.8334 28.3094 36.5159 26.4109 36.7399C24.5124 36.9639 22.5879 36.7226 20.8034 36.0369ZM11.7689 23.5579C10.2223 23.5575 8.69101 23.2526 7.26232 22.6604C5.83364 22.0683 4.53558 21.2005 3.44228 20.1067C2.34897 19.0128 1.48183 17.7144 0.890359 16.2854C0.298885 14.8564 -0.00535544 13.325 -0.00494343 11.7784C-0.00527303 10.2319 0.299001 8.70053 0.890512 7.27164C1.48202 5.84274 2.34921 4.54432 3.44251 3.45055C4.53581 2.35679 5.83384 1.48911 7.26248 0.896989C8.69112 0.304869 10.2224 -9.00859e-05 11.7689 -0.000419617H23.9706V23.5585L11.7689 23.5579Z" fill="url(#paint0_linear_263_1748)"/>
<path d="M107.741 31.9725C107.491 31.8727 107.268 31.7147 107.092 31.5116C106.915 31.3086 106.789 31.0663 106.724 30.8049C106.746 30.5735 106.816 30.349 106.928 30.1454C107.04 29.9417 107.193 29.7633 107.376 29.621C107.743 29.3892 108.172 29.2732 108.605 29.2879C109.446 29.3478 110.244 29.678 110.881 30.229L111.64 30.8363C112.078 30.4224 112.397 29.8988 112.564 29.3199C112.752 28.6073 112.839 27.872 112.823 27.1352C112.823 26.7709 112.818 26.3257 112.807 25.7995C112.797 25.2733 112.782 24.5857 112.762 23.7366C112.741 22.8871 112.721 21.8048 112.699 20.4898C112.678 19.1748 112.652 17.5467 112.623 15.6055C112.592 13.6631 112.567 11.3369 112.547 8.62692L109.455 8.29189V7.04775H118.345V8.29189L115.554 8.62503C115.533 9.8995 115.518 11.189 115.509 12.4936C115.499 13.7982 115.494 15.108 115.493 16.423V21.1555C115.493 22.693 115.468 23.9773 115.417 25.0084C115.386 25.8741 115.289 26.7363 115.129 27.5876C115.017 28.1899 114.818 28.7726 114.538 29.3174C114.264 29.8086 113.922 30.258 113.521 30.6518C112.996 31.1703 112.371 31.5778 111.685 31.8502C110.948 32.1469 110.159 32.2961 109.364 32.2893C108.807 32.2918 108.256 32.1841 107.741 31.9725ZM49.9886 26.7576C48.402 25.9888 47.0776 24.7687 46.1816 23.2504C45.1806 21.4545 44.6923 19.418 44.7699 17.3635C44.732 15.7632 45.0264 14.1725 45.6345 12.6918C46.1683 11.4359 46.9772 10.3159 48.0016 9.41431C49.0073 8.542 50.1786 7.88156 51.4455 7.4725C52.758 7.04467 54.1305 6.82947 55.511 6.83506C56.5744 6.82338 57.6348 6.94992 58.6656 7.2115C59.6402 7.47478 60.5784 7.85791 61.4588 8.35212L61.5799 13.0576H59.2729L58.3945 9.08304C57.7169 8.73978 56.9677 8.56156 56.2081 8.56292C55.1434 8.56075 54.1026 8.87762 53.2197 9.47265C52.2115 10.1893 51.4359 11.1863 50.9893 12.3399C50.3686 13.95 50.0798 15.669 50.1405 17.3936C50.0799 19.1043 50.3582 20.81 50.9592 22.4128C51.3902 23.5504 52.1443 24.5372 53.1288 25.2518C53.9992 25.8493 55.0313 26.1667 56.087 26.1615C56.5162 26.1612 56.9439 26.1105 57.3612 26.0103C57.7972 25.9051 58.2235 25.763 58.6355 25.5856L59.4843 21.702H61.7913L61.6702 26.3742C60.781 26.8514 59.8392 27.2232 58.8638 27.4822C57.7006 27.7878 56.5016 27.9355 55.2989 27.9214C53.463 27.9461 51.646 27.5479 49.9886 26.7576ZM67.1004 26.8203C65.9621 26.1779 65.0347 25.2189 64.4308 24.0597C63.7827 22.7881 63.4594 21.3759 63.4897 19.949C63.455 18.5268 63.806 17.1217 64.5054 15.8828C65.167 14.7468 66.1271 13.8137 67.2817 13.185C68.4815 12.5307 69.8295 12.1962 71.196 12.2138C72.5538 12.1951 73.8944 12.5187 75.0941 13.1549C76.2501 13.7756 77.2112 14.705 77.8703 15.8395C78.5787 17.0888 78.9348 18.507 78.9005 19.9427C78.934 21.375 78.6106 22.793 77.9594 24.0691C77.3521 25.222 76.4252 26.1752 75.2898 26.8146C74.0349 27.4973 72.6223 27.8375 71.1942 27.8009C69.7667 27.8371 68.3548 27.4969 67.1004 26.8146V26.8203ZM69.2555 15.3062C68.8305 16.2971 68.618 17.8748 68.618 20.0393C68.5344 21.6339 68.7506 23.23 69.2555 24.7449C69.3799 25.1664 69.635 25.5376 69.984 25.8048C70.333 26.0721 70.7578 26.2216 71.1973 26.2318C72.0464 26.2318 72.6836 25.7361 73.109 24.7449C73.6131 23.2298 73.8291 21.6338 73.7458 20.0393C73.8298 18.4358 73.6139 16.8306 73.109 15.3062C72.6836 14.3154 72.0464 13.8197 71.1973 13.8193C70.7585 13.829 70.334 13.9776 69.985 14.2438C69.6359 14.5099 69.3803 14.88 69.2549 15.3006L69.2555 15.3062ZM186.595 26.7877C186.187 26.442 185.866 26.0052 185.658 25.5124C185.449 25.0197 185.36 24.4848 185.397 23.9512C185.393 23.3791 185.534 22.8154 185.807 22.3124C186.181 21.7036 186.696 21.1937 187.308 20.8255C188.289 20.2199 189.338 19.7312 190.433 19.3693C190.898 19.2082 191.434 19.0363 192.041 18.8536C192.648 18.6708 193.254 18.5093 193.86 18.3692V17.6069C193.86 16.1304 193.638 15.1492 193.193 14.6631C192.9 14.3962 192.554 14.1935 192.178 14.068C191.801 13.9426 191.403 13.8972 191.008 13.9347C190.786 13.9347 190.538 13.9454 190.265 13.9648C189.963 13.9901 189.664 14.0409 189.37 14.1167L188.794 16.0892C188.51 17.0592 187.985 17.5446 187.216 17.5454C187.039 17.566 186.86 17.5494 186.69 17.4965C186.519 17.4437 186.362 17.3558 186.228 17.2386C186.093 17.1214 185.985 16.9774 185.91 16.8159C185.834 16.6544 185.794 16.4789 185.79 16.3007C185.929 15.7324 186.178 15.1973 186.524 14.726C186.871 14.2548 187.307 13.8568 187.808 13.5552C188.982 12.8469 190.337 12.4939 191.707 12.5388C193.305 12.5388 194.488 12.9382 195.257 13.7371C196.026 14.536 196.41 15.8954 196.41 17.8152V24.2774C196.369 24.7576 196.475 25.2389 196.713 25.6577C196.801 25.7858 196.919 25.8902 197.056 25.9617C197.194 26.0331 197.347 26.0695 197.503 26.0674C197.738 26.0749 197.97 26.0115 198.169 25.8855C198.365 25.7512 198.539 25.5874 198.685 25.3999L199.292 26.0674C199.007 26.5747 198.594 26.9983 198.094 27.2959C197.65 27.5311 197.154 27.6513 196.651 27.6453C195.986 27.6674 195.337 27.4403 194.832 27.0085C194.337 26.5672 194.015 25.965 193.923 25.3089C193.254 25.9844 192.522 26.5938 191.737 27.1283C191.054 27.5481 190.263 27.759 189.462 27.735C188.425 27.7617 187.411 27.4255 186.595 26.7845V26.7877ZM192.314 19.9609C191.809 20.1332 191.394 20.2796 191.07 20.4001C190.371 20.6489 189.716 21.0075 189.129 21.4623C188.769 21.7429 188.482 22.1076 188.295 22.5245C188.17 22.8331 188.103 23.1621 188.098 23.4951C188.065 23.8183 188.112 24.1446 188.234 24.4459C188.355 24.7472 188.548 25.0145 188.795 25.2248C189.3 25.5809 189.908 25.7621 190.525 25.7405C190.818 25.7421 191.109 25.7014 191.39 25.6194C191.737 25.5041 192.068 25.346 192.376 25.1489C192.76 24.9163 193.256 24.5775 193.863 24.1325V19.4897C193.336 19.6299 192.82 19.7859 192.314 19.9578V19.9609ZM138.976 26.511C138.268 25.6916 137.925 24.2806 137.945 22.2779L138.036 14.7234L135.881 14.2685V13.1768L140.341 12.7515L140.645 13.0551L140.493 17.3026V22.005C140.493 23.3209 140.695 24.2465 141.099 24.7819C141.315 25.0534 141.593 25.2685 141.91 25.4086C142.227 25.5487 142.573 25.6097 142.919 25.5862C144.334 25.5862 145.75 24.9289 147.166 23.6143L147.258 14.6933L145.104 14.2691V13.1768L149.503 12.7515L149.806 13.0551L149.716 17.3026V25.8284L151.779 26.2537V27.3454L147.561 27.5882L147.258 24.8904C146.559 25.7912 145.674 26.5311 144.664 27.06C143.804 27.5004 142.853 27.7341 141.887 27.7426C141.341 27.7686 140.795 27.6715 140.291 27.4583C139.787 27.2451 139.338 26.9214 138.976 26.511ZM123.73 26.9056C122.645 26.3279 121.745 25.4551 121.135 24.3879C120.429 23.1139 120.082 21.6721 120.131 20.2163C120.082 18.7412 120.429 17.2798 121.135 15.9838C121.744 14.8995 122.642 14.0062 123.73 13.4046C124.757 12.8373 125.91 12.5397 127.083 12.5397C128.255 12.5397 129.409 12.8373 130.435 13.4046C131.525 14.0087 132.428 14.901 133.044 15.9838C133.759 17.2767 134.111 18.7395 134.06 20.2163C134.111 21.6737 133.759 23.117 133.044 24.3879C132.426 25.4535 131.522 26.3255 130.435 26.9056C129.403 27.4535 128.252 27.74 127.083 27.74C125.914 27.74 124.763 27.4535 123.73 26.9056ZM124.063 15.5428C123.366 16.6156 123.017 18.1732 123.017 20.2156C123.017 22.2388 123.366 23.7709 124.063 24.812C124.386 25.3136 124.835 25.7218 125.364 25.9959C125.894 26.27 126.487 26.4004 127.082 26.3742C127.68 26.3992 128.274 26.2683 128.806 25.9944C129.338 25.7205 129.79 25.3131 130.117 24.812C130.824 23.7709 131.178 22.2388 131.178 20.2156C131.178 18.1724 130.824 16.6148 130.117 15.5428C129.797 15.0313 129.348 14.6133 128.816 14.3309C128.283 14.0486 127.685 13.9119 127.082 13.9347C126.482 13.911 125.886 14.0475 125.355 14.3302C124.825 14.6129 124.379 15.0316 124.064 15.5434L124.063 15.5428ZM200.23 27.3454V26.2556L202.657 25.8303C202.677 25.0012 202.692 24.1871 202.703 23.3878C202.714 22.5885 202.719 21.7846 202.717 20.9761V7.65507L200.23 7.35141V6.28985L204.966 4.924L205.391 5.1668L205.27 9.47516V20.9748C205.27 21.7837 205.275 22.5927 205.285 23.4016C205.295 24.2105 205.31 25.0197 205.331 25.829L207.757 26.2544V27.3461L200.23 27.3454ZM176.08 27.3454V26.2556L178.325 25.8303C178.345 25.0824 178.36 24.2582 178.37 23.3577C178.38 22.4571 178.385 21.6624 178.385 20.9735V18.3949C178.385 16.9987 178.188 16.0367 177.793 15.5089C177.559 15.2322 177.262 15.0161 176.927 14.8788C176.592 14.7415 176.228 14.6871 175.867 14.7202C175.177 14.7207 174.495 14.8654 173.865 15.145C173.095 15.5081 172.38 15.9781 171.741 16.541V20.971C171.741 21.6382 171.746 22.4218 171.756 23.3219C171.766 24.222 171.781 25.0562 171.802 25.8246L173.895 26.25V27.3417H166.862V26.2556L169.107 25.8303C169.127 25.0619 169.142 24.2329 169.152 23.3432C169.163 22.4536 169.168 21.6647 169.167 20.9767V19.5186C169.167 18.6892 169.162 18.0013 169.152 17.4551C169.142 16.9088 169.117 16.3324 169.077 15.726L166.68 15.4524V14.3902L170.927 12.54L171.382 12.8437L171.625 15.2711C172.364 14.4692 173.236 13.8017 174.204 13.2985C175.079 12.8184 176.058 12.5583 177.056 12.5406C177.615 12.4997 178.175 12.5987 178.687 12.8287C179.198 13.0588 179.644 13.4126 179.984 13.8582C180.621 14.7365 180.94 16.1674 180.94 18.1509V20.9742C180.94 21.6618 180.945 22.4507 180.955 23.3407C180.965 24.2308 180.98 25.0598 181.001 25.8277L183.124 26.2531V27.3448L176.08 27.3454ZM154.083 27.3454V26.2556L156.268 25.861C156.288 25.0922 156.303 24.2578 156.314 23.3577C156.324 22.4576 156.329 21.6628 156.329 20.9735V19.5186C156.329 18.6892 156.324 18.0013 156.314 17.4551C156.303 16.9088 156.278 16.3324 156.238 15.726L153.841 15.4524V14.3902L158.089 12.54L158.543 12.8437L158.877 16.4243C159.299 15.3325 159.971 14.3551 160.839 13.5708C161.49 12.9447 162.348 12.5779 163.251 12.5394C163.703 12.5368 164.15 12.6408 164.555 12.8431C164.927 13.0158 165.235 13.3025 165.434 13.6618C165.434 15.1387 164.837 15.877 163.644 15.8765C163.31 15.8788 162.979 15.8117 162.672 15.6795C162.353 15.5369 162.057 15.3465 161.794 15.1149L161.429 14.7811C160.824 15.2252 160.309 15.7816 159.912 16.4199C159.479 17.1307 159.141 17.8959 158.909 18.6954V20.971C158.909 21.6382 158.913 22.417 158.923 23.3075C158.933 24.198 158.948 25.027 158.969 25.7945L161.456 26.25V27.3417L154.083 27.3454ZM99.3795 27.3454V25.92L100.957 25.5862C100.977 24.8379 100.987 24.0432 100.988 23.2021V17.7857C101.045 17.08 100.909 16.3719 100.594 15.7379C100.451 15.5371 100.258 15.3769 100.034 15.2731C99.8109 15.1692 99.5643 15.1253 99.3187 15.1456C98.3532 15.2153 97.437 15.5989 96.7099 16.2379V23.2021C96.7099 24.0616 96.72 24.8655 96.74 25.6138L98.1661 25.9175V27.3429H90.1894V25.92L91.825 25.5561C91.8442 24.8279 91.8545 24.039 91.8557 23.1895V19.2149C91.8557 18.3861 91.8501 17.7431 91.84 17.2882C91.83 16.8333 91.8049 16.3019 91.7635 15.6958L89.9127 15.4223V14.239L95.8899 12.2062L96.4364 12.54L96.6177 14.724C97.2585 13.9154 98.0603 13.2488 98.9723 12.7665C99.7532 12.3919 100.609 12.1999 101.475 12.205C102.066 12.1808 102.656 12.2849 103.203 12.51C103.751 12.7352 104.243 13.0761 104.646 13.5094C105.445 14.3793 105.845 15.6841 105.844 17.4237V23.2341C105.844 24.0739 105.854 24.8687 105.875 25.6182L107.392 25.9219V27.3473L99.3795 27.3454ZM80.6597 27.3454V25.92L82.2985 25.5561C82.3182 24.8279 82.3282 24.039 82.3286 23.1895V19.5186C82.3286 18.6892 82.3234 17.9961 82.313 17.4394C82.3025 16.8827 82.2774 16.3013 82.2377 15.6952L80.3555 15.4217V14.239L86.7267 12.2062L87.2431 12.54L87.1521 16.9394V23.2052C87.1521 24.0647 87.1621 24.8687 87.1822 25.6169L88.6986 25.9206V27.3461L80.6597 27.3454ZM82.8751 9.27628C82.6304 9.06361 82.4356 8.79968 82.3044 8.50322C82.1732 8.20677 82.1088 7.88507 82.1159 7.56096C82.1067 7.23234 82.17 6.90572 82.3012 6.60428C82.4324 6.30284 82.6283 6.03398 82.8751 5.81679C83.3792 5.37695 84.0256 5.13461 84.6946 5.13461C85.3636 5.13461 86.0099 5.37695 86.514 5.81679C86.7604 6.03424 86.956 6.30318 87.087 6.60458C87.2179 6.90597 87.2811 7.23247 87.2719 7.56096C87.279 7.88494 87.2148 8.20651 87.0838 8.50293C86.9528 8.79934 86.7583 9.06335 86.514 9.27628C86.0098 9.71587 85.3635 9.95805 84.6946 9.95805C84.0256 9.95805 83.3793 9.71587 82.8751 9.27628Z" fill="white"/>
<defs>
<linearGradient gradientUnits="userSpaceOnUse" id="paint0_linear_263_1748" x1="6.8434" x2="36.8165" y1="-0.000418685" y2="36.8191">
<stop stop-color="#3100B5"/>
<stop offset="1" stop-color="#8E64FF"/>
</linearGradient>
</defs>
</svg>