<?xml version="1.0" encoding="utf-8"?>
<svg xmlns="http://www.w3.org/2000/svg" fill="none" height="44" viewBox="0 0 197 44" width="197">
  <g clip-path="url(#clip0_49_15474)">
    <path d="M29.8148 32.0248L21.7451 35.4464V35.1042C20.1876 35.4464 18.418 35.72 16.7898 35.7885C9.14468 35.7885 3.12768 31.8197 2.98611 27.2349V25.5241C5.46369 29.0141 10.6312 31.409 16.7898 31.3405C18.8427 31.409 21.0371 31.1354 22.8068 30.6563L23.5147 28.9456C21.3911 29.5615 19.055 29.972 16.7898 29.972C9.14468 29.972 3.12768 26.1399 2.98611 21.4184V20.0498C5.46369 23.3343 10.6312 25.661 16.7898 25.5241C19.5506 25.661 22.2405 25.1136 24.5765 24.1555L24.9305 22.4447C22.6653 23.5397 19.8337 24.224 16.8606 24.1555C9.21547 24.224 3.19847 20.3919 3.05689 15.6019V14.2333C5.53448 17.5863 10.702 19.9129 16.8606 20.0498C20.3292 19.9814 23.6563 19.0233 26.417 17.6548L26.771 15.6019C24.2933 17.381 20.6832 18.5444 16.8606 18.6813C9.21547 18.5444 3.19847 14.6439 3.05689 9.78539C3.05689 5.20062 9.21547 1.30016 16.8606 1.30016C21.3911 1.30016 25.6384 2.87403 28.1159 5.40592L28.399 5.81649H30.1688L29.8857 5.40592C27.408 2.18973 22.3821 0 16.7898 0C8.29522 0 1.57034 4.44791 1.57034 9.85382V10.196V27.5771C1.8535 32.846 8.4368 37.157 16.719 37.157C22.1697 37.157 27.125 35.1042 29.8148 32.0248Z" fill="white"/>
    <path d="M26.4881 44.0003L29.3196 32.2989L21.1082 35.7203L26.1342 15.3969H16.507L18.9847 5.40625H49.6359L47.1583 15.3969H37.1772L35.0535 20.9397L46.0965 16.4918L26.4881 44.0003ZM31.5141 29.9039L30.0984 36.8153L41.8492 19.6395L32.222 23.7453L36.4693 14.0968H46.0965L47.8663 6.84327H20.0464L18.2767 14.0968H27.9039L23.232 33.3939L31.4433 29.9723L31.5141 29.9039Z" fill="white"/>
    <path d="M70.0215 12.1805C70.0215 13.2754 69.6677 14.165 68.9598 14.7809C68.2519 15.3967 67.2609 15.7389 65.9867 15.7389C64.7125 15.7389 63.6507 15.3283 62.9427 14.5756C62.1641 13.8228 61.8102 12.728 61.8102 11.4963V9.44338C61.8102 8.21164 62.2348 7.1852 62.9427 6.36406C63.7214 5.61134 64.7125 5.20075 65.9867 5.20075C67.2609 5.20075 68.3226 5.54291 69.0305 6.09033C69.8092 6.7062 70.1631 7.59579 70.0924 8.69065H68.0396C68.0396 8.00636 67.898 7.52736 67.544 7.1852C67.19 6.84306 66.6946 6.7062 65.9867 6.7062C65.2788 6.7062 64.8541 6.97992 64.5002 7.45893C64.1462 7.93793 63.9339 8.5538 63.9339 9.37495V11.4278C63.9339 12.1805 64.1462 12.8648 64.5002 13.3438C64.8541 13.8228 65.4204 14.0966 66.0575 14.0966C66.6945 14.0966 67.19 13.9597 67.4733 13.6176C67.7563 13.2754 67.9687 12.7964 67.9687 12.1121H70.0215V12.1805ZM81.7725 11.3594C81.7725 12.5911 81.3478 13.686 80.569 14.5071C79.7903 15.3283 78.6578 15.7389 77.3835 15.7389C76.1093 15.7389 75.0476 15.3283 74.1981 14.5071C73.4195 13.686 72.9948 12.6596 72.9948 11.3594V9.51181C72.9948 8.28007 73.4195 7.25363 74.1981 6.36406C74.9767 5.54291 76.1093 5.13232 77.3835 5.13232C78.6578 5.13232 79.7903 5.54291 80.569 6.36406C81.4185 7.1852 81.7725 8.21164 81.7725 9.51181V11.3594ZM79.6487 9.51181C79.6487 8.69065 79.4364 8.07478 79.0117 7.52736C78.587 7.04834 78.0207 6.77463 77.3128 6.77463C76.6049 6.77463 76.0386 7.04834 75.6139 7.52736C75.26 8.00636 74.9767 8.69065 74.9767 9.51181V11.3594C74.9767 12.1805 75.1891 12.8648 75.6139 13.3438C75.9679 13.8228 76.6049 14.0966 77.3128 14.0966C78.0207 14.0966 78.587 13.8228 79.0117 13.3438C79.4364 12.8648 79.6487 12.1805 79.6487 11.3594V9.51181ZM87.294 15.602H85.1702V5.33762H87.294V15.602ZM99.611 15.602H97.4875L93.2402 8.69065V15.602H91.1164V5.33762H93.2402L97.4875 12.249V5.33762H99.611V15.602ZM110.371 6.91149H107.327V15.602H105.203V6.91149H102.23V5.33762H110.371V6.91149ZM119.219 11.0857H115.255V14.0281H119.927V15.602H113.132V5.33762H119.927V6.91149H115.255V9.51181H119.219V11.0857ZM125.166 14.0281H129.908V15.602H122.971V5.33762H125.095V14.0281H125.166ZM139.04 11.0857H135.076V14.0281H139.748V15.602H132.952V5.33762H139.748V6.91149H135.076V9.51181H139.04V11.0857ZM151.003 14.2334C150.649 14.644 150.225 14.9861 149.517 15.3283C148.88 15.6704 148.03 15.8073 146.968 15.8073C145.694 15.8073 144.632 15.3967 143.854 14.644C143.075 13.8913 142.65 12.8648 142.65 11.6331V9.44338C142.65 8.21164 143.075 7.1852 143.854 6.43249C144.632 5.67977 145.694 5.2692 146.898 5.2692C148.172 5.2692 149.234 5.61134 149.871 6.15876C150.508 6.7062 150.932 7.52736 150.862 8.5538H148.88C148.88 8.00636 148.738 7.59579 148.384 7.25363C148.03 6.91149 147.605 6.77463 146.968 6.77463C146.331 6.77463 145.836 7.04834 145.411 7.52736C145.057 8.00636 144.845 8.62222 144.845 9.37495V11.5647C144.845 12.3174 145.057 13.0017 145.482 13.4807C145.907 13.9597 146.473 14.2334 147.11 14.2334C147.605 14.2334 148.03 14.2334 148.313 14.0966C148.597 14.0281 148.809 13.8913 149.021 13.7544V11.77H146.968V10.333H151.145V14.3703L151.003 14.2334ZM156.525 11.4963V15.602H154.401V5.2692H158.082C159.286 5.2692 160.277 5.54291 160.914 6.09033C161.622 6.63778 161.975 7.3905 161.975 8.34851C161.975 8.89594 161.834 9.30651 161.551 9.71709C161.268 10.0592 160.843 10.4014 160.277 10.6751C160.914 10.8804 161.338 11.1541 161.622 11.5647C161.905 11.9753 162.046 12.5227 162.046 13.1385V13.8913C162.046 13.8913 162.046 14.5071 162.188 14.7809C162.188 15.123 162.4 15.3283 162.613 15.4652V15.602H160.418C160.206 15.4652 160.064 15.1914 159.993 14.8493C159.993 14.5071 159.923 14.165 159.923 13.8228V13.0701C159.923 12.5911 159.781 12.1805 159.498 11.9068C159.215 11.6331 158.79 11.4963 158.294 11.4963H156.525ZM156.525 9.92238H158.082C158.648 9.92238 159.144 9.78552 159.427 9.58024C159.71 9.30651 159.852 8.96437 159.852 8.48537C159.852 8.00636 159.71 7.66421 159.427 7.3905C159.144 7.11677 158.719 6.97992 158.153 6.97992H156.596V9.9908L156.525 9.92238ZM171.037 13.4123H167.567L166.86 15.602H164.595L168.205 5.33762H170.4L173.939 15.602H171.674L170.965 13.3438L171.037 13.4123ZM168.135 11.77H170.541L169.409 8.14321L168.205 11.77H168.135ZM178.752 11.8384V15.5336H176.628V5.33762H180.735C181.937 5.33762 182.928 5.67977 183.637 6.22719C184.344 6.84306 184.698 7.66421 184.698 8.62222C184.698 9.58023 184.344 10.4014 183.637 11.0172C182.928 11.6331 182.009 11.9068 180.735 11.9068H178.823L178.752 11.8384ZM178.752 10.2645H180.663C181.23 10.2645 181.726 10.1277 182.009 9.78552C182.291 9.44338 182.433 9.03279 182.433 8.62222C182.433 8.14321 182.291 7.73264 182.009 7.3905C181.726 7.04834 181.23 6.91149 180.663 6.91149H178.752V10.2645ZM196.308 15.5336H194.184V11.291H189.866V15.5336H187.742V5.2692H189.866V9.71709H194.184V5.2692H196.308V15.5336Z" fill="white"/>
    <path d="M65.6335 32.3676H64.2886V25.593H61.8818V24.4981H68.0403V25.593H65.6335V32.3676ZM74.5528 32.3676H73.2078V28.6724C73.2078 28.1933 73.1371 27.8512 72.9248 27.6459C72.7123 27.4405 72.4292 27.3038 72.0045 27.3038C71.4382 27.3038 71.0843 27.4405 70.8011 27.7828C70.518 28.125 70.4471 28.6039 70.3764 29.3567V32.2991H69.1022V23.9507H70.3764V26.072C70.3764 26.4142 70.3764 26.7563 70.3764 27.1669H70.4471C70.4471 27.1669 70.8719 26.6878 71.2257 26.4826C71.5797 26.3458 71.9336 26.2089 72.3585 26.2089C73.845 26.2089 74.6237 26.9616 74.6237 28.3986V32.2991L74.5528 32.3676ZM79.0833 32.436C78.0923 32.436 77.3844 32.1622 76.8181 31.6148C76.2518 31.0674 76.0393 30.3147 76.0393 29.3567C76.0393 28.3986 76.3226 27.6459 76.8181 27.0985C77.3135 26.5511 78.0215 26.2773 78.871 26.2773C79.6496 26.2773 80.3575 26.5511 80.7822 27.03C81.2778 27.509 81.4901 28.125 81.4901 29.0144V29.6987H77.3844C77.3844 30.2463 77.5968 30.7252 77.8798 30.999C78.1631 31.3411 78.6586 31.4779 79.154 31.4779C79.508 31.4779 79.862 31.4779 80.1452 31.4095C80.4991 31.4095 80.7822 31.2042 81.1362 31.0674V32.0938C81.1362 32.0938 80.4991 32.3676 80.1452 32.436C79.862 32.436 79.4373 32.5044 79.0124 32.5044L79.0833 32.436ZM78.871 27.2354C78.4461 27.2354 78.0923 27.3723 77.8798 27.5774C77.6675 27.7828 77.5259 28.1933 77.4552 28.6724H80.2159C80.2159 28.1933 80.0743 27.7828 79.8619 27.5774C79.6496 27.3038 79.2957 27.2354 78.871 27.2354ZM88.9936 27.3038H87.507V32.2991H86.1621V27.3038H85.1711V26.6878L86.1621 26.3458V26.0035C86.1621 25.3192 86.3037 24.7719 86.6577 24.4298C87.0116 24.0876 87.507 23.9507 88.2149 23.9507C88.6396 23.9507 89.1352 23.9507 89.5599 24.156L89.2061 25.1141C89.2061 25.1141 88.5689 24.9772 88.2858 24.9772C88.0026 24.9772 87.7903 25.0456 87.6486 25.2508C87.507 25.4561 87.4363 25.6615 87.4363 26.0035V26.3458H88.9229V27.3038H88.9936ZM94.3735 32.2991L94.1611 31.5464C94.1611 31.5464 93.7365 32.0253 93.3825 32.2307C93.0285 32.3676 92.6746 32.5044 92.2499 32.5044C91.4713 32.5044 90.9757 32.2991 90.551 31.9569C90.1971 31.6148 89.9847 31.0674 89.9847 30.3147V26.4142H91.3297V30.1094C91.3297 30.5883 91.4004 30.8621 91.6129 31.1357C91.8252 31.3411 92.1083 31.4779 92.5331 31.4779C93.0994 31.4779 93.4534 31.3411 93.7365 30.999C94.0197 30.6568 94.0904 30.1778 94.1611 29.4251V26.4142H95.5062V32.3676H94.4444L94.3735 32.2991ZM99.541 31.3411C99.541 31.3411 100.178 31.3411 100.532 31.2042V32.1622C100.532 32.1622 100.178 32.2991 99.9659 32.2991C99.7534 32.2991 99.541 32.2991 99.258 32.2991C98.0545 32.2991 97.4175 31.6833 97.4175 30.4514V27.2354H96.5679V26.6878L97.4882 26.2089L97.913 24.9772H98.6917V26.2773H100.461V27.2354H98.6917V30.4514C98.6917 30.7937 98.6917 30.999 98.904 31.1357C98.9747 31.2726 99.258 31.3411 99.4703 31.3411H99.541ZM106.054 32.2991L105.841 31.5464C105.841 31.5464 105.417 32.0253 105.063 32.2307C104.709 32.3676 104.355 32.5044 103.93 32.5044C103.151 32.5044 102.656 32.2991 102.231 31.9569C101.877 31.6148 101.665 31.0674 101.665 30.3147V26.4142H103.01V30.1094C103.01 30.5883 103.08 30.8621 103.293 31.1357C103.505 31.3411 103.788 31.4779 104.213 31.4779C104.779 31.4779 105.133 31.3411 105.417 30.999C105.7 30.6568 105.77 30.1778 105.841 29.4251V26.4142H107.186V32.3676H106.124L106.054 32.2991ZM112.071 26.2089C112.071 26.2089 112.566 26.2089 112.708 26.2089L112.566 27.3723C112.566 27.3723 112.212 27.3723 112 27.3723C111.504 27.3723 111.08 27.509 110.726 27.8512C110.372 28.1933 110.23 28.6039 110.23 29.1513V32.2307H108.956V26.2773H110.018L110.159 27.3038C110.372 26.9616 110.655 26.6878 110.938 26.4826C111.221 26.2773 111.575 26.1404 112 26.1404L112.071 26.2089ZM116.318 32.3676C115.327 32.3676 114.619 32.0938 114.053 31.5464C113.486 30.999 113.274 30.2463 113.274 29.2882C113.274 28.3302 113.557 27.5774 114.053 27.03C114.548 26.4826 115.256 26.2089 116.106 26.2089C116.884 26.2089 117.592 26.4826 118.017 26.9616C118.512 27.4405 118.725 28.0565 118.725 28.946V29.6303H114.619C114.619 30.1778 114.831 30.6568 115.115 30.9306C115.398 31.2726 115.893 31.4095 116.389 31.4095C116.743 31.4095 117.097 31.4095 117.38 31.3411C117.734 31.3411 118.017 31.1357 118.371 30.999V32.0253C118.371 32.0253 117.734 32.2991 117.38 32.3676C117.026 32.3676 116.672 32.436 116.247 32.436L116.318 32.3676ZM116.106 27.1669C115.681 27.1669 115.327 27.3038 115.115 27.509C114.831 27.7828 114.761 28.125 114.69 28.6039H117.45C117.45 28.125 117.309 27.7143 117.097 27.509C116.813 27.2354 116.53 27.1669 116.106 27.1669ZM128.635 29.2882C128.635 30.2463 128.352 30.999 127.856 31.5464C127.361 32.0938 126.653 32.3676 125.733 32.3676C125.166 32.3676 124.671 32.2307 124.175 31.9569C123.68 31.6833 123.397 31.3411 123.184 30.8621C122.972 30.383 122.83 29.8356 122.83 29.2198C122.83 28.2617 123.114 27.509 123.609 26.9616C124.105 26.4142 124.813 26.1404 125.803 26.1404C126.653 26.1404 127.361 26.4142 127.927 26.9616C128.423 27.509 128.706 28.2617 128.706 29.2198L128.635 29.2882ZM124.175 29.2882C124.175 30.6568 124.671 31.3411 125.733 31.3411C126.795 31.3411 127.29 30.6568 127.29 29.2882C127.29 27.9196 126.795 27.2354 125.733 27.2354C125.166 27.2354 124.813 27.4405 124.529 27.7828C124.246 28.125 124.175 28.6039 124.175 29.2882ZM133.236 27.3038H131.75V32.2991H130.405V27.3038H129.414V26.6878L130.405 26.3458V26.0035C130.405 25.3192 130.546 24.7719 130.9 24.4298C131.254 24.0876 131.75 23.9507 132.458 23.9507C132.882 23.9507 133.378 23.9507 133.803 24.156L133.449 25.1141C133.449 25.1141 132.812 24.9772 132.528 24.9772C132.245 24.9772 132.033 25.0456 131.891 25.2508C131.75 25.3877 131.679 25.6615 131.679 26.0035V26.3458H133.166V27.3038H133.236ZM142.439 32.2991H141.094V28.6039C141.094 28.125 141.023 27.8512 140.811 27.5774C140.669 27.3723 140.386 27.2354 139.961 27.2354C139.466 27.2354 139.112 27.3723 138.829 27.7143C138.616 28.0565 138.475 28.5355 138.475 29.2882V32.2307H137.2V26.2773H138.262L138.475 27.03C138.475 27.03 138.899 26.5511 139.253 26.3458C139.607 26.2089 139.961 26.1404 140.315 26.1404C141.235 26.1404 141.872 26.4826 142.226 27.0985H142.297C142.297 27.0985 142.722 26.5511 143.076 26.4142C143.43 26.2773 143.784 26.1404 144.209 26.1404C144.987 26.1404 145.483 26.3458 145.837 26.6878C146.19 27.03 146.332 27.5774 146.332 28.3301V32.2307H145.058V28.5355C145.058 28.0565 144.987 27.7828 144.775 27.509C144.562 27.3038 144.35 27.1669 143.925 27.1669C143.43 27.1669 143.076 27.3038 142.793 27.6459C142.58 27.9881 142.439 28.3986 142.439 29.0829V32.2307H142.368L142.439 32.2991ZM153.623 29.2882C153.623 30.2463 153.34 30.999 152.845 31.5464C152.349 32.0938 151.641 32.3676 150.721 32.3676C150.155 32.3676 149.659 32.2307 149.164 31.9569C148.739 31.6833 148.385 31.3411 148.173 30.8621C147.96 30.383 147.819 29.8356 147.819 29.2198C147.819 28.2617 148.102 27.509 148.597 26.9616C149.093 26.4142 149.801 26.1404 150.792 26.1404C151.641 26.1404 152.349 26.4142 152.915 26.9616C153.411 27.509 153.694 28.2617 153.694 29.2198L153.623 29.2882ZM149.164 29.2882C149.164 30.6568 149.659 31.3411 150.721 31.3411C151.783 31.3411 152.278 30.6568 152.278 29.2882C152.278 27.9196 151.783 27.2354 150.721 27.2354C150.155 27.2354 149.801 27.4405 149.518 27.7828C149.234 28.125 149.164 28.6039 149.164 29.2882ZM160.561 32.2991H159.216V28.6039C159.216 28.125 159.145 27.7828 158.932 27.5774C158.72 27.3723 158.437 27.2354 158.012 27.2354C157.446 27.2354 157.021 27.3723 156.809 27.7143C156.596 28.0565 156.455 28.5355 156.455 29.2882V32.2307H155.181V26.2773H156.243L156.455 27.03C156.455 27.03 156.88 26.5511 157.234 26.3458C157.587 26.2089 157.941 26.1404 158.366 26.1404C159.853 26.1404 160.561 26.8931 160.561 28.3301V32.1622V32.2991ZM165.091 32.3676C164.1 32.3676 163.392 32.0938 162.826 31.5464C162.259 30.999 162.047 30.2463 162.047 29.2882C162.047 28.3302 162.33 27.5774 162.826 27.03C163.321 26.4826 164.029 26.2089 164.879 26.2089C165.657 26.2089 166.365 26.4826 166.789 26.9616C167.286 27.4405 167.498 28.0565 167.498 28.946V29.6303H163.392C163.392 30.1778 163.604 30.6568 163.887 30.9306C164.17 31.2726 164.666 31.4095 165.161 31.4095C165.516 31.4095 165.87 31.4095 166.154 31.3411C166.436 31.3411 166.789 31.1357 167.144 30.999V32.0253C167.144 32.0253 166.507 32.2991 166.154 32.3676C165.798 32.3676 165.445 32.436 165.019 32.436L165.091 32.3676ZM164.808 27.1669C164.384 27.1669 164.029 27.3038 163.817 27.509C163.534 27.7828 163.463 28.125 163.392 28.6039H166.154C166.154 28.125 166.012 27.7143 165.798 27.509C165.586 27.2354 165.233 27.1669 164.808 27.1669ZM167.782 26.3458H169.196L170.471 29.6987C170.684 30.1778 170.824 30.6568 170.824 31.0674C170.824 31.0674 170.896 30.6568 171.038 30.3147C171.108 30.0409 171.603 28.6724 172.454 26.2773H173.868L171.249 32.9834C170.754 34.2151 169.975 34.8309 168.843 34.8309C168.559 34.8309 168.277 34.8309 167.993 34.7625V33.7361C167.993 33.7361 168.419 33.7361 168.701 33.7361C169.338 33.7361 169.763 33.3939 170.047 32.6412L170.259 32.0938L167.71 26.1404L167.782 26.3458Z" fill="white"/>
  </g>
  <defs>
    <clipPath id="clip0_49_15474">
      <rect fill="white" height="44" transform="translate(0.770508)" width="195.556"/>
    </clipPath>
  </defs>
</svg>