<?xml version="1.0" encoding="utf-8"?>
<svg xmlns="http://www.w3.org/2000/svg" fill="none" height="80" viewBox="0 0 467 80" width="467">
<path d="M69.4334 47.8295C68.038 48.6822 66.4101 48.8372 65.1698 48.1395C63.6194 47.2093 62.6892 45.1163 62.6892 42.2481V33.4884C62.6892 29.3023 61.0613 26.2791 58.2706 25.5039C53.5419 24.1085 49.976 29.9225 48.6582 32.093L40.2861 45.5039V28.9922C40.2086 25.1938 38.9683 22.9457 36.6427 22.2481C35.0923 21.783 32.7667 22.0155 30.5187 25.4264L11.8365 55.3488C9.35586 50.6201 8.03803 45.3488 8.03803 40C8.03803 21.938 22.5342 7.28682 40.2861 7.28682C58.038 7.28682 72.5341 21.938 72.5341 40V40.0775V40.155C72.6892 43.6434 71.6039 46.4341 69.4334 47.8295ZM79.6659 40V39.9225V39.845C79.5884 17.907 61.914 0 40.2861 0C18.5807 0 0.90625 17.907 0.90625 40C0.90625 62.0155 18.5807 80 40.2861 80C50.2861 80 59.7435 76.2015 67.0303 69.3023C68.5031 67.907 68.5807 65.6589 67.1853 64.1861C65.8675 62.7132 63.6194 62.6357 62.1466 63.9535C62.1466 63.9535 62.1465 63.9535 62.069 64.031C56.1776 69.6124 48.2706 72.7907 40.1311 72.7907C30.5962 72.7907 22.069 68.6046 16.1776 61.938L32.9993 34.9612V47.4419C32.9993 53.4109 35.3248 55.3488 37.2628 55.8915C39.2008 56.4341 42.1466 56.0465 45.3248 51.0078L54.5497 36.0465C54.8597 35.5814 55.0923 35.1163 55.4024 34.8062V42.4031C55.4024 47.9845 57.6504 52.4806 61.5264 54.6512C65.0148 56.6667 69.4334 56.4341 73.0768 54.186C77.5729 51.2403 79.976 46.124 79.6659 40ZM134.55 26.3566C135.48 26.8992 136.333 28.217 136.333 29.3798C136.333 31.2403 134.782 32.7907 132.999 32.7907C132.534 32.7907 132.147 32.6357 131.759 32.5581C129.666 31.0077 127.03 30 124.24 30C117.65 30 113.154 35.3488 113.154 42.0155C113.154 48.6822 117.728 53.9535 124.24 53.9535C127.495 53.9535 130.441 52.6357 132.612 50.5426C133.154 50.155 133.852 49.9225 134.55 49.9225C136.333 49.9225 137.728 51.3178 137.728 53.1008C137.728 54.2636 137.03 55.2713 136.178 55.8139C132.999 58.5271 128.736 60.3101 124.317 60.3101C114.24 60.3101 106.023 52.0155 106.023 41.7829C106.023 31.5504 114.24 23.2558 124.317 23.2558C128.038 23.1783 131.604 24.3411 134.55 26.3566ZM152.999 34.1085C159.898 34.1085 165.635 39.9225 165.635 47.1318C165.635 54.2636 159.821 60.3876 152.999 60.3876C145.79 60.3876 139.821 54.3411 139.821 47.1318C139.821 39.9225 145.79 34.1085 152.999 34.1085ZM152.922 53.9535C155.945 53.9535 158.503 51.0853 158.503 47.2093C158.503 43.3333 155.945 40.8527 152.922 40.8527C149.666 40.8527 146.953 43.2558 146.953 47.2093C146.953 51.0077 149.666 53.9535 152.922 53.9535ZM169.976 56.3566V38.062C169.976 36.0465 171.526 34.4186 173.542 34.4186C175.48 34.4186 177.108 36.0465 177.108 38.062V56.3566C177.108 58.3721 175.48 60 173.542 60C171.604 60 169.976 58.2946 169.976 56.3566ZM169.433 27.5194C169.433 25.1163 171.294 23.2558 173.542 23.2558C175.867 23.2558 177.728 25.1938 177.728 27.5194C177.728 29.845 175.867 31.7054 173.542 31.7054C171.216 31.6279 169.433 29.7674 169.433 27.5194ZM190.751 46.4341V56.3566C190.751 58.3721 189.123 60 187.185 60C185.247 60 183.619 58.3721 183.619 56.3566V37.2093C183.619 35.6589 184.86 34.4186 186.41 34.4186C187.96 34.4186 189.123 35.7364 189.123 37.2093C191.992 34.4961 194.55 34.1085 196.953 34.1085C204.085 34.1085 207.263 39.4574 207.263 45.5814V56.3566C207.263 58.3721 205.635 60 203.697 60C201.759 60 200.131 58.3721 200.131 56.3566V46.4341C200.131 43.3333 199.743 40.6977 195.247 40.6977C192.069 40.6977 190.751 43.3333 190.751 46.4341ZM230.364 50.2326C229.511 50.2326 228.968 49.845 228.503 49.3023L220.209 40.3101V56.3566C220.209 58.3721 218.581 60 216.643 60C214.705 60 213.077 58.3721 213.077 56.3566V24.5737C213.309 24.031 213.852 23.6434 214.395 23.6434C215.015 23.6434 215.557 24.1861 215.945 24.5737L229.201 39.4574C229.588 39.9225 230.054 40.155 230.364 40.155C230.596 40.155 231.139 39.9225 231.526 39.4574L244.782 24.5737C245.17 24.1861 245.635 23.6434 246.333 23.6434C246.953 23.6434 247.495 24.031 247.65 24.5737V56.3566C247.65 58.3721 246.1 60 244.085 60C242.147 60 240.519 58.3721 240.519 56.3566V40.3101L232.224 49.3023C231.604 49.845 231.061 50.2326 230.364 50.2326ZM264.627 53.9535C267.805 53.9535 270.519 51.0853 270.519 47.2093C270.519 43.3333 267.728 40.7752 264.627 40.7752C261.526 40.7752 258.968 43.4108 258.968 47.2093C258.968 50.9302 261.449 53.9535 264.627 53.9535ZM272.224 57.2093L272.069 56.3566C270.674 59.0698 266.255 60.3101 263.464 60.3101C256.798 60.3101 251.836 54.2636 251.836 47.0543C251.836 39.9225 256.875 34.031 263.852 34.031C265.015 34.031 269.046 34.3411 272.147 37.9845L272.302 37.1318C272.302 35.5814 273.464 34.3411 275.015 34.3411C276.565 34.3411 277.805 35.6589 277.805 37.1318V57.1318C277.805 58.6822 276.565 59.9225 275.015 59.9225C273.387 60 272.224 58.6822 272.224 57.2093ZM297.418 40.6977H296.643C292.147 40.9302 291.294 43.4884 291.294 46.4341V56.3566C291.294 58.3721 289.666 60 287.728 60C285.79 60 284.162 58.3721 284.162 56.3566V37.2093C284.162 35.6589 285.402 34.4186 286.953 34.4186C288.503 34.4186 289.666 35.7364 289.666 37.2093C292.302 34.7287 294.472 34.186 296.643 34.1085H297.34C299.046 34.1085 300.596 35.5814 300.596 37.4419C300.674 39.1473 299.123 40.6977 297.418 40.6977ZM324.937 54.6512C325.247 55.1938 325.48 55.7364 325.48 56.3566C325.48 58.2171 323.774 59.9225 321.914 59.9225C320.674 59.9225 319.588 58.9922 318.736 57.907L310.519 48.3721V56.2791C310.519 58.2946 308.891 59.9225 306.953 59.9225C305.015 59.9225 303.387 58.2946 303.387 56.2791V27.2093C303.387 25.1938 304.937 23.5659 306.953 23.5659C308.968 23.5659 310.519 25.1938 310.519 27.2093V45.3488L318.736 36.2791C319.588 35.3488 320.596 34.3411 321.836 34.3411C323.619 34.3411 325.247 35.969 325.247 37.8295C325.247 38.3721 325.092 38.9922 324.782 39.4574L318.271 46.5891L324.937 54.6512ZM338.891 40.7752C336.953 40.7752 333.774 41.783 333.774 44.8062H344.084C344.007 41.783 340.751 40.7752 338.891 40.7752ZM348.193 49.3798H333.774C333.774 53.6434 337.883 54.3411 339.666 54.3411C340.984 54.3411 342.844 54.1085 344.317 53.4108C344.782 53.1008 345.48 52.8682 346.178 52.8682C347.728 52.8682 349.046 54.186 349.046 55.8139C349.046 56.8992 348.348 57.8295 347.495 58.3721C345.325 60 342.457 60.3876 339.743 60.3876C332.534 60.3876 326.565 56.5116 326.565 47.4419C326.565 40.3101 330.209 34.1085 338.736 34.1085C345.635 34.1085 350.829 38.6046 350.984 46.5891C350.984 48.062 349.743 49.3798 348.193 49.3798ZM368.038 60.3101H366.1C360.674 60.3101 357.495 57.907 357.495 49.4574V40.6977H355.635C353.929 40.6977 352.457 39.1473 352.457 37.4419C352.457 35.5814 354.007 34.1085 355.635 34.1085H357.495V27.3644C357.495 25.3488 359.046 23.7209 361.061 23.7209C362.999 23.7209 364.627 25.3488 364.627 27.3644V34.1085H367.573C369.278 34.1085 370.751 35.5814 370.751 37.4419C370.751 39.1473 369.201 40.6977 367.573 40.6977H364.627V48.062C364.627 52.9457 364.86 53.9535 367.03 53.9535H368.038C369.743 53.9535 371.216 55.3488 371.216 57.1318C371.216 58.8372 369.743 60.3101 368.038 60.3101ZM402.534 26.3566C403.464 26.8992 404.317 28.217 404.317 29.3798C404.317 31.2403 402.767 32.7907 400.984 32.7907C400.519 32.7907 400.131 32.6357 399.743 32.5581C397.65 31.0077 395.015 30 392.224 30C385.635 30 381.139 35.3488 381.139 42.0155C381.139 48.6822 385.712 53.9535 392.224 53.9535C395.48 53.9535 398.426 52.6357 400.596 50.5426C401.139 50.155 401.836 49.9225 402.534 49.9225C404.317 49.9225 405.712 51.3178 405.712 53.1008C405.712 54.2636 405.015 55.2713 404.162 55.8139C400.984 58.5271 396.72 60.3101 392.302 60.3101C382.224 60.3101 374.007 52.0155 374.007 41.7829C374.007 31.5504 382.224 23.2558 392.302 23.2558C396.022 23.1783 399.666 24.3411 402.534 26.3566ZM420.596 53.9535C423.774 53.9535 426.488 51.0853 426.488 47.2093C426.488 43.3333 423.697 40.7752 420.596 40.7752C417.418 40.7752 414.937 43.4108 414.937 47.2093C414.937 50.9302 417.495 53.9535 420.596 53.9535ZM428.193 57.2093L428.038 56.3566C426.643 59.0698 422.224 60.3101 419.433 60.3101C412.767 60.3101 407.805 54.2636 407.805 47.0543C407.805 39.9225 412.844 34.031 419.821 34.031C420.984 34.031 425.015 34.3411 428.115 37.9845L428.271 37.1318C428.271 35.5814 429.433 34.3411 430.984 34.3411C432.534 34.3411 433.774 35.6589 433.774 37.1318V57.1318C433.774 58.6822 432.534 59.9225 430.984 59.9225C429.356 60 428.193 58.6822 428.193 57.2093ZM453.232 53.9535C456.41 53.9535 458.891 50.9302 458.891 47.2093C458.891 43.3333 456.333 40.7752 453.232 40.7752C450.053 40.7752 447.34 43.3333 447.34 47.2093C447.34 51.0853 450.053 53.9535 453.232 53.9535ZM447.34 58.2171V67.2868C447.34 69.3023 445.712 70.9302 443.774 70.9302C441.836 70.9302 440.209 69.3023 440.209 67.2868V37.2093C440.209 35.6589 441.449 34.4186 442.999 34.4186C444.55 34.4186 445.712 35.7364 445.712 37.5194C448.348 34.8062 451.604 34.1085 454.084 34.1085C460.984 34.1085 466.1 39.9225 466.1 47.1318C466.1 54.2636 461.216 60.3876 454.472 60.3876C452.379 60.3101 449.278 59.6899 447.34 58.2171Z" fill="white"/>
</svg>