<?xml version="1.0" encoding="utf-8"?>
<svg xmlns="http://www.w3.org/2000/svg" fill="none" height="50" viewBox="0 0 245 50" width="245">
<g clip-path="url(#clip0_2042_5219)">
<path d="M63.4996 32.4C62.0996 33.1 60.3996 33.4 58.1996 33.4C55.3996 33.4 53.0996 32.6 51.4996 30.9C49.8996 29.2 49.0996 27 49.0996 24.2C49.0996 21.2 49.9996 18.8 51.7996 17C53.5996 15.2 55.9996 14.2 58.8996 14.2C60.6996 14.2 62.1996 14.4 63.4996 14.9V18.9C62.2996 18.2 60.7996 17.8 59.2996 17.8C57.5996 17.8 56.1996 18.3 55.0996 19.4C53.9996 20.5 53.4996 22 53.4996 23.8C53.4996 25.6 53.9996 27 54.9996 28.1C55.9996 29.2 57.3996 29.7 59.0996 29.7C60.6996 29.7 62.1996 29.3 63.5996 28.5V32.4H63.4996Z" fill="white"/>
<path d="M75.0004 23.5C74.5004 23.2 73.9004 23.1 73.3004 23.1C72.4004 23.1 71.7004 23.4 71.2004 24.1C70.7004 24.7 70.5004 25.5999 70.5004 26.7999V33.0999H66.4004V19.9H70.5004V22.4H70.6004C71.2004 20.6 72.4004 19.7 74.1004 19.7C74.5004 19.7 74.9004 19.8 75.1004 19.9V23.5H75.0004Z" fill="white"/>
<path d="M90.4992 19.8999L85.0992 34.1999C83.7992 37.5999 81.8992 39.2999 79.2992 39.2999C78.2992 39.2999 77.4992 39.1999 76.8992 38.9999V35.6999C77.3992 35.9999 77.9992 36.1999 78.6992 36.1999C79.6992 36.1999 80.4992 35.6999 80.8992 34.6999L81.5992 33.0999L76.1992 19.8999H80.6992L83.1992 27.8999C83.3992 28.3999 83.4992 28.9999 83.5992 29.6999H83.6992C83.7992 29.1999 83.8992 28.5999 84.0992 27.9999L86.5992 19.8999H90.4992Z" fill="white"/>
<path d="M96.2996 31.5L96.1996 39.1H92.0996V19.9H96.1996V21.9H96.2996C97.2996 20.4 98.6996 19.6 100.5 19.6C102.2 19.6 103.5 20.2 104.5 21.4C105.4 22.6 105.9 24.2 105.9 26.2C105.9 28.4 105.4 30.2 104.3 31.5C103.2 32.8 101.8 33.5 99.9996 33.5C98.2996 33.4 97.0996 32.8 96.2996 31.5ZM96.0996 26.1V27.2C96.0996 28.1 96.2996 28.9 96.7996 29.4C97.2996 30 97.8996 30.3 98.6996 30.3C99.5996 30.3 100.3 29.9 100.9 29.2C101.4 28.5 101.7 27.5 101.7 26.1C101.7 23.8 100.8 22.6 98.9996 22.6C98.1996 22.6 97.4996 22.9 96.9996 23.5C96.3996 24.3 96.0996 25.1 96.0996 26.1Z" fill="white"/>
<path d="M116.5 32.8999C115.9 33.1999 115 33.3999 113.8 33.3999C110.9 33.3999 109.5 31.8999 109.5 28.8999V22.7999H107.4V19.7999H109.5V16.9999L113.6 15.7999V19.7999H116.6V22.7999H113.6V28.0999C113.6 29.4999 114.1 30.1999 115.2 30.1999C115.6 30.1999 116.1 30.0999 116.5 29.7999V32.8999Z" fill="white"/>
<path d="M125 33.4C122.8 33.4 121.1 32.8 119.8 31.5C118.5 30.2 117.9 28.6 117.9 26.5C117.9 24.3 118.6 22.6 119.9 21.4C121.2 20.2 123 19.5 125.2 19.5C127.4 19.5 129.1 20.1 130.4 21.4C131.6 22.6 132.3 24.3 132.3 26.3C132.3 28.5 131.7 30.2 130.4 31.5C129 32.8 127.2 33.4 125 33.4ZM125.1 22.7C124.1 22.7 123.4 23 122.9 23.7C122.4 24.4 122.1 25.3 122.1 26.5C122.1 29 123.1 30.3 125.2 30.3C127.2 30.3 128.1 29 128.1 26.4C128.1 23.9 127.1 22.7 125.1 22.7Z" fill="white"/>
<path d="M148.9 33.2C147.5 33.9 145.8 34.2 143.6 34.2C140.8 34.2 138.5 33.4 136.9 31.7C135.3 30 134.5 27.8 134.5 25C134.5 22 135.4 19.6 137.2 17.8C139 16 141.4 15 144.3 15C146.1 15 147.6 15.2 148.9 15.7V19.7C147.7 19 146.2 18.6 144.7 18.6C143 18.6 141.6 19.1 140.5 20.2C139.4 21.3 138.9 22.8 138.9 24.6C138.9 26.4 139.4 27.8 140.4 28.9C141.4 30 142.8 30.5 144.5 30.5C146.1 30.5 147.6 30.1 149 29.3V33.2H148.9Z" fill="#76D482"/>
<path d="M158 34.2001C155.8 34.2001 154.1 33.6 152.8 32.3C151.5 31.1 150.9 29.4 150.9 27.3C150.9 25.1 151.6 23.4001 152.9 22.2001C154.2 21.0001 156 20.3 158.2 20.3C160.4 20.3 162.1 20.9001 163.4 22.2001C164.6 23.4001 165.3 25.1 165.3 27.1C165.3 29.3 164.7 31 163.4 32.3C162 33.6 160.2 34.2001 158 34.2001ZM158.1 23.5C157.1 23.5 156.4 23.8 155.9 24.5C155.4 25.2 155.1 26.1 155.1 27.3C155.1 29.8 156.1 31.1 158.2 31.1C160.2 31.1 161.1 29.8001 161.1 27.2001C161 24.7001 160.1 23.5 158.1 23.5Z" fill="#76D482"/>
<path d="M188.801 33.9H184.701V26.4C184.701 24.5 184.001 23.5 182.601 23.5C181.901 23.5 181.401 23.8 181.001 24.4C180.601 25 180.401 25.7 180.401 26.6V34H176.301V26.4C176.301 24.5 175.601 23.6 174.201 23.6C173.501 23.6 172.901 23.9 172.501 24.4C172.101 25 171.901 25.7 171.901 26.6V33.9H167.801V20.7H171.901V22.8H172.001C172.401 22.1 173.001 21.5 173.801 21.1C174.601 20.7 175.401 20.4 176.301 20.4C178.201 20.4 179.401 21.2 180.101 22.9C181.101 21.3 182.601 20.4 184.501 20.4C187.401 20.4 188.801 22.2 188.801 25.7V33.9Z" fill="#76D482"/>
<path d="M196.2 32.3L196.1 39.9H192V20.7H196.1V22.7H196.2C197.2 21.2 198.6 20.4 200.4 20.4C202.1 20.4 203.4 21 204.4 22.2C205.3 23.4 205.8 25 205.8 27C205.8 29.2 205.3 31 204.2 32.3C203.1 33.6 201.7 34.3 199.9 34.3C198.3 34.2 197 33.6 196.2 32.3ZM196.1 26.9V28C196.1 28.9 196.3 29.7 196.8 30.2C197.3 30.8 197.9 31.1 198.7 31.1C199.6 31.1 200.4 30.7 200.9 30C201.4 29.3 201.7 28.3 201.7 26.9C201.7 24.6 200.8 23.4 199 23.4C198.2 23.4 197.5 23.7 197 24.3C196.5 24.9 196.1 25.9 196.1 26.9Z" fill="#76D482"/>
<path d="M219.199 33.9001H215.299V32H215.199C214.299 33.5 212.999 34.2001 211.299 34.2001C209.999 34.2001 208.999 33.8 208.299 33.1C207.599 32.4 207.199 31.4001 207.199 30.2001C207.199 27.6001 208.699 26.2 211.799 25.8L215.399 25.3C215.399 23.9 214.599 23.1 212.999 23.1C211.399 23.1 209.899 23.6 208.499 24.5V21.4C209.099 21.1 209.799 20.8 210.799 20.6C211.799 20.4 212.699 20.3 213.499 20.3C217.299 20.3 219.199 22.2 219.199 25.9V33.9001ZM215.399 28.5V27.6L212.999 27.9C211.699 28.1 210.999 28.7001 210.999 29.7001C210.999 30.2001 211.199 30.5 211.499 30.8C211.799 31.1 212.299 31.2001 212.799 31.2001C213.599 31.2001 214.199 30.9 214.699 30.4C215.199 29.9 215.399 29.3 215.399 28.5Z" fill="#76D482"/>
<path d="M231.1 24.3C230.6 24 230 23.9 229.4 23.9C228.5 23.9 227.8 24.2 227.3 24.9C226.8 25.6 226.6 26.4 226.6 27.6V33.9H222.5V20.7H226.6V23.2H226.7C227.3 21.4 228.5 20.5 230.2 20.5C230.6 20.5 231 20.6 231.2 20.7V24.3H231.1Z" fill="#76D482"/>
<path d="M244.7 28.4H236.1C236.2 30.3 237.4 31.3 239.7 31.3C241.2 31.3 242.4 31 243.5 30.3V33.2001C242.3 33.9001 240.7 34.2001 238.7 34.2001C236.6 34.2001 234.9 33.6001 233.7 32.4001C232.5 31.2001 231.9 29.6 231.9 27.4C231.9 25.2 232.5 23.5001 233.8 22.2001C235.1 20.9001 236.6 20.3 238.5 20.3C240.4 20.3 241.9 20.9 243 22C244.1 23.1 244.6 24.7001 244.6 26.7001V28.4H244.7ZM241 25.9C241 24 240.2 23.1 238.7 23.1C238 23.1 237.5 23.4 237 23.9C236.5 24.4 236.2 25.1 236.1 25.9H241Z" fill="#76D482"/>
<path d="M16.4004 31.6V28.2L20.0004 24.6V31.6" fill="white"/>
<path d="M21.6992 31.6V26.8L23.3992 28.1L25.4992 26.3V31.6" fill="#F1F2F2"/>
<path d="M27 31.6H31.1V21.4L27 25.1" fill="#F1F2F2"/>
<path d="M16.2004 26.3L15.4004 25.3L20.0004 20.9L23.3004 24L29.2004 18.7L28.2004 17.5L32.3004 16.6L31.5004 20.6L30.3004 19.8L23.2004 26.6L20.0004 23.6L19.7004 23.3C19.7004 23.3 16.6004 26.5 16.4004 26.4" fill="#76D482"/>
<path d="M21.5 12.7C31.8 9.90003 41.6 12.9 43.4 19.5C45.2 26.1 38.3 33.7 27.9 36.5" stroke="#76D482" stroke-width="4"/>
<path d="M26.5994 37C16.2994 39.8 6.49941 36.8 4.69941 30.2C2.89941 23.6 9.79942 16 20.1994 13.2" stroke="white" stroke-miterlimit="10" stroke-width="4"/>
</g>
<defs>
<clipPath id="clip0_2042_5219">
<rect fill="white" height="50" width="245"/>
</clipPath>
</defs>
</svg>