<?xml version="1.0" encoding="utf-8"?>
<svg xmlns="http://www.w3.org/2000/svg" fill="none" height="198" viewBox="0 0 593 198" width="593">
<path clip-rule="evenodd" d="M81.8 1.28788C63.9 3.48788 44.2 12.6879 27.4 26.8879C24 29.6879 16.9 36.5879 16.9 36.9879C16.9 37.1879 20.3 40.7879 24.5 44.9879L32.1 52.6879L28.9 56.2879C17.1 69.5879 9.1 83.0879 4.3 97.3879C1.3 106.388 0 113.788 0 122.088C0 129.588 0.999995 135.688 3.3 141.588L4.2 143.988L26.5 166.288C45.1 184.888 49.3 188.888 51.6 190.388C56.4 193.588 62 195.788 68.2 197.088C72.3 197.988 81.8 198.288 86.3 197.688C104.1 195.488 122.5 187.088 138.6 173.688C142.8 170.188 149.9 163.488 149.9 163.088C149.9 162.888 146.4 159.288 142.2 154.988L134.5 147.188L136.9 144.688C142.8 138.488 150 128.588 154.2 120.788C160.2 109.888 164.1 98.0879 165.4 87.2879C165.9 82.5879 165.6 72.5879 164.8 68.7879C163.4 62.3879 161.2 57.1879 157.9 52.1879C156.2 49.5879 152.8 46.0879 134 27.1879L112 5.18789L109.7 4.28788C106.6 2.98788 100.2 1.48788 96.3 1.08788C92.4 0.687884 86.3 0.78788 81.8 1.28788ZM100.7 7.18789C102.3 7.58789 104.9 8.18789 106.3 8.68789C108.9 9.58789 109 9.58789 113.1 13.6879C116.7 17.2879 117.2 17.7879 116.3 17.6879C111.5 16.7879 103.8 16.5879 97.8 17.3879C78.6 19.7879 58.8 29.4879 40.6 45.4879C38.8 47.0879 37.2 48.4879 36.9 48.6879C36.6 48.8879 35 47.5879 30.3 42.8879L24.1 36.6879L28.1 33.1879C44.8 18.5879 63.2 9.38788 81.2 6.78788C86 6.08788 96.7 6.38789 100.7 7.18789ZM126.9 38.9879C135.7 40.2879 143.4 44.0879 149.1 49.7879C154.7 55.3879 158.3 62.5879 160 71.5879C160.7 75.5879 160.7 84.5879 160 89.2879C157.7 103.788 151 118.688 140.6 132.288C138.2 135.488 132.5 142.188 131.6 142.888C131.1 143.288 130.5 142.788 125.3 137.588C122.1 134.388 119.5 131.688 119.5 131.588C119.5 131.488 120.4 130.388 121.5 129.188C139.6 109.188 148.1 84.1879 142.1 68.6879C139.7 62.6879 134.7 58.1879 128.2 56.1879C124.9 55.1879 119.1 54.6879 114.8 55.1879C108.2 55.7879 100.1 58.3879 92.3 62.1879C84.5 65.9879 77.4 70.7879 70.5 76.9879L67.4 79.6879L61.5 73.7879L55.6 67.8879L58.1 65.5879C73.4 51.2879 93.7 41.0879 111.1 38.7879C114.6 38.4879 123.6 38.4879 126.9 38.9879ZM44.2 73.4879C42 75.9879 39.2 79.4879 37.8 81.2879C21.2 103.388 13.6 127.388 16.7 148.088L16.9 149.388L12.8 145.388C8.9 141.588 8.7 141.288 7.9 138.888C0.100001 116.488 9.89999 85.5879 33 59.6879L35.7 56.6879L41.9 62.8879L48.1 69.0879L44.2 73.4879ZM122.3 60.6879L123.1 60.8879L122.9 65.0879C122.7 70.0879 122 74.1879 121 77.6879C117.8 88.1879 111.9 98.6879 103.3 108.588L100 112.388L93.7 106.088L87.4 99.7879L90.3 96.5879C96.5 89.7879 102.2 81.8879 105.7 75.1879C107.6 71.5879 110.1 65.4879 110.8 62.6879C111.2 60.9879 111.2 60.9879 112.7 60.7879C113.5 60.6879 114.4 60.5879 114.7 60.4879C115.5 60.4879 121.6 60.4879 122.3 60.6879ZM104.4 65.0879C103 68.9879 99.9 74.9879 96.9 79.4879C93.6 84.4879 91.3 87.4879 86.7 92.6879L83.5 96.3879L77.2 90.0879L70.9 83.7879L73 81.8879C79.5 76.0879 87.1 70.8879 94.1 67.2879C97.9 65.3879 104.1 62.8879 105 62.7879C105.1 62.7879 104.9 63.7879 104.4 65.0879ZM200.2 68.8879C199.9 69.1879 199.8 77.4879 199.8 107.888C199.8 144.888 199.8 146.488 200.4 146.988C200.9 147.488 202.5 147.488 216 147.488C224.2 147.488 233.1 147.288 235.7 147.188C246.2 146.488 254.3 143.088 260.5 136.888C265.4 131.988 268.5 125.188 270.1 116.188C270.8 111.788 270.8 102.588 270.1 98.2879C267.5 83.7879 259.2 74.3879 245.9 70.5879C239.4 68.7879 238.9 68.6879 219.1 68.5879C204.4 68.5879 200.5 68.5879 200.2 68.8879ZM564.3 70.1879C564 70.4879 563.9 72.9879 563.9 79.3879V88.1879H560.1C557.6 88.1879 556.2 88.2879 555.9 88.5879C555.4 89.0879 555.4 99.4879 555.9 100.088C556.2 100.388 557.6 100.488 560.1 100.488H563.9L564 118.288C564.1 135.688 564.1 136.188 564.8 138.188C566.7 143.688 570.6 146.688 576.9 147.488C581.2 147.988 587.3 147.788 591.5 146.988L592.4 146.788L592.3 139.488L592.2 132.188L588.2 131.988C583.9 131.788 583.2 131.588 582.7 130.688C582.5 130.288 582.4 124.288 582.4 115.388V100.688L587.5 100.588L592.6 100.488V94.3879V88.2879L587.5 88.1879L582.4 88.0879V79.4879C582.4 74.1879 582.3 70.6879 582.1 70.2879C581.8 69.6879 581.3 69.6879 573.3 69.6879C567 69.8879 564.6 69.9879 564.3 70.1879ZM237 87.0879C243.1 88.6879 247.1 92.9879 248.7 99.2879C249.9 104.088 249.9 112.088 248.6 117.088C247.3 121.988 244.3 125.888 240.3 127.788C236.8 129.488 234.7 129.788 227.5 129.988L221 130.188V108.188V86.1879L228 86.3879C233.1 86.4879 235.6 86.6879 237 87.0879ZM298.1 87.4879C288.1 89.2879 280.4 95.8879 277 105.488C272.5 118.088 274.7 132.488 282.3 140.588C286.3 144.788 290.1 146.988 295.9 148.488C307 151.288 318.9 148.388 326.8 140.988C328.7 139.288 333.6 133.088 333.6 132.488C333.6 131.788 332.2 130.888 326.5 127.988C323 126.188 320.1 124.688 320 124.688C319.9 124.688 319.3 125.588 318.7 126.688C317.3 129.388 314.4 132.388 312.3 133.488C306 136.588 298.6 134.788 295.4 129.388C294.5 127.788 293.6 124.988 293.6 123.488V122.388H313.6C328.7 122.388 333.6 122.288 333.9 121.988C334.4 121.488 334.4 117.488 333.8 113.488C332.2 102.788 327.7 95.0879 320.5 90.7879C318.1 89.3879 313.5 87.7879 310.5 87.2879C307.5 86.7879 301.1 86.8879 298.1 87.4879ZM363.8 87.0879C361 87.4879 358.7 87.9879 356.9 88.5879C346.8 91.7879 340.1 100.088 338 111.888C337.2 116.388 337.5 123.588 338.6 127.888C340.1 133.688 342.3 137.488 346.3 141.288C349.8 144.588 353.9 146.888 359.4 148.388C361 148.888 362.6 148.988 366.7 148.988C371.4 148.988 372.1 148.888 374.7 148.088C379.9 146.488 383.9 144.088 387.5 140.288C389.9 137.788 392.6 134.088 392.6 133.288C392.6 132.988 392.1 132.488 391.6 132.088C389.5 130.788 379.8 125.988 379.3 125.988C379 125.988 378.5 126.688 378 127.688C376.8 130.288 375.2 131.988 372.7 133.188C370.8 134.088 370.2 134.288 368.1 134.188C365.3 134.188 363.5 133.488 361.2 131.488C355.2 126.188 354.8 111.488 360.5 104.788C364.1 100.588 370.8 100.588 375.1 104.688C375.8 105.388 376.8 106.688 377.3 107.588C377.8 108.488 378.4 109.288 378.7 109.288C379.4 109.488 391.7 102.388 391.9 101.688C392 101.088 390.7 99.0879 388.8 96.6879C385.7 92.8879 379.6 89.1879 374.3 87.9879C371.6 87.2879 365.8 86.8879 363.8 87.0879ZM524.2 87.7879C520.9 88.3879 517.9 89.5879 515.5 91.3879L513.6 92.7879L513.5 90.7879L513.4 88.7879L505.7 88.6879C498.9 88.5879 497.9 88.6879 497.4 89.1879C496.8 89.6879 496.8 91.1879 496.8 128.188C496.8 157.688 496.9 166.688 497.2 166.988C497.8 167.588 514.6 167.588 515.1 166.988C515.4 166.688 515.5 163.688 515.5 155.588V144.588L518.6 146.188C522.8 148.288 525.4 148.788 530.3 148.588C536 148.288 539.4 147.188 543.1 144.388C548.3 140.488 551.7 134.488 553.6 126.188C554.6 121.788 554.6 114.088 553.6 109.388C552.3 103.188 550.2 98.9879 546.4 94.9879C540.8 88.7879 532.6 86.2879 524.2 87.7879ZM73.2 93.6879C78.6 99.0879 78.9 99.4879 78.5 100.088C78.2 100.388 76.9 101.888 75.5 103.488C69.9 109.888 64.7 117.688 61.2 124.888C58.7 129.988 57.2 134.188 55.7 139.888C53.8 147.388 53.8 155.688 55.9 161.488C59.8 172.488 70.1 177.688 84.5 175.988C98.4 174.288 114.4 166.288 128.1 154.188L131 151.588L136.9 157.488L142.8 163.388L140.3 165.688C127.5 177.588 110.4 187.288 95.6 190.888C89.6 192.388 85.4 192.888 79.7 192.888C72.1 192.888 66.5 191.888 60.6 189.288C53 185.988 46 179.488 42.4 172.288C37.9 163.388 36.6 152.388 38.6 140.488C41.4 123.888 50.7 106.088 64.4 90.7879C65.8 89.1879 67.1 87.8879 67.2 87.8879C67.3 87.8879 70 90.4879 73.2 93.6879ZM429 88.2879C425.1 88.8879 420.2 90.6879 417 92.7879L416 93.4879V91.3879C416 90.1879 415.8 89.1879 415.6 88.8879C415.3 88.5879 413 88.4879 407.1 88.4879C399.7 88.4879 398.9 88.4879 398.5 89.0879C398 89.5879 398 92.0879 398 118.088C398 145.188 398 146.488 398.6 146.988C399.1 147.488 400.2 147.488 407.4 147.488C413.8 147.488 415.7 147.388 416 147.088C416.2 146.788 416.4 140.888 416.4 128.788C416.5 111.988 416.5 110.788 417.1 109.688C418.3 107.288 420.4 106.288 426.5 105.288C428.8 104.888 431.1 104.488 431.6 104.388L432.5 104.188V96.3879C432.5 88.5879 432.4 87.6879 431.4 87.8879C431 87.9879 430 88.0879 429 88.2879ZM437.2 88.9879C437 89.2879 436.9 89.7879 437 90.2879C437.1 90.6879 439.8 99.4879 443 109.688C455.8 150.888 455.1 148.488 454.2 150.088C453.4 151.688 452 151.988 447 151.988C443.9 151.988 442.3 152.088 442.1 152.388C441.8 152.688 441.7 154.688 441.7 159.588C441.7 164.488 441.8 166.488 442.1 166.788C442.6 167.288 455.3 167.288 458.6 166.888C464.1 166.088 468.6 162.188 471.2 155.988C471.8 154.688 476.9 139.188 482.6 121.588C491.3 94.9879 493 89.4879 492.6 89.0879C492.3 88.6879 490.8 88.5879 482.9 88.5879H473.6L473.3 89.9879C473.1 90.7879 471.2 99.0879 469 108.588C466.8 118.088 465 125.988 464.8 126.088C464.7 126.188 462.6 117.788 460.3 107.488L456 88.5879H446.7C439 88.5879 437.5 88.5879 437.2 88.9879ZM309.5 101.488C312.5 102.888 314.5 105.588 315.1 108.888L315.3 110.088H304.6H293.9L294.1 109.088C294.5 107.288 296.2 104.388 297.6 103.188C300 101.088 302.1 100.388 305.4 100.588C307 100.688 308.2 100.988 309.5 101.488ZM530.2 101.988C533 103.488 535.1 106.588 536.1 110.788C536.8 113.888 536.8 121.288 536 124.388C535.3 127.088 533.9 129.888 532.4 131.788C530 134.688 525.3 135.488 521.5 133.588C517.1 131.388 515 126.488 515 118.288C515 110.688 517 105.288 520.7 102.588C523.6 100.588 527.1 100.388 530.2 101.988ZM92.8 118.188C84.6 125.888 74.1 132.788 65.4 136.288C63.6 136.988 62 137.588 61.9 137.588C61.8 137.588 62.2 136.488 62.7 135.088C66.5 124.588 73.1 113.888 81 105.388L82.9 103.388L89.2 109.588L95.5 115.788L92.8 118.188ZM105.4 125.988L111.5 132.088L109.6 133.888C99.6 143.288 84.2 151.788 73.3 154.088C70.6 154.688 64.6 155.288 61.7 155.288H59.8V150.688C59.8 148.188 59.9 145.488 60 144.888L60.2 143.688L64.1 142.388C74 139.188 86.6 131.288 95.9 122.488C97.4 121.088 98.8 119.888 99 119.888C99.2 119.888 102.1 122.588 105.4 125.988Z" fill="white" fill-rule="evenodd"/>
</svg>