<svg width="230" height="32" viewBox="0 0 230 32" fill="none" xmlns="http://www.w3.org/2000/svg">
  <path fill-rule="evenodd" clip-rule="evenodd"
    d="M18.365 30.0742H26.1884V9.14127H18.365V30.0742ZM18.365 6.88199H26.1884V1.27471H18.365V6.88199ZM4.70223 30.0742H12.5257V14.9598H16.476V9.13978H12.3665C12.2475 7.20623 12.7934 6.92364 14.6897 6.92364H16.6723V1.27322C15.4869 1.23306 14.3417 1.27322 13.1563 1.27322C9.99569 1.27322 8.02049 1.51566 6.31898 3.25139C4.81973 4.78335 4.62191 7.08279 4.70223 9.13978H1.50146V14.9598H4.70223V30.0742ZM28.2275 30.0742H36.051V19.0232C36.051 15.6737 37.8283 14.9895 39.1714 14.9895C41.4634 14.9895 41.7401 16.6836 41.7401 19.1035V30.0742H49.5635V15.7154C49.5635 10.9157 46.205 8.61624 42.5313 8.61624C39.4079 8.61624 37.3137 9.70497 35.8531 11.8021H35.7743V9.13978H28.2275V30.0742ZM64.3403 22.6122C64.2213 24.7896 62.8381 25.8783 61.0621 25.8783C59.6387 25.8783 58.611 24.9115 58.611 23.9434C58.611 22.5304 59.5212 22.0886 61.2584 21.684C62.3263 21.4431 63.3928 21.1605 64.3403 20.6756V22.6122ZM71.8484 16.804C71.8484 12.7704 71.9272 8.61624 62.1286 8.61624C57.2679 8.61624 51.8154 9.58301 51.5788 15.4728H58.849C58.8876 14.5849 59.3621 13.3356 61.7731 13.3356C63.0374 13.3356 64.3403 13.8591 64.3403 15.2706C64.3403 16.6033 63.2738 16.9245 62.2074 17.1268C58.2154 17.8928 50.63 17.6504 50.63 24.266C50.63 28.6627 53.9095 30.5977 57.8613 30.5977C60.3898 30.5977 62.7993 30.034 64.4592 28.0975H64.5381C64.4994 28.6626 64.6169 29.5105 64.8147 30.0756H71.8484V16.804ZM73.8474 30.0742H81.6707V19.0232C81.6707 15.6737 83.4481 14.9895 84.7912 14.9895C87.0832 14.9895 87.3598 16.6836 87.3598 19.1035V30.0742H95.1833V15.7154C95.1833 10.9157 91.8248 8.61624 88.1497 8.61624C85.0277 8.61624 82.9336 9.70497 81.4714 11.8021H81.3926V9.13978H73.8474V30.0742ZM96.687 30.0742H117.153V24.266H106.96L116.324 15.2706V9.13978H97.5541V14.9493H106.286L96.6855 23.9032V30.0756L96.687 30.0742ZM124.78 17.2473C125.137 14.9895 126.48 13.7401 128.811 13.7401C130.824 13.7401 132.248 15.3123 132.248 17.2473H124.78ZM139.755 21.4029C139.755 13.2552 136.239 8.61624 128.1 8.61624C121.619 8.61624 117.273 13.578 117.273 19.6673C117.273 26.6458 122.211 30.5992 128.77 30.5992C133.432 30.5992 137.739 28.5005 139.322 23.9834H132.011C131.38 24.9919 129.995 25.4753 128.732 25.4753C126.282 25.4753 124.939 23.7827 124.741 21.4029H139.755ZM141.059 30.0742H148.883V19.0232C148.883 15.6737 150.662 14.9895 152.003 14.9895C154.294 14.9895 154.571 16.6836 154.571 19.1035V30.0742H162.059V15.7154C162.059 10.9157 159.038 8.61624 155.361 8.61624C152.241 8.61624 150.146 9.70497 148.684 11.8021H148.606V9.13978H141.059V30.0742ZM180.044 8.90032H182.584V12.5607H182.663C183.591 10.0114 186.373 8.28158 189.314 8.28158C195.157 8.28158 196.93 11.4095 196.93 16.4694V30.1277H194.392V16.8815C194.392 13.2195 193.223 10.462 189.112 10.462C185.081 10.462 182.663 13.5899 182.582 17.7456V30.1277H180.044V8.90032ZM215.509 18.0326C215.389 14.1238 213.011 10.462 208.901 10.462C204.748 10.462 202.452 14.1656 202.049 18.0326H215.509ZM202.049 20.2131C202.09 23.9984 204.022 28.5645 208.901 28.5645C212.607 28.5645 214.625 26.3425 215.431 23.1327H217.968C216.881 27.9472 214.14 30.7449 208.901 30.7449C202.292 30.7449 199.51 25.5615 199.51 19.514C199.51 13.9187 202.292 8.28158 208.901 8.28158C215.59 8.28158 218.251 14.2488 218.049 20.2131H202.049ZM224.335 8.90032H228.568V11.0793H224.337V25.3964C224.337 27.0831 224.577 28.0707 226.389 28.1927C227.116 28.1927 227.842 28.1525 228.568 28.0707V30.2913C227.801 30.2913 227.075 30.3746 226.311 30.3746C222.926 30.3746 221.757 29.222 221.797 25.6017V11.0793H218.17V8.90032H221.797V2.5211H224.337V8.89884L224.335 8.90032Z"
    fill="white" />
  <path fill-rule="evenodd" clip-rule="evenodd"
    d="M170.922 30.2972C174.631 30.2972 177.637 27.2274 177.637 23.442C177.637 19.6553 174.631 16.5854 170.922 16.5854C167.212 16.5854 164.207 19.6553 164.207 23.442C164.207 27.2274 167.212 30.2972 170.922 30.2972Z"
    fill="white" />
  <path fill-rule="evenodd" clip-rule="evenodd"
    d="M170.922 22.3846C173.793 22.3846 176.295 23.9657 177.626 23.6711C177.629 23.5938 177.637 23.5195 177.637 23.442C177.637 19.6553 174.631 16.5854 170.922 16.5854C167.212 16.5854 164.207 19.6553 164.207 23.442C164.207 23.5195 164.215 23.5938 164.217 23.6711C165.547 23.9671 168.049 22.3846 170.922 22.3846Z"
    fill="white" />
</svg>
