<?xml version="1.0" encoding="utf-8"?>
<svg xmlns="http://www.w3.org/2000/svg" fill="none" height="37" viewBox="0 0 140 37" width="140">
<g clip-path="url(#clip0_263_1756)">
<path clip-rule="evenodd" d="M14.951 35.8961V35.8667C16.6562 35.8156 18.8863 35.7901 21.6413 35.7901L22.3316 35.7909C24.8294 35.7963 26.9629 35.8313 28.7319 35.896V33.8591C27.4572 33.7532 26.7135 33.6827 26.5012 33.6475C25.8815 33.524 25.4654 33.3917 25.2529 33.2506C25.1112 33.1625 24.9962 33.0214 24.9077 32.8274C24.7838 32.5628 24.7129 32.0161 24.6953 31.1873C24.6244 29.318 24.589 27.7396 24.589 26.4522V22.0081C24.5713 19.5391 24.6244 18.1282 24.7484 17.7755C24.9608 17.176 25.4742 16.5808 26.2886 15.9899C27.1031 15.3992 28.1299 15.1038 29.3692 15.1038C30.6085 15.1038 31.6 15.3992 32.3436 15.9899C33.0872 16.5808 33.5785 17.3612 33.8175 18.331C34.0565 19.301 34.1761 21.3291 34.1761 24.4152V26.5051L34.0433 30.8435C33.8485 33.524 33.7334 35.0495 33.698 35.4198L34.1761 35.896C35.4684 35.7725 36.991 35.7108 38.7437 35.7108C40.2663 35.7108 42.2316 35.7725 44.6394 35.896V33.8591C43.9489 33.7886 43.4532 33.7444 43.1523 33.7268C42.3378 33.6739 41.8111 33.5461 41.5721 33.3432C41.3331 33.1404 41.1737 32.6863 41.094 31.9809C41.0143 31.2755 40.9657 29.4325 40.9479 26.4522L40.9215 23.7276C40.9215 23.4277 40.9303 23.172 40.9479 22.9604C40.9834 22.4137 41.0011 21.1352 41.0011 19.1247C41.0011 17.3435 40.8684 16.0341 40.6027 15.1964C40.3372 14.3587 39.8769 13.5562 39.2218 12.7891C38.5667 12.022 37.7656 11.4268 36.8185 11.0036C35.8712 10.5803 34.4504 10.3687 32.556 10.3687C31.8479 10.3687 31.2946 10.4084 30.8963 10.4877C30.4979 10.5671 30.0066 10.7214 29.4223 10.9507L24.589 14.8128V10.5539L23.872 10.2364C22.5972 10.8184 21.4553 11.2416 20.4461 11.5062C19.437 11.7707 17.3213 12.1763 14.0991 12.723V14.7599C15.7633 14.8128 16.7637 14.901 17.1001 15.0244C17.3124 15.095 17.4674 15.2052 17.5648 15.3551C17.6621 15.5051 17.7373 16.1443 17.7905 17.2729C17.8967 19.5126 17.9499 21.4172 17.9499 22.9868L17.9496 26.7762C17.948 27.7205 17.9392 28.415 17.9233 28.8594L17.817 31.2138C17.7993 32.1484 17.702 32.7833 17.525 33.1184C17.4009 33.33 17.2151 33.4799 16.9672 33.568C16.5532 33.7193 15.8811 33.8116 14.951 33.8449V33.8328C13.1096 33.7621 11.95 33.6122 11.472 33.383C11.2595 33.2773 11.1179 33.0655 11.0471 32.7482C10.9054 32.1838 10.8346 30.3674 10.8346 27.2988V18.3047C10.8346 15.8887 10.9408 13.3051 11.1533 10.554L10.5159 10.2101C8.90483 10.8626 7.41764 11.3476 6.0544 11.665C4.69115 11.9824 2.67283 12.2822 -0.000549316 12.5644V14.5749C2.05318 14.5925 3.25708 14.7159 3.61117 14.9452C3.77051 15.051 3.8856 15.2803 3.95641 15.633C4.1061 16.3454 4.18547 19.1586 4.19455 24.0729L4.19503 25.5075C4.18848 29.2609 4.10009 31.6038 3.92985 32.5365C3.85903 32.9951 3.682 33.308 3.39872 33.4756C3.11545 33.6431 1.98235 33.7975 -0.000549316 33.9385V35.8961C1.94695 35.8255 4.19542 35.7903 6.74488 35.7903C9.37085 35.7903 11.8223 35.8181 14.0991 35.8738V35.896C14.2148 35.8914 14.3335 35.8869 14.4553 35.8827C14.6214 35.887 14.7867 35.8915 14.951 35.8961ZM14.0991 35.8738V33.8591C14.4038 33.8591 14.6877 33.8543 14.951 33.8449V35.8667C14.7805 35.8718 14.6152 35.877 14.4553 35.8827L14.0991 35.8738ZM60.1323 30.4996C59.0701 33.1978 58.3088 35.0672 57.8485 36.1077H53.201C52.2981 33.6563 51.2182 30.8523 49.9611 27.6956L46.4556 18.8602C46.137 18.0666 45.5439 16.6999 44.6763 14.7599C44.393 14.1428 44.101 13.7371 43.7999 13.5431C43.3219 13.261 42.5429 13.1111 41.4629 13.0934V11.0301C43.977 11.083 46.4379 11.1094 48.8458 11.1094C51.1119 11.1094 53.3427 11.083 55.5381 11.0301V13.1199C54.5111 13.1199 53.5994 13.1904 52.8027 13.3315C52.5726 13.3844 52.3999 13.4769 52.2848 13.6092C52.1698 13.7415 52.1122 13.8958 52.1122 14.0721L52.2184 14.5483L53.2542 17.7492L55.3787 23.2778L56.4144 25.8702C57.0341 27.4575 57.4412 28.4715 57.636 28.9124L59.3622 24.9444L60.9822 21.0029C62.0444 18.5163 62.7615 16.6557 63.1333 15.4213C63.3103 14.8041 63.3988 14.3544 63.3988 14.0721C63.3988 13.7901 63.2661 13.574 63.0005 13.4241C62.735 13.2742 61.7169 13.164 59.9465 13.0934V11.0301C61.7701 11.083 63.4785 11.1094 65.0718 11.1094C66.5944 11.1094 68.4092 11.083 70.516 11.0301V13.1463C69.1882 13.3051 68.4048 13.4374 68.1658 13.5431C67.9267 13.649 67.7099 13.8605 67.5151 14.178C67.1433 14.7423 66.3732 16.3295 65.2047 18.9395L62.7084 24.5477L61.6461 26.8755C61.1858 27.8983 60.6812 29.1064 60.1323 30.4996ZM81.1497 36.8219C82.6192 36.8219 83.9294 36.672 85.0801 36.3722C86.6204 35.949 88.1165 35.2964 89.5682 34.4147L90.7368 31.8223L90.0993 31.0816C88.7184 31.7694 87.6031 32.2235 86.7533 32.4439C85.9033 32.6643 84.974 32.7745 83.9648 32.7745C81.6277 32.7745 79.6625 31.9677 78.0691 30.3541C76.4758 28.7405 75.6082 26.5404 75.4666 23.754H77.2193C77.5026 23.754 77.7593 23.7452 77.9895 23.7276C78.2196 23.71 79.4235 23.6923 81.6012 23.6747C83.7788 23.6571 85.5316 23.5953 86.8594 23.4895C87.2843 23.4719 88.0987 23.3484 89.3027 23.1192C90.2056 22.9429 90.8784 22.7841 91.3209 22.643C91.3564 22.1845 91.374 21.7084 91.374 21.2146C91.374 19.0278 91.0599 17.1672 90.4313 15.6329C89.8028 14.0987 88.7273 12.8377 87.2047 11.8502C85.6821 10.8626 83.7346 10.3688 81.3622 10.3688C81.3232 10.3688 81.2645 10.3675 81.1884 10.3658C80.3964 10.3481 77.7088 10.288 75.4666 11.2154C73.1659 12.167 71.3912 14.2898 70.9902 14.8277C70.3212 15.7248 69.6811 17.2616 69.4913 17.8285C68.8716 19.645 68.5618 21.7084 68.5618 24.0186C68.5618 25.6058 68.7212 27.0695 69.0398 28.4098C69.3585 29.7501 69.8763 30.9317 70.5935 31.9546C71.3104 32.9774 72.1426 33.8416 73.0897 34.547C74.037 35.2524 75.1789 35.8079 76.5155 36.2134C77.8523 36.6191 79.397 36.8219 81.1497 36.8219ZM75.2801 20.8707C76.3247 21.0294 78.0686 21.1089 80.5118 21.1089C82.0699 21.1089 83.3711 21.0294 84.4157 20.8707C84.4865 18.0667 84.1059 16.1004 83.2737 14.9717C82.4239 13.8607 81.3262 13.3052 79.9807 13.3052C78.5998 13.3052 77.4578 13.8871 76.5548 15.0511C75.6343 16.2327 75.2094 18.1726 75.2801 20.8707ZM107.518 35.8962L111.289 35.8698C111.785 35.8698 112.67 35.8258 113.945 35.7375L114.131 35.5259C114.184 33.4978 114.388 30.7909 114.742 27.4048H112.564C112.015 30.2264 111.643 31.8137 111.449 32.1664C111.378 32.3074 111.272 32.4045 111.13 32.4573C110.882 32.5632 109.652 32.6955 107.439 32.8542C106.447 32.9071 104.517 32.9335 101.649 32.9335L99.6839 32.9071C100.056 32.3252 101.578 30.1427 104.252 26.36C106.925 22.5771 110.227 18.0933 114.157 12.9085V11.0303C109.483 11.1538 106.766 11.2155 106.004 11.2155L95.8332 11.1097L93.3369 10.9774L92.9385 11.0039L92.6995 11.242C92.7173 11.965 92.7261 12.4588 92.7261 12.7233L92.7258 12.769C92.7207 13.2213 92.6499 15.1371 92.5136 18.5166H94.6116C94.7709 17.6701 94.9215 16.7619 95.0631 15.7919C95.1516 15.1393 95.2843 14.7206 95.4614 14.5353C95.6385 14.3502 96.1342 14.2311 96.9485 14.1783C98.2764 14.0724 100.011 14.0195 102.154 14.0195H105.261C101.277 19.7158 97.5947 24.8036 94.2133 29.283C92.1772 31.9989 90.929 33.6125 90.4688 34.1239V35.8962C90.9644 35.861 92.6286 35.8169 95.4614 35.764C98.0478 35.7157 99.6306 35.6894 100.21 35.6853L100.348 35.6847C101.392 35.6847 102.508 35.7111 103.694 35.764C105.978 35.8522 107.253 35.8962 107.518 35.8962ZM135.946 35.8698L132.174 35.8962C131.91 35.8962 130.634 35.8522 128.35 35.764C127.164 35.7111 126.049 35.6847 125.004 35.6847L124.866 35.6853C124.287 35.6894 122.704 35.7157 120.118 35.764C117.285 35.8169 115.621 35.861 115.125 35.8962V34.1239C115.585 33.6125 116.834 31.9989 118.87 29.283C122.251 24.8036 125.934 19.7158 129.917 14.0195H126.81C124.668 14.0195 122.933 14.0724 121.605 14.1783C120.79 14.2311 120.295 14.3502 120.118 14.5353C119.941 14.7206 119.808 15.1393 119.719 15.7919C119.578 16.7619 119.427 17.6701 119.268 18.5166H117.17C117.306 15.1371 117.377 13.2213 117.382 12.769L117.382 12.7233C117.382 12.4588 117.374 11.965 117.356 11.242L117.595 11.0039L117.993 10.9774L120.49 11.1097L130.661 11.2155C131.422 11.2155 134.14 11.1538 138.814 11.0303V12.9085C134.883 18.0933 131.581 22.5771 128.908 26.36C126.235 30.1427 124.712 32.3252 124.34 32.9071L126.306 32.9335C129.174 32.9335 131.103 32.9071 132.095 32.8542C134.308 32.6955 135.538 32.5632 135.786 32.4573C135.928 32.4045 136.034 32.3074 136.105 32.1664C136.299 31.8137 136.671 30.2264 137.22 27.4048H139.398C139.044 30.7909 138.84 33.4978 138.787 35.5259L138.601 35.7375C137.326 35.8258 136.441 35.8698 135.946 35.8698Z" fill="white" fill-rule="evenodd"/>
<path d="M7.27839 8.12145C8.41148 8.12145 9.37195 7.72465 10.1598 6.93106C10.9477 6.13746 11.3416 5.17634 11.3416 4.04767C11.3416 2.93663 10.9477 1.98431 10.1598 1.19073C9.37195 0.397133 8.41148 0.000335693 7.27839 0.000335693C6.14531 0.000335693 5.18483 0.397133 4.39698 1.19073C3.60913 1.98431 3.21521 2.93663 3.21521 4.04767C3.21521 5.17634 3.61356 6.13746 4.41026 6.93106C5.20696 7.72465 6.16301 8.12145 7.27839 8.12145Z" fill="#F7AF00"/>
</g>
<defs>
<clipPath id="clip0_263_1756">
<rect fill="white" height="36.8222" width="139.398"/>
</clipPath>
</defs>
</svg>