<?xml version="1.0" encoding="utf-8"?>
<svg xmlns="http://www.w3.org/2000/svg" fill="none" height="105" viewBox="0 0 462 105" width="462">
<mask height="105" id="mask0_2042_5272" maskUnits="userSpaceOnUse" style="mask-type:luminance" width="462" x="0" y="0">
<path d="M462 0.095459H0V104.095H462V0.095459Z" fill="white"/>
</mask>
<g mask="url(#mask0_2042_5272)">
<path d="M88.2 91.8245C65.47 110.829 29.3382 107.434 11.0457 83.9785C-4.13191 64.5005 -3.16131 38.0395 10.8331 20.2129C13.1347 17.282 14.8447 15.9278 16.7673 20.3242C16.9429 20.723 17.3404 21.0383 17.6639 21.363C21.3058 25.008 21.1579 28.1805 18.3387 32.8545C3.21659 57.9345 21.5738 90.3875 51.079 91.3885C59.268 91.6675 66.792 89.8125 73.983 85.8885C76.655 84.4325 76.23 83.3385 74.825 81.4645C71.423 76.9575 68.114 72.3755 64.768 67.8305C65.119 67.3385 65.415 66.7825 65.849 66.3745C72.921 59.6125 74.723 50.9875 70.573 43.6505C65.748 35.1455 57.077 31.5465 47.585 33.9395C45.412 34.4875 43.684 36.5555 41.142 35.7945C39.367 33.2995 37.731 30.6935 35.772 28.3655C34.32 26.6404 34.893 25.8242 36.465 24.7947C47.973 17.1985 65.757 19.4616 76.766 29.9795C86.379 39.1525 88.791 55.6525 81.896 67.2275C80.297 69.9175 80.269 71.6705 82.284 74.0165C84.761 76.9015 86.527 80.4535 89.18 83.1435C92.757 86.7695 91.5 89.0605 88.2 91.8245Z" fill="#0C5AFE"/>
<path d="M106.844 52.3594C106.594 61.0414 104.69 68.8044 100.725 76.0854C99.3375 78.6354 98.5515 78.4874 97.1005 76.2424C95.7045 74.0724 93.9675 72.1244 92.4515 70.0284C91.1385 68.2294 90.7505 66.4024 91.4905 64.0644C96.8415 47.1384 91.9795 33.1054 78.9005 21.6318C67.9285 12.0137 49.4695 10.1216 35.6235 16.9294C33.6635 17.894 31.1955 20.3797 29.5874 19.0812C26.8329 16.846 24.975 13.4791 22.8768 10.4926C22.1188 9.40744 23.2558 9.02724 24.023 8.50784C43.5635 -4.87596 73.4565 -1.90796 90.5195 14.7869C101.288 25.314 106.807 37.8354 106.844 52.3784V52.3594Z" fill="white"/>
<path d="M237.922 46.3584C234.151 43.3354 229.816 43.1314 225.065 45.6724C224.279 46.0894 223.539 48.2884 222.661 45.2364C221.931 42.6954 218.733 44.3274 216.653 44.1234C214.583 43.9104 214.786 45.6634 214.786 47.0264C214.777 58.0544 214.878 69.0824 214.731 80.1194C214.684 83.8114 217.134 82.8924 219.093 82.9484C220.979 83.0134 223.188 83.6164 222.976 80.2314C222.735 76.2704 222.92 72.2734 222.92 67.8304C227.782 70.4924 229.076 70.8914 231.831 70.6774C236.554 70.3064 240.446 66.9774 241.952 62.0054C243.579 56.6174 241.73 49.4104 237.922 46.3584ZM228.614 63.7304C225.286 63.6934 222.948 61.0784 222.911 57.3314C222.865 53.6214 225.231 50.9404 228.54 50.9504C232.016 50.9594 234.206 53.4074 234.169 57.2474C234.142 61.1244 231.877 63.7684 228.614 63.7304Z" fill="white"/>
<path d="M322.963 53.0465C320.911 44.9305 311.88 41.2485 305.835 45.8585C304.827 46.6275 304.587 47.0455 303.755 45.3945C302.35 42.6025 299.401 44.3745 297.137 44.1425C295.556 43.9845 295.787 45.4775 295.787 46.4885C295.769 57.8325 295.843 69.1845 295.741 80.5275C295.704 84.1175 298.237 82.8555 299.901 82.9115C301.648 82.9675 304.116 83.9135 303.949 80.3885C303.764 76.2985 303.903 72.1895 303.903 67.6635C306.63 69.2305 308.913 70.6775 311.751 70.7245C319.922 70.8265 325.301 62.2465 322.963 53.0465ZM309.56 63.8795C306.279 63.8705 303.875 60.9295 303.912 56.4125C304.097 53.4915 305.595 51.0705 309.32 50.8665C312.804 50.6715 315.309 53.5745 315.282 57.4425C315.254 61.1065 312.777 63.8885 309.56 63.8795Z" fill="white"/>
<path d="M64.4633 67.8305C62.2633 67.0795 61.1913 65.1405 60.0073 63.4245C53.8703 54.5575 46.7713 46.3865 41.1973 37.1305C44.8583 38.9015 46.1613 42.7135 48.3983 45.6635C53.8883 52.9535 59.1203 60.4295 64.4633 67.8305Z" fill="white"/>
<path d="M64.4623 67.8305C50.6433 76.0855 36.8893 67.7655 34.2823 56.7565C32.3693 48.6595 35.4473 42.4635 41.1963 37.1305C44.8573 38.9015 46.1603 42.7135 48.3973 45.6635C53.8883 52.9535 59.1193 60.4295 64.4623 67.8305Z" fill="white"/>
<path d="M159.781 59.1584C157.064 68.5724 147.598 71.7444 140.481 70.1774C132.476 68.4144 127.587 61.7834 127.91 52.9164C128.187 45.1164 133.752 38.6424 141.036 37.4364C149.493 36.0354 158.385 40.8584 159.541 48.3534C155.742 48.4824 152.202 49.6514 148.865 46.0434C146.221 43.1864 140.749 44.2254 138.133 47.2584C135.249 50.6164 135.443 57.5354 138.512 60.8834C140.934 63.5174 146.267 64.5284 148.504 61.9224C151.776 58.1284 155.548 59.3064 159.772 59.1584H159.781Z" fill="white"/>
<path d="M425.58 44.0494C424.499 44.2254 422.974 43.4744 422.669 45.3474C422.364 47.1384 421.532 46.7394 420.506 45.9414C416.79 43.0384 412.852 43.2054 408.998 45.4684C404.228 48.2604 402.786 52.9254 403.054 58.0174C403.544 67.4034 411.308 73.2004 418.694 69.9354C420.413 69.1754 421.384 68.0254 423.759 70.0004C426.939 72.6534 430.581 70.0564 430.59 65.7994C430.599 63.0534 430.59 60.2994 430.59 57.5534C430.59 54.6414 430.267 51.6924 430.664 48.8444C431.274 44.5314 429.407 43.4004 425.58 44.0494ZM416.559 63.7215C413.453 63.6105 410.957 60.5314 411.114 56.9884C411.262 53.4634 413.961 50.7184 417.169 50.8294C420.191 50.9314 422.724 54.0665 422.659 57.6095C422.585 61.0965 419.859 63.8325 416.559 63.7215Z" fill="white"/>
<path d="M182.277 44.2254C188.008 43.9284 191.838 46.2384 193.767 51.1544C194.784 53.7694 195.717 56.4124 197.168 60.3734C198.712 56.2364 199.821 53.4724 200.792 50.6624C203.13 43.8824 203.103 43.8734 211.801 44.1794C208.445 52.1654 205.164 59.9464 201.901 67.7374C200.311 71.5314 198.721 75.3334 197.159 79.1364C195.856 82.2904 191.733 83.9504 188.517 82.6614C187.851 82.3924 187.491 82.0764 187.555 81.3814C187.583 81.0844 187.62 80.7224 187.805 80.5004C196.401 69.9544 188.822 60.8554 185.189 51.4134C184.32 49.1504 183.377 46.9154 182.287 44.2254H182.277Z" fill="white"/>
<path d="M277.688 43.8734C269.923 43.9474 264.359 49.4934 264.313 57.2104C264.267 65.1594 269.794 70.6504 277.882 70.6964C285.887 70.7424 291.313 65.2894 291.313 57.1924C291.313 49.0954 285.822 43.7894 277.688 43.8734ZM278.002 63.7404C274.813 63.8974 272.456 61.0414 272.53 57.2844C272.613 53.6394 274.101 51.0424 278.021 50.7734C280.96 50.5794 283.428 53.8904 283.391 57.7024C282.92 60.7534 281.912 63.5454 278.002 63.7404Z" fill="white"/>
<path d="M339.469 43.8734C331.668 44.0124 326.02 49.9294 326.224 57.7574C326.418 65.5954 332.195 70.9094 340.301 70.6964C347.936 70.5014 353.519 64.6764 353.307 57.1274C353.075 49.0854 347.483 43.7244 339.469 43.8734ZM339.821 63.7214C336.65 63.9624 334.33 61.0964 334.358 57.2664C334.395 53.3244 336.613 50.7084 339.959 50.9684C343.989 51.2744 345.256 54.0844 345.191 57.6094C345.135 61.0414 343.509 63.4434 339.821 63.7214Z" fill="white"/>
<path d="M436.479 57.0525C436.479 54.1405 436.376 51.2195 436.524 48.3155C436.598 46.9245 435.554 44.7825 437.43 44.2815C439.427 43.7525 443.235 43.5675 443.549 44.3375C445.213 48.4175 447.043 45.3755 448.559 44.7265C454.641 42.1385 462.822 46.7485 461.934 53.5935C461.343 58.1195 461.638 62.7845 461.888 67.3755C462.054 70.3905 460.52 70.4735 458.265 70.4455C456.037 70.4185 454.401 70.3625 454.549 67.3485C454.734 63.3785 454.521 59.3805 454.456 55.4025C454.419 52.7215 453.145 50.9685 450.39 50.7925C447.451 50.6065 445.084 51.8215 444.788 54.9475C444.41 58.8985 444.252 62.9145 444.51 66.8655C444.732 70.2885 443.059 70.3995 440.425 70.4735C437.541 70.5485 436.183 69.8805 436.424 66.6985C436.673 63.4995 436.479 60.2625 436.479 57.0435V57.0525Z" fill="white"/>
<path d="M250.558 38.2344C254.792 37.4364 256.76 38.0024 256.15 41.6104C255.873 43.2514 256.428 44.3184 258.35 44.0304C261.253 43.6044 261.521 45.2644 261.548 47.6014C261.585 49.8924 261.077 51.1354 258.526 50.7734C256.816 50.5324 256.012 51.2374 256.104 53.0834C256.224 55.5314 256.197 57.9894 256.104 60.4384C256.049 62.2744 256.686 63.4064 258.646 63.4714C262.362 63.5824 261.484 66.3184 261.437 68.4614C261.382 71.2714 259.127 70.3714 257.657 70.3814C251.445 70.4084 248.608 67.8674 248.062 61.7274C247.85 59.2884 248.007 56.8214 247.97 54.3724C247.942 52.7674 248.127 51.5154 245.964 50.4304C243.81 49.3544 244.3 45.0694 245.548 44.6524C248.386 43.6974 247.998 41.9904 247.951 40.1264C247.868 36.8244 250.364 38.2894 250.54 38.2344H250.558Z" fill="white"/>
<path d="M391.806 37.8255C393.59 37.4735 395.087 38.2715 394.634 41.2945C394.366 43.0945 394.875 44.3645 397.047 44.0405C399.589 43.6595 400.125 44.8935 400.079 47.1845C400.033 49.4015 400.033 51.2005 397.019 50.7645C395.328 50.5145 394.505 51.2095 394.588 53.0555C394.708 55.4945 394.588 57.9525 394.634 60.4015C394.662 62.1075 395.365 63.4805 397.26 63.4995C401.17 63.5365 399.931 66.3925 399.968 68.3965C400.023 71.6795 397.361 70.3715 395.919 70.3165C389.791 70.0745 387.462 67.7745 386.907 61.7085C386.694 59.4275 386.759 57.1275 386.657 54.8365C386.584 53.1115 387.286 50.9775 384.55 50.5235C384.3 50.4775 383.903 50.1805 383.894 49.9765C383.801 48.3155 383.524 45.2555 383.792 45.2085C388.201 44.3835 385.419 39.7365 387.757 38.1225C388.506 37.6035 389.846 37.9375 391.797 37.8255H391.806Z" fill="white"/>
<path d="M357.663 52.8054C357.663 48.0654 357.894 43.3164 357.589 38.5954C357.357 34.9874 359.585 35.5444 361.656 35.6274C363.56 35.7024 365.982 34.6354 365.898 38.4014C365.686 48.1764 365.695 57.9614 365.898 67.7464C365.972 71.5684 363.477 70.3624 361.609 70.4644C359.53 70.5854 357.348 71.0764 357.589 67.4784C357.912 62.6084 357.672 57.7024 357.672 52.8144L357.663 52.8054Z" fill="white"/>
<path d="M173.138 48.0935C174.312 47.1195 174.737 46.7115 175.218 46.3775C176.955 45.1625 179.312 42.9645 180.782 44.4295C181.956 45.5985 181.244 48.7705 181.179 51.0525C181.133 52.6755 179.691 52.2205 178.712 52.3135C174.561 52.7305 172.861 55.0405 173.101 59.1305C173.258 61.8755 172.934 64.6585 173.184 67.3945C173.461 70.4275 171.807 70.6315 169.561 70.4185C167.481 70.2235 164.782 71.3735 164.911 67.3855C165.124 60.8095 164.976 54.2145 164.957 47.6295C164.957 45.7565 164.68 43.6415 167.601 44.0585C169.875 44.3835 173.665 42.2775 173.138 48.1025V48.0935Z" fill="white"/>
<path d="M379.743 57.4984C379.743 60.2434 379.743 62.9984 379.743 65.7434C379.743 70.0374 376.766 71.9394 372.801 70.3344C371.414 69.7684 371.59 68.7304 371.59 67.7094C371.572 60.6884 371.636 53.6584 371.553 46.6374C371.516 42.8624 374.28 44.2814 376.11 44.0494C378.245 43.7804 380.02 43.8634 379.789 46.9714C379.53 50.4674 379.733 53.9924 379.733 57.5074L379.743 57.4984Z" fill="white"/>
<path d="M375.52 41.2575C372.914 41.2575 371.139 40.0335 371.084 37.2885C371.019 34.3475 372.923 32.9195 375.696 32.8825C378.626 32.8365 380.281 34.5895 380.207 37.4085C380.133 40.1445 378.183 41.2205 375.52 41.2575Z" fill="white"/>
</g>
</svg>