<svg width="295" height="265" viewBox="0 0 295 265" fill="none" xmlns="http://www.w3.org/2000/svg">
  <rect x="0.819336" y="219.104" width="277.18" height="45.6776" rx="9.88692" fill="white" />
  <rect x="3.78516" y="220.093" width="1.97738" height="1.97738" fill="black" />
  <rect x="2.79688" y="221.082" width="0.988692" height="2.96608" fill="black" />
  <rect x="1.80859" y="222.07" width="0.988692" height="2.96608" fill="black" />
  <rect x="0.819336" y="224.048" width="1.97738" height="0.988692" fill="black" />
  <rect width="1.97738" height="1.97738" transform="matrix(-1 0 0 1 274.984 220.093)" fill="black" />
  <rect width="0.988692" height="2.96608" transform="matrix(-1 0 0 1 275.973 221.082)" fill="black" />
  <rect width="0.988692" height="2.96608" transform="matrix(-1 0 0 1 276.962 222.07)" fill="black" />
  <rect width="1.97738" height="0.988692" transform="matrix(-1 0 0 1 277.95 224.048)" fill="black" />
  <rect x="3.78516" y="261.816" width="1.97738" height="1.97738" fill="black" />
  <rect x="2.79688" y="259.838" width="0.988692" height="2.96608" fill="black" />
  <rect width="0.988692" height="2.96608" transform="matrix(1 0 0 -1 1.80859 261.816)" fill="black" />
  <rect width="1.97738" height="0.988692" transform="matrix(1 0 0 -1 0.819336 259.838)" fill="black" />
  <rect width="1.97738" height="1.97738" transform="matrix(-1 0 0 1 274.984 261.816)" fill="black" />
  <rect width="0.988692" height="2.96608" transform="matrix(-1 0 0 1 275.973 259.838)" fill="black" />
  <rect x="276.962" y="261.816" width="0.988692" height="2.96608"
    transform="rotate(180 276.962 261.816)" fill="black" />
  <rect x="277.95" y="259.838" width="1.97738" height="0.988692"
    transform="rotate(180 277.95 259.838)" fill="black" />
  <rect x="5.7627" y="219.104" width="267.244" height="1.97738" fill="black" />
  <rect x="5.7627" y="262.804" width="267.244" height="1.97738" fill="black" />
  <rect x="0.819336" y="225.036" width="1.97738" height="33.8133" fill="black" />
  <rect width="1.97738" height="33.8133" transform="matrix(-1 0 0 1 277.95 225.036)" fill="black" />
  <g clip-path="url(#clip0_1201_55428)">
    <path
      d="M26.5458 237.769H27.34V238.563H29.7121V237.769H30.5011V236.98H29.7121V235.397H28.9179V234.608H29.7121V235.397H30.5011V236.98H31.2952V234.608H30.5011V233.814H29.7121V233.025H27.34V233.814H26.5458V234.608H25.7568V236.98H26.5458V237.769Z"
      fill="#000001" />
    <path
      d="M25.7568 248.052H26.5458V248.846H27.34V249.635H29.7121V248.846H30.5011V248.052H29.7121V246.469H28.9179V245.68H29.7121V246.469H30.5011V248.052H31.2952V245.68H30.5011V244.891H29.7121V244.097H27.34V244.891H26.5458V245.68H25.7568V248.052Z"
      fill="#000001" />
    <path d="M25.7577 244.891H24.9688V245.68H25.7577V244.891Z" fill="#000001" />
    <path d="M25.7577 236.98H24.9688V237.769H25.7577V236.98Z" fill="#000001" />
    <path d="M24.968 244.097H24.1738V244.891H24.968V244.097Z" fill="#000001" />
    <path d="M24.968 237.769H24.1738V238.563H24.968V237.769Z" fill="#000001" />
    <path d="M24.1737 243.308H23.3848V244.097H24.1737V243.308Z" fill="#000001" />
    <path d="M24.1737 238.563H23.3848V239.352H24.1737V238.563Z" fill="#000001" />
    <path d="M23.385 242.519H22.5908V243.308H23.385V242.519Z" fill="#000001" />
    <path d="M23.385 239.352H22.5908V240.141H23.385V239.352Z" fill="#000001" />
    <path
      d="M18.6408 238.563V239.352H17.8466V240.141H17.0576V242.519H17.8466V243.308H18.6408V244.097H21.0129V243.308H21.8019V242.519H22.5908V240.141H21.8019V239.352H21.0129V238.563H18.6408Z"
      fill="#000001" />
  </g>
  <path
    d="M51.5452 245.738H49.901V237.473H51.5452V245.738ZM44.9395 237.473H46.5836V245.738H44.9395V237.473ZM49.901 245.738V247.382H46.5982V245.738H49.901ZM49.8865 235.829V237.473H46.5836V235.829H49.8865ZM63.1077 247.382H61.449V245.723H59.7902V244.079H58.1461V242.435H56.5019V240.776H54.8432V239.117H56.5019V240.776H58.1461V242.435H59.7902V244.079H61.449V245.723H63.1077V247.382ZM61.449 242.435H59.7902V240.776H61.449V242.435ZM56.4874 244.079H58.1461V245.738H56.4874V244.079ZM63.1077 240.776H61.449V239.117H63.1077V240.776ZM54.8432 245.738H56.4874V247.382H54.8432V245.738ZM69.694 235.814V237.473H66.4057V239.132H64.747V237.473H66.3911V235.814H69.694ZM71.3527 245.723H69.7085V242.435H68.0498V240.776H69.694V242.42H71.3527V245.723ZM66.4057 245.738H69.7085V247.382H66.4057V245.738ZM71.3527 240.776H69.7085V237.473H71.3527V240.776ZM66.3911 244.079V245.738H64.747V244.079H66.3911ZM79.6123 247.382H77.9536V239.117H76.2949V237.473H77.9536V235.829H79.6123V247.382ZM86.1986 245.738H91.1602V247.382H86.1986V245.738H84.5545V237.473H86.1986V245.738ZM91.1602 237.473H86.1986V235.829H91.1602V237.473H92.8189V239.132H91.1602V237.473ZM92.8189 245.738H91.1602V244.079H92.8189V245.738ZM99.4198 245.723V247.382H96.1169V245.738H94.4582V237.473H96.1024V240.776H99.4052V242.42H96.1024V245.723H99.4198ZM99.4198 237.473H96.1024V235.814H99.4198V237.473ZM101.064 245.723H99.4198V242.42H101.064V245.723ZM106.021 247.382H104.362V245.723H106.021V247.382ZM109.317 247.382H107.658V245.723H109.317V247.382ZM112.614 247.382H110.955V245.723H112.614V247.382ZM119.199 242.42L119.213 237.473H117.554V235.814H120.857V242.42H122.516V244.079H120.857V247.382H119.213V244.079H114.251V240.776H115.896V242.42H119.199ZM115.896 237.473H117.554V240.776H115.896V237.473ZM129.102 239.117V240.776H124.155V235.814H130.761V237.473H125.799V239.117H129.102ZM130.761 245.723H129.117V240.776H130.761V245.723ZM125.814 245.738H129.117V247.382H125.814V245.738ZM125.799 244.079V245.738H124.155V244.079H125.799ZM137.362 237.473H135.703V235.829H137.362V237.473ZM137.362 247.382H135.718V240.776H134.059V239.117H137.362V247.382ZM147.272 247.382H140.666V235.829H147.272V237.473H142.31V240.776H145.628V242.435H142.31V245.738H147.272V247.382Z"
    fill="#C8C8C8" />
  <rect x="157.961" y="233.025" width="1.55719" height="16.61" fill="#FF7BAC" />
  <path d="M222.604 249.058V251.433H223.796V250.249H228.537V247.875H227.354V249.058H222.604Z"
    fill="#000001" />
  <path d="M227.354 246.683H226.163V247.875H227.354V246.683Z" fill="#000001" />
  <path d="M226.163 253.807H224.979V256.174H226.163V253.807Z" fill="#000001" />
  <path d="M226.163 245.5H224.979V246.683H226.163V245.5Z" fill="#000001" />
  <path d="M224.979 251.433H223.796V253.807H224.979V251.433Z" fill="#000001" />
  <path d="M224.979 244.316H223.796V245.5H224.979V244.316Z" fill="#000001" />
  <path d="M224.979 256.174H222.604V257.366H224.979V256.174Z" fill="#000001" />
  <path d="M223.796 243.125H222.604V244.316H223.796V243.125Z" fill="#000001" />
  <path d="M222.604 253.807H221.421V256.174H222.604V253.807Z" fill="#000001" />
  <path d="M222.604 241.942H221.421V243.125H222.604V241.942Z" fill="#000001" />
  <path d="M221.421 251.433H220.229V253.807H221.421V251.433Z" fill="#000001" />
  <path d="M221.421 240.75H220.229V241.942H221.421V240.75Z" fill="#000001" />
  <path d="M220.229 250.249H219.046V251.433H220.229V250.249Z" fill="#000001" />
  <path d="M220.229 239.567H219.046V240.75H220.229V239.567Z" fill="#000001" />
  <path d="M219.047 251.433H217.863V252.616H219.047V251.433Z" fill="#000001" />
  <path d="M219.047 238.383H217.863V239.567H219.047V238.383Z" fill="#000001" />
  <path d="M217.863 252.616H216.672V253.807H217.863V252.616Z" fill="#000001" />
  <path d="M217.863 237.192H216.672V238.384H217.863V237.192Z" fill="#000001" />
  <path
    d="M214.305 234.825V254.991H216.672V253.807H215.488V237.192H216.672V236.009H215.488V234.825H214.305Z"
    fill="#000001" />
  <rect width="58.3205" height="4.68004" transform="matrix(-1 0 0 1 164.224 118.566)" fill="white" />
  <rect width="33.4803" height="4.68004" transform="matrix(-1 0 0 1 162.784 116.046)" fill="white" />
  <rect width="28.8003" height="4.68004" transform="matrix(-1 0 0 1 158.104 114.606)" fill="white" />
  <rect width="20.5202" height="7.56007" transform="matrix(-1 0 0 1 149.824 110.286)" fill="white" />
  <rect width="11.1601" height="1.44001" transform="matrix(-1 0 0 1 145.504 108.846)" fill="white" />
  <rect width="12.2401" height="2.88003" transform="matrix(-1 0 0 1 122.823 115.686)" fill="white" />
  <rect width="57.2405" height="5.04004" transform="matrix(-1 0 0 1 156.664 121.446)" fill="white" />
  <rect width="25.2002" height="1.44001" transform="matrix(-1 0 0 1 156.304 126.126)" fill="#D9D9D9" />
  <rect width="61.5605" height="1.44001" transform="matrix(-1 0 0 1 162.424 124.686)" fill="#D9D9D9" />
  <rect width="7.92007" height="1.44001" transform="matrix(-1 0 0 1 164.224 123.246)" fill="#D9D9D9" />
  <rect width="7.92007" height="1.44001" transform="matrix(-1 0 0 1 162.424 121.806)" fill="#D9D9D9" />
  <rect width="20.5202" height="1.44001" transform="matrix(-1 0 0 1 153.063 123.246)" fill="#D9D9D9" />
  <rect width="15.4801" height="1.44001" transform="matrix(-1 0 0 1 149.824 121.806)" fill="#D9D9D9" />
  <rect width="15.4801" height="1.44001" transform="matrix(-1 0 0 1 149.824 120.366)" fill="#F2F0F3" />
  <rect width="15.4801" height="1.44001" transform="matrix(-1 0 0 1 148.023 120.366)" fill="#D9D9D9" />
  <rect width="15.4801" height="1.44001" transform="matrix(-1 0 0 1 148.384 118.926)" fill="#F2F0F3" />
  <rect width="15.4801" height="1.44001" transform="matrix(-1 0 0 1 146.584 118.926)" fill="#D9D9D9" />
  <rect width="15.4801" height="1.44001" transform="matrix(-1 0 0 1 148.384 117.486)" fill="#F2F0F3" />
  <rect width="15.4801" height="1.44001" transform="matrix(-1 0 0 1 146.584 117.486)" fill="#D9D9D9" />
  <rect width="15.4801" height="1.44001" transform="matrix(-1 0 0 1 148.384 116.046)" fill="#F2F0F3" />
  <rect width="15.4801" height="1.44001" transform="matrix(-1 0 0 1 146.584 116.046)" fill="#D9D9D9" />
  <rect width="15.4801" height="1.44001" transform="matrix(-1 0 0 1 129.304 123.246)" fill="#F2F0F3" />
  <rect width="15.4801" height="1.44001" transform="matrix(-1 0 0 1 124.264 123.246)" fill="#D9D9D9" />
  <rect width="11.5201" height="1.44001" transform="matrix(-1 0 0 1 145.864 114.606)" fill="#F2F0F3" />
  <rect width="11.5201" height="1.44001" transform="matrix(-1 0 0 1 144.063 114.606)" fill="#D9D9D9" />
  <rect width="11.5201" height="1.44001" transform="matrix(-1 0 0 1 126.783 121.806)" fill="#F2F0F3" />
  <rect width="11.5201" height="1.44001" transform="matrix(-1 0 0 1 121.743 121.806)" fill="#D9D9D9" />
  <rect width="8.64008" height="1.44001" transform="matrix(-1 0 0 1 144.424 113.166)" fill="#F2F0F3" />
  <rect width="8.64008" height="1.44001" transform="matrix(-1 0 0 1 142.624 113.166)" fill="#D9D9D9" />
  <rect width="8.64008" height="1.44001" transform="matrix(-1 0 0 1 125.344 120.366)" fill="#F2F0F3" />
  <rect width="8.64008" height="1.44001" transform="matrix(-1 0 0 1 120.304 120.366)" fill="#D9D9D9" />
  <rect width="25.2002" height="1.44001" transform="matrix(-1 0 0 1 156.304 127.566)" fill="#1D201C" />
  <rect width="6.12005" height="1.44001" transform="matrix(-1 0 0 1 162.424 126.126)" fill="#1D201C" />
  <rect width="15.8401" height="1.44001" transform="matrix(-1 0 0 1 131.104 126.126)" fill="#1D201C" />
  <rect width="10.8001" height="1.44001" transform="matrix(-1 0 0 1 116.703 127.566)" fill="#1D201C" />
  <rect width="10.8001" height="1.44001" transform="matrix(-1 0 0 1 116.344 127.566)" fill="#1D201C" />
  <rect width="9.72009" height="1.44001" transform="matrix(-1 0 0 1 115.264 126.126)" fill="#D9D9D9" />
  <rect width="6.12005" height="1.44001" transform="matrix(-1 0 0 1 105.543 126.126)" fill="#1D201C" />
  <rect width="4.68004" height="1.44001"
    transform="matrix(4.37114e-08 1 1 -4.37114e-08 99.4229 121.446)" fill="#1D201C" />
  <rect width="4.68004" height="1.44001" transform="matrix(-1 0 0 1 104.104 121.446)" fill="#1D201C" />
  <rect width="3.24003" height="1.44001" transform="matrix(-1 0 0 1 105.903 120.006)" fill="#1D201C" />
  <rect width="3.24003" height="1.44001" transform="matrix(-1 0 0 1 107.703 118.566)" fill="#1D201C" />
  <rect width="4.32004" height="1.44001" transform="matrix(-1 0 0 1 110.583 117.126)" fill="#1D201C" />
  <rect width="1.44001" height="1.44001" transform="matrix(-1 0 0 1 112.023 115.686)" fill="#1D201C" />
  <rect width="1.44001" height="1.44001" transform="matrix(-1 0 0 1 122.823 115.686)" fill="#1D201C" />
  <rect width="1.80002" height="1.44001" transform="matrix(-1 0 0 1 164.224 124.686)" fill="#1D201C" />
  <rect width="1.44001" height="1.44001" transform="matrix(-1 0 0 1 162.784 116.046)" fill="#1D201C" />
  <rect width="1.44001" height="1.44001" transform="matrix(-1 0 0 1 164.224 117.486)" fill="#1D201C" />
  <rect width="1.44001" height="5.76005" transform="matrix(-1 0 0 1 165.664 118.926)" fill="#1D201C" />
  <rect width="9.36008" height="1.44001" transform="matrix(-1 0 0 1 121.383 114.246)" fill="#1D201C" />
  <rect width="6.48006" height="1.44001" transform="matrix(-1 0 0 1 129.304 117.126)" fill="#1D201C" />
  <rect width="1.44001" height="3.60003" transform="matrix(-1 0 0 1 129.304 113.526)" fill="#1D201C" />
  <rect width="3.60003" height="1.44001" transform="matrix(-1 0 0 1 134.344 108.846)" fill="#1D201C" />
  <rect width="2.88003" height="1.44001" transform="matrix(-1 0 0 1 148.384 108.846)" fill="#1D201C" />
  <rect width="1.44001" height="2.88003" transform="matrix(-1 0 0 1 149.824 110.286)" fill="#1D201C" />
  <rect width="1.44001" height="2.88003" transform="matrix(-1 0 0 1 151.264 113.166)" fill="#1D201C" />
  <rect width="1.44001" height="2.88003"
    transform="matrix(4.37114e-08 1 1 -4.37114e-08 150.544 114.606)" fill="#1D201C" />
  <rect width="1.44001" height="4.68004"
    transform="matrix(4.37114e-08 1 1 -4.37114e-08 153.424 113.166)" fill="#1D201C" />
  <rect width="1.44001" height="3.24003"
    transform="matrix(4.37114e-08 1 1 -4.37114e-08 158.104 114.606)" fill="#1D201C" />
  <rect width="11.1601" height="1.44001" transform="matrix(-1 0 0 1 145.504 107.406)" fill="#1D201C" />
  <rect width="1.44001" height="3.24003" transform="matrix(-1 0 0 1 130.743 110.286)" fill="#1D201C" />
  <rect x="242.939" y="201.568" width="9.06401" height="17.6245" fill="#F2D6AE" />
  <rect x="128.128" y="163.802" width="123.875" height="37.7667" fill="#F2D6AE" />
  <rect x="120.071" y="190.994" width="85.1009" height="28.1991" fill="#936744" />
  <rect x="112.015" y="181.93" width="8.05689" height="28.1991" fill="#F2D6AE" />
  <rect x="237.903" y="201.568" width="5.03556" height="17.6245" fill="#F2D6AE" />
  <rect x="213.229" y="181.93" width="8.05689" height="28.1991" fill="#F2D6AE" />
  <rect x="112.015" y="163.802" width="16.1138" height="18.128" fill="#F2D6AE" />
  <rect x="128.128" y="159.27" width="123.875" height="4.532" fill="#EBC596" />
  <rect x="144.745" y="159.27" width="68.4836" height="4.532" fill="#936744" />
  <rect x="103.958" y="181.93" width="8.05689" height="28.1991" fill="#EBC596" />
  <rect x="101.943" y="173.873" width="2.01422" height="45.32" fill="#1D201C" />
  <rect x="205.172" y="181.93" width="8.05689" height="28.1991" fill="#EBC596" />
  <rect x="103.958" y="173.873" width="8.05689" height="8.05689" fill="#F2D6AE" />
  <rect x="103.958" y="210.129" width="16.1138" height="9.06401" fill="#EBC596" />
  <rect x="205.172" y="210.129" width="16.1138" height="9.06401" fill="#EBC596" />
  <rect x="120.071" y="181.93" width="8.05689" height="9.06401" fill="#EBC596" />
  <rect x="133.624" y="177.966" width="3.57685" height="4.02396" fill="#EBC596" />
  <rect x="137.224" y="174.006" width="3.57685" height="4.02396" fill="#EBC596" />
  <rect x="140.824" y="177.966" width="3.57685" height="4.02396" fill="#EBC596" />
  <rect x="144.424" y="174.006" width="9.36008" height="3.96003" fill="#EBC596" />
  <rect x="241.932" y="201.568" width="5.03556" height="5.53911" fill="#EBC596" />
  <rect x="252.003" y="163.802" width="9.56756" height="2.51778" fill="#936744" />
  <rect x="246.968" y="207.108" width="5.03556" height="12.0853" fill="#EBC596" />
  <rect x="112.015" y="154.738" width="32.7311" height="9.06401" fill="#E2822C" />
  <rect x="144.745" y="114.957" width="68.4836" height="39.7809" fill="#E2822C" />
  <rect x="144.745" y="154.738" width="68.4836" height="4.532" fill="#F2D6AE" />
  <rect x="120.071" y="190.994" width="8.05689" height="9.06401" fill="#F2D6AE" />
  <rect x="197.115" y="190.994" width="8.05689" height="9.06401" fill="#F2D6AE" />
  <rect x="128.128" y="181.93" width="77.044" height="9.06401" fill="#F2D6AE" />
  <rect x="152.803" y="154.738" width="9.06401" height="4.532" fill="#936744" />
  <rect x="169.924" y="154.738" width="9.06401" height="4.532" fill="#936744" />
  <rect x="187.044" y="154.738" width="9.06401" height="4.532" fill="#936744" />
  <rect x="204.165" y="154.738" width="9.06401" height="4.532" fill="#936744" />
  <rect x="187.548" y="130.567" width="16.6173" height="17.6245" fill="#F2D6AE" />
  <rect x="221.286" y="201.568" width="16.6173" height="17.6245" fill="#F2D6AE" />
  <rect x="190.569" y="127.546" width="10.5747" height="3.02134" fill="#F2D6AE" />
  <rect x="151.292" y="109.921" width="10.5747" height="3.02134" fill="#F2D6AE" />
  <rect x="193.591" y="124.524" width="4.532" height="3.02134" fill="#F2D6AE" />
  <rect x="154.313" y="106.9" width="4.532" height="3.02134" fill="#F2D6AE" />
  <rect x="189.562" y="132.581" width="13.0925" height="13.596" fill="#936744" />
  <rect x="223.804" y="203.583" width="12.0853" height="15.6102" fill="#936744" />
  <rect x="213.229" y="168.837" width="9.06401" height="13.0925" fill="#936744" />
  <rect x="237.903" y="168.837" width="9.06401" height="13.0925" fill="#936744" />
  <rect x="103.958" y="171.859" width="8.05689" height="2.01422" fill="#1D201C" />
  <rect x="112.015" y="152.724" width="32.7311" height="2.01422" fill="#1D201C" />
  <rect x="215.243" y="157.255" width="36.7596" height="2.01422" fill="#1D201C" />
  <rect x="252.003" y="161.787" width="9.56756" height="2.01422" fill="#1D201C" />
  <rect x="252.003" y="166.319" width="9.56756" height="2.01422" fill="#1D201C" />
  <rect x="261.57" y="163.802" width="2.01422" height="2.51778" fill="#1D201C" />
  <rect x="252.003" y="159.27" width="2.01422" height="2.51778" fill="#1D201C" />
  <rect x="252.003" y="168.334" width="2.01422" height="50.8591" fill="#1D201C" />
  <rect x="144.746" y="112.943" width="68.4836" height="2.01422" fill="#1D201C" />
  <rect x="149.278" y="109.921" width="2.01422" height="3.02134" fill="#1D201C" />
  <rect x="161.867" y="109.921" width="2.01422" height="3.02134" fill="#1D201C" />
  <rect x="152.299" y="106.9" width="2.01422" height="3.02134" fill="#1D201C" />
  <rect x="158.846" y="106.9" width="2.01422" height="3.02134" fill="#1D201C" />
  <rect x="154.313" y="104.886" width="4.532" height="2.01422" fill="#1D201C" />
  <rect x="110" y="154.738" width="2.01422" height="17.1209" fill="#1D201C" />
  <rect x="142.731" y="114.957" width="2.01422" height="37.7667" fill="#1D201C" />
  <rect x="213.229" y="114.957" width="2.01422" height="44.3129" fill="#1D201C" />
  <path
    d="M176.098 77.9679C179.867 69.8426 189.64 54.5785 198.575 58.5237C209.742 63.4552 183.024 75.2907 192.213 53.8739C199.564 36.7405 224.303 35.463 235.753 36.966"
    stroke="white" stroke-width="1.09126" stroke-dasharray="2.88 2.88" />
  <rect width="36.7503" height="22.0502"
    transform="matrix(-0.906308 0.422618 0.422618 0.906308 168.627 68.8787)" fill="white" />
  <rect x="141.599" y="86.6956" width="1.57501" height="1.57501"
    transform="rotate(-25 141.599 86.6956)" fill="black" />
  <rect x="149.971" y="89.7428" width="1.57501" height="1.57501"
    transform="rotate(-25 149.971 89.7428)" fill="black" />
  <rect x="161.104" y="86.2891" width="1.57501" height="1.57501"
    transform="rotate(-25 161.104 86.2891)" fill="black" />
  <rect x="147.781" y="92.5017" width="1.57501" height="1.57501"
    transform="rotate(-25 147.781 92.5017)" fill="black" />
  <rect x="152.064" y="90.5046" width="1.57501" height="1.57501"
    transform="rotate(-25 152.064 90.5046)" fill="black" />
  <rect x="154.157" y="91.2666" width="8.40007" height="1.57501"
    transform="rotate(-25 154.157 91.2666)" fill="black" />
  <rect x="147.02" y="94.5946" width="1.57501" height="1.57501"
    transform="rotate(-25 147.02 94.5946)" fill="black" />
  <rect x="146.258" y="96.6876" width="1.57501" height="1.57501"
    transform="rotate(-25 146.258 96.6876)" fill="black" />
  <rect x="145.496" y="98.7808" width="1.57501" height="1.57501"
    transform="rotate(-25 145.496 98.7808)" fill="black" />
  <rect x="144.734" y="100.874" width="1.57501" height="1.57501"
    transform="rotate(-25 144.734 100.874)" fill="black" />
  <rect x="146.065" y="103.729" width="16.8001" height="1.57501"
    transform="rotate(-25 146.065 103.729)" fill="black" />
  <rect x="136.081" y="82.3171" width="16.8001" height="1.57501"
    transform="rotate(-25 136.081 82.3171)" fill="black" />
  <rect x="143.973" y="102.967" width="1.57501" height="1.57501"
    transform="rotate(-25 143.973 102.967)" fill="black" />
  <rect x="148.543" y="90.4086" width="1.57501" height="1.57501"
    transform="rotate(-25 148.543 90.4086)" fill="black" />
  <rect x="137.412" y="85.172" width="1.57501" height="1.57501"
    transform="rotate(-25 137.412 85.172)" fill="black" />
  <rect x="145.785" y="88.2191" width="1.57501" height="1.57501"
    transform="rotate(-25 145.785 88.2191)" fill="black" />
  <rect x="139.506" y="85.9338" width="1.57501" height="1.57501"
    transform="rotate(-25 139.506 85.9338)" fill="black" />
  <rect x="147.878" y="88.981" width="1.57501" height="1.57501"
    transform="rotate(-25 147.878 88.981)" fill="black" />
  <rect x="135.319" y="84.41" width="1.57501" height="1.57501" transform="rotate(-25 135.319 84.41)"
    fill="black" />
  <rect x="134.558" y="86.5032" width="1.57501" height="18.9002"
    transform="rotate(-25 134.558 86.5032)" fill="black" />
  <rect x="143.691" y="87.4573" width="1.57501" height="1.57501"
    transform="rotate(-25 143.691 87.4573)" fill="black" />
  <rect width="1.57501" height="1.57501"
    transform="matrix(-0.906308 0.422618 0.422618 0.906308 166.341 75.158)" fill="black" />
  <rect width="1.57501" height="1.57501"
    transform="matrix(-0.906308 0.422618 0.422618 0.906308 163.294 83.5304)" fill="black" />
  <rect width="1.57501" height="1.57501"
    transform="matrix(-0.906308 0.422618 0.422618 0.906308 166.814 83.6265)" fill="black" />
  <rect width="1.57501" height="1.57501"
    transform="matrix(-0.906308 0.422618 0.422618 0.906308 168.907 84.3883)" fill="black" />
  <rect width="1.57501" height="1.57501"
    transform="matrix(-0.906308 0.422618 0.422618 0.906308 171.001 85.1501)" fill="black" />
  <rect width="1.57501" height="1.57501"
    transform="matrix(-0.906308 0.422618 0.422618 0.906308 173.094 85.9119)" fill="black" />
  <rect width="1.57501" height="1.57501"
    transform="matrix(-0.906308 0.422618 0.422618 0.906308 175.187 86.6737)" fill="black" />
  <rect width="16.8001" height="1.57501"
    transform="matrix(-0.906308 0.422618 0.422618 0.906308 176.518 89.5284)" fill="black" />
  <rect width="16.8001" height="1.57501"
    transform="matrix(-0.906308 0.422618 0.422618 0.906308 166.533 68.1171)" fill="black" />
  <rect width="1.57501" height="1.57501"
    transform="matrix(-0.906308 0.422618 0.422618 0.906308 177.279 87.4354)" fill="black" />
  <rect width="1.57501" height="1.57501"
    transform="matrix(-0.906308 0.422618 0.422618 0.906308 164.722 82.8646)" fill="black" />
  <rect width="1.57501" height="1.57501"
    transform="matrix(-0.906308 0.422618 0.422618 0.906308 167.864 70.9719)" fill="black" />
  <rect width="1.57501" height="1.57501"
    transform="matrix(-0.906308 0.422618 0.422618 0.906308 164.817 79.3441)" fill="black" />
  <rect width="1.57501" height="1.57501"
    transform="matrix(-0.906308 0.422618 0.422618 0.906308 167.104 73.0649)" fill="black" />
  <rect width="1.57501" height="1.57501"
    transform="matrix(-0.906308 0.422618 0.422618 0.906308 164.056 81.4373)" fill="black" />
  <rect width="1.57501" height="1.57501"
    transform="matrix(-0.906308 0.422618 0.422618 0.906308 168.627 68.8787)" fill="black" />
  <rect width="1.57501" height="18.9002"
    transform="matrix(-0.906308 0.422618 0.422618 0.906308 170.72 69.6404)" fill="black" />
  <rect width="1.57501" height="1.57501"
    transform="matrix(-0.906308 0.422618 0.422618 0.906308 165.579 77.251)" fill="black" />
  <rect x="160" y="0.5" width="135" height="40" rx="19.0476" fill="white" />
  <rect x="165.714" y="2.40479" width="3.80952" height="3.80952" fill="black" />
  <rect x="163.81" y="4.30957" width="1.90476" height="5.71429" fill="black" />
  <rect x="161.904" y="6.21436" width="1.90476" height="5.71429" fill="black" />
  <rect x="160" y="10.0238" width="3.80952" height="1.90476" fill="black" />
  <rect width="3.80952" height="3.80952" transform="matrix(-1 0 0 1 289.19 2.40479)" fill="black" />
  <rect width="1.90476" height="5.71429" transform="matrix(-1 0 0 1 291.095 4.30957)" fill="black" />
  <rect width="1.90476" height="5.71429" transform="matrix(-1 0 0 1 293 6.21436)" fill="black" />
  <rect width="3.80952" height="1.90476" transform="matrix(-1 0 0 1 294.904 10.0238)" fill="black" />
  <rect x="165.714" y="34.7856" width="3.80952" height="3.80952" fill="black" />
  <rect x="163.81" y="30.9762" width="1.90476" height="5.71429" fill="black" />
  <rect width="1.90476" height="5.71429" transform="matrix(1 0 0 -1 161.904 34.7856)" fill="black" />
  <rect width="3.80952" height="1.90476" transform="matrix(1 0 0 -1 160 30.9762)" fill="black" />
  <rect width="3.80952" height="3.80952" transform="matrix(-1 0 0 1 289.19 34.7856)" fill="black" />
  <rect width="1.90476" height="5.71429" transform="matrix(-1 0 0 1 291.095 30.9762)" fill="black" />
  <rect x="293" y="34.7856" width="1.90476" height="5.71429" transform="rotate(180 293 34.7856)"
    fill="black" />
  <rect x="294.904" y="30.9762" width="3.80952" height="1.90476"
    transform="rotate(180 294.904 30.9762)" fill="black" />
  <rect x="169.523" y="0.5" width="115.857" height="3.80952" fill="black" />
  <rect x="169.523" y="36.6904" width="115.857" height="3.80952" fill="black" />
  <path
    d="M188.696 27.448V29.5H182.558V27.448H180.524V25.414H182.558V27.448H186.644V23.362H184.61V21.328H182.558V19.276H180.524V13.156H182.558V11.104H188.696V13.156H190.73V15.19H188.696V13.156H184.61V17.242H186.644V19.276H188.696V21.328H190.73V27.448H188.696ZM198.919 29.5V27.448H196.867V17.242H194.833V15.19H196.867V11.104H200.953V15.19H203.005V17.242H200.953V27.448H203.005V29.5H198.919ZM217.291 27.448V29.5H209.119V27.448H207.085V17.242H209.119V15.19H217.291V17.242H219.343V23.362H211.171V27.448H217.291ZM215.257 17.242H211.171V21.328H215.257V17.242ZM217.291 27.448V25.414H219.343V27.448H217.291ZM233.639 27.448V29.5H227.519V33.586H223.433V15.19H233.639V17.242H235.691V27.448H233.639ZM231.605 17.242H227.519V27.448H231.605V17.242ZM256.139 27.448V29.5H247.967V27.448H245.915V13.156H247.967V11.104H256.139V13.156H258.173V27.448H256.139ZM250.001 13.156V19.276H252.035V17.242H254.087V13.156H250.001ZM254.087 21.328H252.035V23.362H250.001V27.448H254.087V21.328ZM262.263 29.5V25.414H264.297V23.38H266.349V21.328H268.383V19.294H270.435V13.156H264.297V11.122H272.469V13.156H274.521V19.294H272.469V21.328H270.435V23.38H268.383V25.414H266.349V27.466H274.521V29.5H262.263ZM264.297 13.156V15.208H262.263V13.156H264.297Z"
    fill="black" />
  <rect x="160" y="11.9286" width="3.80952" height="17.1429" fill="black" />
  <rect width="3.80952" height="17.1429" transform="matrix(-1 0 0 1 294.904 11.9286)" fill="black" />
  <defs>
    <clipPath id="clip0_1201_55428">
      <rect width="16.61" height="16.61" fill="white" transform="translate(15.8721 233.025)" />
    </clipPath>
  </defs>
</svg>
