<?xml version="1.0" encoding="utf-8"?>
<svg xmlns="http://www.w3.org/2000/svg" fill="none" height="48" viewBox="0 0 341 48" width="341">
<path clip-rule="evenodd" d="M54.9336 28.4745V37.6745H44.8829V33.599H49.8092V28.4745H54.9336ZM54.9336 21.3003V17.6757H44.8829V26.4247H49.8092V21.3003H54.9336ZM39.8643 42.6675V47.6605H59.9522V42.6675H64.9843V12.6827H59.9522V7.6897H39.8643V12.6827H34.8457V42.6675H39.8643Z" fill="#DF4613" fill-rule="evenodd"/>
<path clip-rule="evenodd" d="M54.9336 21.4798V30.3774H44.8829V26.4493H49.9298V21.4798H54.9336ZM54.9336 14.5226V10.3786H44.8829V19.4921H49.9298V14.5226H54.9336ZM39.8643 35.3704V40.3634H59.9522V35.3704H64.9843V5.38557H59.9522V0.392578H39.8643V5.38557H34.8457V35.3704H39.8643Z" fill="white" fill-rule="evenodd"/>
<path clip-rule="evenodd" d="M90.1894 17.6759V37.6747H80.1388V33.5992H85.0649V28.4747H90.1893V21.3005H85.0649V26.425H80.1388V17.6759H90.1894ZM75.1202 42.6677V47.6607H95.208V42.6677H100.24V12.6829H95.208V7.68994H75.1202V12.6829H70.1016V42.6677H75.1202Z" fill="#DF4613" fill-rule="evenodd"/>
<path clip-rule="evenodd" d="M90.1894 21.4799V30.3774H80.1388V26.4493H85.1868V21.4799H90.1894ZM90.1894 14.5226V10.3786H80.1388V19.4921H85.1868V14.5226H90.1894ZM75.1202 35.3704V40.3634H95.208V35.3704H100.24V5.38557H95.208V0.392578H75.1202V5.38557H70.1016V35.3704H75.1202Z" fill="white" fill-rule="evenodd"/>
<path clip-rule="evenodd" d="M139.795 17.6759V37.6747H129.744V33.5992H134.67V28.4747H139.795V21.3005H134.67V26.425H129.744V17.6759H139.795ZM124.726 42.6677V47.6607H144.813V42.6677H149.846V12.6829H144.813V7.68994H124.726V12.6829H119.707V42.6677H124.726Z" fill="#DF4613" fill-rule="evenodd"/>
<path clip-rule="evenodd" d="M139.795 21.4799V30.3774H129.744V26.4493H134.792V21.4799H139.795ZM139.795 14.5226V10.3786H129.744V19.4921H134.792V14.5226H139.795ZM124.726 35.3704V40.3634H144.813V35.3704H149.846V5.38557H144.813V0.392578H124.726V5.38557H119.707V35.3704H124.726Z" fill="white" fill-rule="evenodd"/>
<path clip-rule="evenodd" d="M259.912 17.6759V37.6747H249.861V33.5992H254.788V28.4747H259.912V21.3005H254.788V26.425H249.861V17.6759H259.912ZM244.843 42.6677V47.6607H264.931V42.6677H269.963V12.6829H264.931V7.68994H244.843V12.6829H239.824V42.6677H244.843Z" fill="#DF4613" fill-rule="evenodd"/>
<path clip-rule="evenodd" d="M259.912 21.4799V30.3774H249.861V26.4493H254.909V21.4799H259.912ZM259.912 14.5226V10.3786H249.861V19.4921H254.909V14.5226H259.912ZM244.843 35.3704V40.3634H264.931V35.3704H269.963V5.38557H264.931V0.392578H244.843V5.38557H239.824V35.3704H244.843Z" fill="white" fill-rule="evenodd"/>
<path clip-rule="evenodd" d="M175.051 17.6757V37.6745H165V33.599H169.926V28.4745H175.051V21.3003H169.926V26.4247H165V17.6757H175.051ZM159.981 42.6675V47.6605H180.069V42.6675H185.101V12.6827H180.069V7.6897H159.981V12.6827H154.963V42.6675H159.981Z" fill="#DF4613" fill-rule="evenodd"/>
<path clip-rule="evenodd" d="M175.051 21.4799V30.3774H165V26.4493H170.048V21.4799H175.051ZM175.051 14.5226V10.3786H165V19.4921H170.048V14.5226H175.051ZM159.981 35.3704V40.3634H180.069V35.3704H185.101V5.38557H180.069V0.392578H159.981V5.38557H154.963V35.3704H159.981Z" fill="white" fill-rule="evenodd"/>
<path clip-rule="evenodd" d="M295.168 17.6759V37.6747H285.117V33.5992H290.043V28.4747H295.168V21.3005H290.043V26.425H285.117V17.6759H295.168ZM280.099 42.6677V47.6607H300.187V42.6677H305.219V12.6829H300.187V7.68994H280.099V12.6829H275.08V42.6677H280.099Z" fill="#DF4613" fill-rule="evenodd"/>
<path clip-rule="evenodd" d="M295.168 21.4799V30.3774H285.117V26.4493H290.165V21.4799H295.168ZM295.168 14.5226V10.3786H285.117V19.4921H290.165V14.5226H295.168ZM280.099 35.3704V40.3634H300.187V35.3704H305.219V5.38557H300.187V0.392578H280.099V5.38557H275.08V35.3704H280.099Z" fill="white" fill-rule="evenodd"/>
<path clip-rule="evenodd" d="M209.896 17.6759V37.6747H199.846V33.5992H204.772V28.4747H209.896V21.3005H204.772V26.425H199.846V17.6759H209.896ZM194.827 42.6677V47.6607H214.915V42.6677H219.947V12.6829H214.915V7.68994H194.827V12.6829H189.809V42.6677H194.827Z" fill="#DF4613" fill-rule="evenodd"/>
<path clip-rule="evenodd" d="M209.896 21.4799V30.3774H199.846V26.4493H204.894V21.4799H209.896ZM209.896 14.5226V10.3786H199.846V19.4921H204.894V14.5226H209.896ZM194.827 35.3704V40.3634H214.915V35.3704H219.947V5.38557H214.915V0.392578H194.827V5.38557H189.809V35.3704H194.827Z" fill="white" fill-rule="evenodd"/>
<path clip-rule="evenodd" d="M330.016 17.6759V37.6747H319.965V33.5992H324.891V28.4747H330.016V21.3005H324.891V26.425H319.965V17.6759H330.016ZM314.946 42.6677V47.6607H335.034V42.6677H340.066V12.6829H335.034V7.68994H314.946V12.6829H309.928V42.6677H314.946Z" fill="#DF4613" fill-rule="evenodd"/>
<path clip-rule="evenodd" d="M330.016 21.4799V30.3774H319.965V26.4493H325.013V21.4799H330.016ZM330.016 14.5226V10.3786H319.965V19.4921H325.013V14.5226H330.016ZM314.946 35.3704V40.3634H335.034V35.3704H340.066V5.38557H335.034V0.392578H314.946V5.38557H309.928V35.3704H314.946Z" fill="white" fill-rule="evenodd"/>
<path d="M19.9854 22.7641V17.7577H9.98598V22.7641H19.9854ZM19.9854 47.7425V32.7501H4.99299V27.7571H0V12.7647H4.99299V7.77173H29.9848V47.7425H19.9854Z" fill="#DF4613"/>
<path d="M110.007 47.7425V42.7495H105.014V32.7501H115V47.7425H110.007Z" fill="#DF4613"/>
<path d="M230 47.7425V42.7495H225.007V32.7501H234.993V47.7425H230Z" fill="#DF4613"/>
<path d="M19.9854 15.385V10.3786H9.98598V15.385H19.9854ZM19.9854 40.3634V25.371H4.99299V20.378H0V5.38557H4.99299V0.392578H29.9848V40.3634H19.9854Z" fill="white"/>
<path d="M110.007 40.3634V35.3704H105.014V25.371H115V40.3634H110.007Z" fill="white"/>
<path d="M230 40.3634V35.3704H225.007V25.371H234.993V40.3634H230Z" fill="white"/>
</svg>