<?xml version="1.0" encoding="utf-8"?>
<svg xmlns="http://www.w3.org/2000/svg" fill="none" height="21" viewBox="0 0 148 21" width="148">
  <mask fill="black" height="21" id="path-1-outside-1_49_19489" maskUnits="userSpaceOnUse" width="58" x="89.6865" y="-0.000101089">
    <rect fill="white" height="21" width="58" x="89.6865" y="-0.000101089"/>
    <path clip-rule="evenodd" d="M99.2642 8.54538H95.4728V13.3689H99.2642V8.54538ZM91.6865 1.9999V4.75909V17.1552V19.9144H101.157V18.0213H103.056V15.2621V6.65224V3.89304H101.157V1.9999H91.6865ZM109.787 8.54538V13.3689H113.579V8.54538H109.787ZM106.001 15.2621V18.0213H107.894V19.9144H115.472V18.0213H117.37V15.2621V6.65224V3.89304H115.472V1.9999H107.894V3.89304H106.001V6.65224V15.2621ZM131.685 15.2621V18.0213H129.786V19.9144H122.209V18.0213H120.316V15.2621V6.65224V3.89304H122.209V1.9999H129.786V4.75909V5.78618V7.68441H131.685V10.4436V15.2621ZM126 10.4436V8.54538H124.102V13.3689H126V11.4707V10.4436ZM134.63 13.3689V16.1281V17.1552V19.9144H144.101V18.0213H145.999V15.2621V12.3367V9.57755H144.101V8.54538H145.999V5.78618V4.75909V1.9999H136.523V3.89304H134.63V6.65224V9.57755V12.3367H136.523V13.3689H134.63Z" fill-rule="evenodd"/>
  </mask>
  <path clip-rule="evenodd" d="M99.2642 8.54538H95.4728V13.3689H99.2642V8.54538ZM91.6865 1.9999V4.75909V17.1552V19.9144H101.157V18.0213H103.056V15.2621V6.65224V3.89304H101.157V1.9999H91.6865ZM109.787 8.54538V13.3689H113.579V8.54538H109.787ZM106.001 15.2621V18.0213H107.894V19.9144H115.472V18.0213H117.37V15.2621V6.65224V3.89304H115.472V1.9999H107.894V3.89304H106.001V6.65224V15.2621ZM131.685 15.2621V18.0213H129.786V19.9144H122.209V18.0213H120.316V15.2621V6.65224V3.89304H122.209V1.9999H129.786V4.75909V5.78618V7.68441H131.685V10.4436V15.2621ZM126 10.4436V8.54538H124.102V13.3689H126V11.4707V10.4436ZM134.63 13.3689V16.1281V17.1552V19.9144H144.101V18.0213H145.999V15.2621V12.3367V9.57755H144.101V8.54538H145.999V5.78618V4.75909V1.9999H136.523V3.89304H134.63V6.65224V9.57755V12.3367H136.523V13.3689H134.63Z" fill="#283EFF" fill-rule="evenodd"/>
  <path d="M99.2642 8.54538H100.287V7.52269H99.2642V8.54538ZM95.4728 8.54538V7.52269H94.4501V8.54538H95.4728ZM95.4728 13.3689H94.4501V14.3916H95.4728V13.3689ZM99.2642 13.3689V14.3916H100.287V13.3689H99.2642ZM91.6865 1.9999V0.977211H90.6638V1.9999H91.6865ZM91.6865 19.9144H90.6638V20.9371H91.6865V19.9144ZM101.157 19.9144V20.9371H102.18V19.9144H101.157ZM101.157 18.0213V16.9986H100.135V18.0213H101.157ZM103.056 18.0213V19.0439H104.078V18.0213H103.056ZM103.056 3.89304H104.078V2.87035H103.056V3.89304ZM101.157 3.89304H100.135V4.91573H101.157V3.89304ZM101.157 1.9999H102.18V0.977211H101.157V1.9999ZM109.787 13.3689H108.765V14.3916H109.787V13.3689ZM109.787 8.54538V7.52269H108.765V8.54538H109.787ZM113.579 13.3689V14.3916H114.601V13.3689H113.579ZM113.579 8.54538H114.601V7.52269H113.579V8.54538ZM106.001 18.0213H104.978V19.0439H106.001V18.0213ZM107.894 18.0213H108.917V16.9986H107.894V18.0213ZM107.894 19.9144H106.872V20.9371H107.894V19.9144ZM115.472 19.9144V20.9371H116.495V19.9144H115.472ZM115.472 18.0213V16.9986H114.449V18.0213H115.472ZM117.37 18.0213V19.0439H118.393V18.0213H117.37ZM117.37 3.89304H118.393V2.87035H117.37V3.89304ZM115.472 3.89304H114.449V4.91573H115.472V3.89304ZM115.472 1.9999H116.495V0.977211H115.472V1.9999ZM107.894 1.9999V0.977211H106.872V1.9999H107.894ZM107.894 3.89304V4.91573H108.917V3.89304H107.894ZM106.001 3.89304V2.87035H104.978V3.89304H106.001ZM131.685 18.0213V19.0439H132.707V18.0213H131.685ZM129.786 18.0213V16.9986H128.764V18.0213H129.786ZM129.786 19.9144V20.9371H130.809V19.9144H129.786ZM122.209 19.9144H121.186V20.9371H122.209V19.9144ZM122.209 18.0213H123.232V16.9986H122.209V18.0213ZM120.316 18.0213H119.293V19.0439H120.316V18.0213ZM120.316 3.89304V2.87035H119.293V3.89304H120.316ZM122.209 3.89304V4.91573H123.232V3.89304H122.209ZM122.209 1.9999V0.977211H121.186V1.9999H122.209ZM129.786 1.9999H130.809V0.977211H129.786V1.9999ZM129.786 7.68441H128.764V8.7071H129.786V7.68441ZM131.685 7.68441H132.707V6.66172H131.685V7.68441ZM126 8.54538H127.023V7.52269H126V8.54538ZM124.102 8.54538V7.52269H123.079V8.54538H124.102ZM124.102 13.3689H123.079V14.3916H124.102V13.3689ZM126 13.3689V14.3916H127.023V13.3689H126ZM134.63 13.3689V12.3462H133.608V13.3689H134.63ZM134.63 19.9144H133.608V20.9371H134.63V19.9144ZM144.101 19.9144V20.9371H145.124V19.9144H144.101ZM144.101 18.0213V16.9986H143.078V18.0213H144.101ZM145.999 18.0213V19.0439H147.022V18.0213H145.999ZM145.999 9.57755H147.022V8.55486H145.999V9.57755ZM144.101 9.57755H143.078V10.6002H144.101V9.57755ZM144.101 8.54538V7.52269H143.078V8.54538H144.101ZM145.999 8.54538V9.56806H147.022V8.54538H145.999ZM145.999 1.9999H147.022V0.977211H145.999V1.9999ZM136.523 1.9999V0.977211H135.501V1.9999H136.523ZM136.523 3.89304V4.91573H137.546V3.89304H136.523ZM134.63 3.89304V2.87035H133.608V3.89304H134.63ZM134.63 12.3367H133.608V13.3594H134.63V12.3367ZM136.523 12.3367H137.546V11.3141H136.523V12.3367ZM136.523 13.3689V14.3916H137.546V13.3689H136.523ZM99.2642 7.52269H95.4728V9.56806H99.2642V7.52269ZM94.4501 8.54538V13.3689H96.4955V8.54538H94.4501ZM95.4728 14.3916H99.2642V12.3462H95.4728V14.3916ZM100.287 13.3689V8.54538H98.2415V13.3689H100.287ZM92.7092 4.75909V1.9999H90.6638V4.75909H92.7092ZM92.7092 17.1552V4.75909H90.6638V17.1552H92.7092ZM92.7092 19.9144V17.1552H90.6638V19.9144H92.7092ZM101.157 18.8917H91.6865V20.9371H101.157V18.8917ZM100.135 18.0213V19.9144H102.18V18.0213H100.135ZM103.056 16.9986H101.157V19.0439H103.056V16.9986ZM102.033 15.2621V18.0213H104.078V15.2621H102.033ZM102.033 6.65224V15.2621H104.078V6.65224H102.033ZM102.033 3.89304V6.65224H104.078V3.89304H102.033ZM101.157 4.91573H103.056V2.87035H101.157V4.91573ZM100.135 1.9999V3.89304H102.18V1.9999H100.135ZM91.6865 3.02259H101.157V0.977211H91.6865V3.02259ZM110.81 13.3689V8.54538H108.765V13.3689H110.81ZM113.579 12.3462H109.787V14.3916H113.579V12.3462ZM112.556 8.54538V13.3689H114.601V8.54538H112.556ZM109.787 9.56806H113.579V7.52269H109.787V9.56806ZM104.978 15.2621V18.0213H107.024V15.2621H104.978ZM106.001 19.0439H107.894V16.9986H106.001V19.0439ZM106.872 18.0213V19.9144H108.917V18.0213H106.872ZM107.894 20.9371H115.472V18.8917H107.894V20.9371ZM116.495 19.9144V18.0213H114.449V19.9144H116.495ZM115.472 19.0439H117.37V16.9986H115.472V19.0439ZM118.393 18.0213V15.2621H116.347V18.0213H118.393ZM118.393 15.2621V6.65224H116.347V15.2621H118.393ZM118.393 6.65224V3.89304H116.347V6.65224H118.393ZM117.37 2.87035H115.472V4.91573H117.37V2.87035ZM116.495 3.89304V1.9999H114.449V3.89304H116.495ZM115.472 0.977211H107.894V3.02259H115.472V0.977211ZM106.872 1.9999V3.89304H108.917V1.9999H106.872ZM107.894 2.87035H106.001V4.91573H107.894V2.87035ZM104.978 3.89304V6.65224H107.024V3.89304H104.978ZM104.978 6.65224V15.2621H107.024V6.65224H104.978ZM130.662 15.2621V18.0213H132.707V15.2621H130.662ZM131.685 16.9986H129.786V19.0439H131.685V16.9986ZM128.764 18.0213V19.9144H130.809V18.0213H128.764ZM129.786 18.8917H122.209V20.9371H129.786V18.8917ZM123.232 19.9144V18.0213H121.186V19.9144H123.232ZM122.209 16.9986H120.316V19.0439H122.209V16.9986ZM121.338 18.0213V15.2621H119.293V18.0213H121.338ZM121.338 15.2621V6.65224H119.293V15.2621H121.338ZM121.338 6.65224V3.89304H119.293V6.65224H121.338ZM120.316 4.91573H122.209V2.87035H120.316V4.91573ZM123.232 3.89304V1.9999H121.186V3.89304H123.232ZM122.209 3.02259H129.786V0.977211H122.209V3.02259ZM128.764 1.9999V4.75909H130.809V1.9999H128.764ZM128.764 4.75909V5.78618H130.809V4.75909H128.764ZM128.764 5.78618V7.68441H130.809V5.78618H128.764ZM129.786 8.7071H131.685V6.66172H129.786V8.7071ZM130.662 7.68441V10.4436H132.707V7.68441H130.662ZM130.662 10.4436V15.2621H132.707V10.4436H130.662ZM127.023 10.4436V8.54538H124.977V10.4436H127.023ZM126 7.52269H124.102V9.56806H126V7.52269ZM123.079 8.54538V13.3689H125.125V8.54538H123.079ZM124.102 14.3916H126V12.3462H124.102V14.3916ZM127.023 13.3689V11.4707H124.977V13.3689H127.023ZM127.023 11.4707V10.4436H124.977V11.4707H127.023ZM135.653 16.1281V13.3689H133.608V16.1281H135.653ZM135.653 17.1552V16.1281H133.608V17.1552H135.653ZM135.653 19.9144V17.1552H133.608V19.9144H135.653ZM144.101 18.8917H134.63V20.9371H144.101V18.8917ZM143.078 18.0213V19.9144H145.124V18.0213H143.078ZM145.999 16.9986H144.101V19.0439H145.999V16.9986ZM144.977 15.2621V18.0213H147.022V15.2621H144.977ZM144.977 12.3367V15.2621H147.022V12.3367H144.977ZM144.977 9.57755V12.3367H147.022V9.57755H144.977ZM144.101 10.6002H145.999V8.55486H144.101V10.6002ZM143.078 8.54538V9.57755H145.124V8.54538H143.078ZM145.999 7.52269H144.101V9.56806H145.999V7.52269ZM144.977 5.78618V8.54538H147.022V5.78618H144.977ZM144.977 4.75909V5.78618H147.022V4.75909H144.977ZM144.977 1.9999V4.75909H147.022V1.9999H144.977ZM136.523 3.02259H145.999V0.977211H136.523V3.02259ZM137.546 3.89304V1.9999H135.501V3.89304H137.546ZM134.63 4.91573H136.523V2.87035H134.63V4.91573ZM135.653 6.65224V3.89304H133.608V6.65224H135.653ZM135.653 9.57755V6.65224H133.608V9.57755H135.653ZM135.653 12.3367V9.57755H133.608V12.3367H135.653ZM136.523 11.3141H134.63V13.3594H136.523V11.3141ZM137.546 13.3689V12.3367H135.501V13.3689H137.546ZM134.63 14.3916H136.523V12.3462H134.63V14.3916Z" fill="white" mask="url(#path-1-outside-1_49_19489)"/>
  <path d="M134.631 19.9144V16.1282H142.208V14.2299H136.524V12.3368H134.631V6.65227H136.524V4.75913H146V8.54541H138.417V10.4436H144.101V12.3368H146V18.0213H144.101V19.9144H134.631Z" fill="#283EFF"/>
  <path d="M122.209 19.9144V18.0213H120.316V6.65227H122.209V4.75913H129.787V8.54541H124.102V16.1282H127.894V14.2299H126.001V10.4436H131.685V18.0213H129.787V19.9144H122.209Z" fill="#283EFF"/>
  <path d="M113.579 16.1282V8.54541H109.788V16.1282H113.579ZM107.895 19.9144V18.0213H106.001V6.65227H107.895V4.75913H115.472V6.65227H117.37V18.0213H115.472V19.9144H107.895Z" fill="#283EFF"/>
  <path d="M99.2645 16.1282V8.54541H95.4731V16.1282H99.2645ZM91.6869 19.9144V4.75913H101.158V6.65227H103.056V18.0213H101.158V19.9144H91.6869Z" fill="#283EFF"/>
  <path d="M134.631 17.1553V13.369H142.208V11.4708H136.524V9.57762H134.631V3.89311H136.524V1.99997H146V5.78625H138.417V7.68448H144.101V9.57762H146V15.2621H144.101V17.1553H134.631Z" fill="url(#paint0_linear_49_19489)"/>
  <path d="M122.209 17.1553V15.2621H120.316V3.89311H122.209V1.99997H129.787V5.78625H124.102V13.369H127.894V11.4708H126.001V7.68448H131.685V15.2621H129.787V17.1553H122.209Z" fill="url(#paint1_linear_49_19489)"/>
  <path d="M113.579 13.369V5.78625H109.788V13.369H113.579ZM107.895 17.1553V15.2621H106.001V3.89311H107.895V1.99997H115.472V3.89311H117.37V15.2621H115.472V17.1553H107.895Z" fill="url(#paint2_linear_49_19489)"/>
  <path d="M99.2645 13.369V5.78625H95.4731V13.369H99.2645ZM91.6869 17.1553V1.99997H101.158V3.89311H103.056V15.2621H101.158V17.1553H91.6869Z" fill="url(#paint3_linear_49_19489)"/>
  <mask fill="black" height="21" id="path-5-outside-2_49_19489" maskUnits="userSpaceOnUse" width="86" x="0" y="0">
    <rect fill="white" height="21" width="86"/>
    <path clip-rule="evenodd" d="M2 2V17.1553H2.00008V19.9144H11.4709V18.0213H13.3691V14.2299H13.369V11.4708H11.4709V10.4436H13.3691V6.65226H13.369V3.89314H11.4708V2H2ZM16.3146 17.1553V2H20.1009V4.75912H20.1009V19.9144H16.3147V17.1553H16.3146ZM26.8225 8.5454H23.0363V5.78628H23.0363V2H34.4053V4.75912H34.4054V8.5454H30.614V19.9144H26.8226V17.1553H26.8225V8.5454ZM37.3509 15.2622V18.0213H39.244V19.9144H46.8217V18.0213H48.7199V14.2299H48.7199V11.4708H44.9285V13.369H41.1372V8.5454H44.9286V10.4436H48.7199V6.65226H48.7199V3.89314H46.8216V2H39.244V3.89314H37.3508V15.2622H37.3509ZM59.2431 8.5454V13.369H55.4518V8.5454H59.2431ZM63.0345 6.65226H63.0345V18.0213H61.1363V19.9144H53.5587V18.0213H51.6655V15.2622H51.6654V3.89314H53.5586V2H61.1362V3.89314H63.0345V6.65226ZM65.98 17.1553V2H69.7663V4.75912H69.7664V19.9144H65.9801V17.1553H65.98ZM72.7017 17.1553V2H74.5948V3.89314H76.4879V5.78628H78.3862V7.68451H80.2793V2H84.0707V4.75912H84.0708V19.9144H82.1725V18.0213H80.2794V16.1281H78.3863V14.2299H76.488V19.9144H72.7017V17.1553H72.7017Z" fill-rule="evenodd"/>
  </mask>
  <path clip-rule="evenodd" d="M2 2V17.1553H2.00008V19.9144H11.4709V18.0213H13.3691V14.2299H13.369V11.4708H11.4709V10.4436H13.3691V6.65226H13.369V3.89314H11.4708V2H2ZM16.3146 17.1553V2H20.1009V4.75912H20.1009V19.9144H16.3147V17.1553H16.3146ZM26.8225 8.5454H23.0363V5.78628H23.0363V2H34.4053V4.75912H34.4054V8.5454H30.614V19.9144H26.8226V17.1553H26.8225V8.5454ZM37.3509 15.2622V18.0213H39.244V19.9144H46.8217V18.0213H48.7199V14.2299H48.7199V11.4708H44.9285V13.369H41.1372V8.5454H44.9286V10.4436H48.7199V6.65226H48.7199V3.89314H46.8216V2H39.244V3.89314H37.3508V15.2622H37.3509ZM59.2431 8.5454V13.369H55.4518V8.5454H59.2431ZM63.0345 6.65226H63.0345V18.0213H61.1363V19.9144H53.5587V18.0213H51.6655V15.2622H51.6654V3.89314H53.5586V2H61.1362V3.89314H63.0345V6.65226ZM65.98 17.1553V2H69.7663V4.75912H69.7664V19.9144H65.9801V17.1553H65.98ZM72.7017 17.1553V2H74.5948V3.89314H76.4879V5.78628H78.3862V7.68451H80.2793V2H84.0707V4.75912H84.0708V19.9144H82.1725V18.0213H80.2794V16.1281H78.3863V14.2299H76.488V19.9144H72.7017V17.1553H72.7017Z" fill="#283EFF" fill-rule="evenodd"/>
  <path d="M2 17.1553H0.977312V18.178H2V17.1553ZM2 2V0.977312H0.977312V2H2ZM2.00008 17.1553H3.02276V16.1326H2.00008V17.1553ZM2.00008 19.9144H0.977388V20.9371H2.00008V19.9144ZM11.4709 19.9144V20.9371H12.4936V19.9144H11.4709ZM11.4709 18.0213V16.9986H10.4482V18.0213H11.4709ZM13.3691 18.0213V19.044H14.3918V18.0213H13.3691ZM13.3691 14.2299H14.3918V13.2072H13.3691V14.2299ZM13.369 14.2299H12.3463V15.2526H13.369V14.2299ZM13.369 11.4708H14.3917V10.4481H13.369V11.4708ZM11.4709 11.4708H10.4482V12.4935H11.4709V11.4708ZM11.4709 10.4436V9.42095H10.4482V10.4436H11.4709ZM13.3691 10.4436V11.4663H14.3918V10.4436H13.3691ZM13.3691 6.65226H14.3918V5.62958H13.3691V6.65226ZM13.369 6.65226H12.3463V7.67495H13.369V6.65226ZM13.369 3.89314H14.3917V2.87045H13.369V3.89314ZM11.4708 3.89314H10.4481V4.91583H11.4708V3.89314ZM11.4708 2H12.4935V0.977312H11.4708V2ZM16.3146 2V0.977312H15.2919V2H16.3146ZM16.3146 17.1553H15.2919V18.178H16.3146V17.1553ZM20.1009 2H21.1235V0.977312H20.1009V2ZM20.1009 4.75912H19.0782V5.78181H20.1009V4.75912ZM20.1009 4.75912H21.1236V3.73644H20.1009V4.75912ZM20.1009 19.9144V20.9371H21.1236V19.9144H20.1009ZM16.3147 19.9144H15.292V20.9371H16.3147V19.9144ZM16.3147 17.1553H17.3373V16.1326H16.3147V17.1553ZM26.8225 8.5454H27.8452V7.52272H26.8225V8.5454ZM23.0363 8.5454H22.0136V9.56809H23.0363V8.5454ZM23.0363 5.78628H24.059V4.76359H23.0363V5.78628ZM23.0363 5.78628H22.0136V6.80897H23.0363V5.78628ZM23.0363 2V0.977312H22.0136V2H23.0363ZM34.4053 2H35.428V0.977312H34.4053V2ZM34.4053 4.75912H33.3826V5.78181H34.4053V4.75912ZM34.4054 4.75912H35.428V3.73644H34.4054V4.75912ZM34.4054 8.5454V9.56809H35.428V8.5454H34.4054ZM30.614 8.5454V7.52272H29.5913V8.5454H30.614ZM30.614 19.9144V20.9371H31.6367V19.9144H30.614ZM26.8226 19.9144H25.7999V20.9371H26.8226V19.9144ZM26.8226 17.1553H27.8453V16.1326H26.8226V17.1553ZM26.8225 17.1553H25.7999V18.178H26.8225V17.1553ZM37.3509 15.2622H38.3736V14.2395H37.3509V15.2622ZM37.3509 18.0213H36.3282V19.044H37.3509V18.0213ZM39.244 18.0213H40.2667V16.9986H39.244V18.0213ZM39.244 19.9144H38.2214V20.9371H39.244V19.9144ZM46.8217 19.9144V20.9371H47.8444V19.9144H46.8217ZM46.8217 18.0213V16.9986H45.799V18.0213H46.8217ZM48.7199 18.0213V19.044H49.7426V18.0213H48.7199ZM48.7199 14.2299H49.7426V13.2072H48.7199V14.2299ZM48.7199 14.2299H47.6972V15.2526H48.7199V14.2299ZM48.7199 11.4708H49.7425V10.4481H48.7199V11.4708ZM44.9285 11.4708V10.4481H43.9058V11.4708H44.9285ZM44.9285 13.369V14.3917H45.9512V13.369H44.9285ZM41.1372 13.369H40.1145V14.3917H41.1372V13.369ZM41.1372 8.5454V7.52272H40.1145V8.5454H41.1372ZM44.9286 8.5454H45.9512V7.52272H44.9286V8.5454ZM44.9286 10.4436H43.9059V11.4663H44.9286V10.4436ZM48.7199 10.4436V11.4663H49.7426V10.4436H48.7199ZM48.7199 6.65226H49.7426V5.62958H48.7199V6.65226ZM48.7199 6.65226H47.6972V7.67495H48.7199V6.65226ZM48.7199 3.89314H49.7425V2.87045H48.7199V3.89314ZM46.8216 3.89314H45.7989V4.91583H46.8216V3.89314ZM46.8216 2H47.8443V0.977312H46.8216V2ZM39.244 2V0.977312H38.2213V2H39.244ZM39.244 3.89314V4.91583H40.2667V3.89314H39.244ZM37.3508 3.89314V2.87045H36.3281V3.89314H37.3508ZM37.3508 15.2622H36.3281V16.2849H37.3508V15.2622ZM59.2431 13.369V14.3917H60.2658V13.369H59.2431ZM59.2431 8.5454H60.2658V7.52272H59.2431V8.5454ZM55.4518 13.369H54.4291V14.3917H55.4518V13.369ZM55.4518 8.5454V7.52272H54.4291V8.5454H55.4518ZM63.0345 6.65226H62.0118V7.67495H63.0345V6.65226ZM63.0345 6.65226H64.0572V5.62958H63.0345V6.65226ZM63.0345 18.0213V19.044H64.0572V18.0213H63.0345ZM61.1363 18.0213V16.9986H60.1136V18.0213H61.1363ZM61.1363 19.9144V20.9371H62.159V19.9144H61.1363ZM53.5587 19.9144H52.536V20.9371H53.5587V19.9144ZM53.5587 18.0213H54.5813V16.9986H53.5587V18.0213ZM51.6655 18.0213H50.6428V19.044H51.6655V18.0213ZM51.6655 15.2622H52.6882V14.2395H51.6655V15.2622ZM51.6654 15.2622H50.6427V16.2849H51.6654V15.2622ZM51.6654 3.89314V2.87045H50.6427V3.89314H51.6654ZM53.5586 3.89314V4.91583H54.5813V3.89314H53.5586ZM53.5586 2V0.977312H52.5359V2H53.5586ZM61.1362 2H62.1589V0.977312H61.1362V2ZM61.1362 3.89314H60.1135V4.91583H61.1362V3.89314ZM63.0345 3.89314H64.0571V2.87045H63.0345V3.89314ZM65.98 2V0.977312H64.9573V2H65.98ZM65.98 17.1553H64.9573V18.178H65.98V17.1553ZM69.7663 2H70.789V0.977312H69.7663V2ZM69.7663 4.75912H68.7436V5.78181H69.7663V4.75912ZM69.7664 4.75912H70.7891V3.73644H69.7664V4.75912ZM69.7664 19.9144V20.9371H70.7891V19.9144H69.7664ZM65.9801 19.9144H64.9574V20.9371H65.9801V19.9144ZM65.9801 17.1553H67.0028V16.1326H65.9801V17.1553ZM72.7017 2V0.977312H71.679V2H72.7017ZM72.7017 17.1553H71.679V18.178H72.7017V17.1553ZM74.5948 2H75.6175V0.977312H74.5948V2ZM74.5948 3.89314H73.5721V4.91583H74.5948V3.89314ZM76.4879 3.89314H77.5106V2.87045H76.4879V3.89314ZM76.4879 5.78628H75.4653V6.80897H76.4879V5.78628ZM78.3862 5.78628H79.4089V4.76359H78.3862V5.78628ZM78.3862 7.68451H77.3635V8.7072H78.3862V7.68451ZM80.2793 7.68451V8.7072H81.302V7.68451H80.2793ZM80.2793 2V0.977312H79.2566V2H80.2793ZM84.0707 2H85.0934V0.977312H84.0707V2ZM84.0707 4.75912H83.048V5.78181H84.0707V4.75912ZM84.0708 4.75912H85.0935V3.73644H84.0708V4.75912ZM84.0708 19.9144V20.9371H85.0935V19.9144H84.0708ZM82.1725 19.9144H81.1498V20.9371H82.1725V19.9144ZM82.1725 18.0213H83.1952V16.9986H82.1725V18.0213ZM80.2794 18.0213H79.2567V19.044H80.2794V18.0213ZM80.2794 16.1281H81.3021V15.1055H80.2794V16.1281ZM78.3863 16.1281H77.3636V17.1508H78.3863V16.1281ZM78.3863 14.2299H79.4089V13.2072H78.3863V14.2299ZM76.488 14.2299V13.2072H75.4653V14.2299H76.488ZM76.488 19.9144V20.9371H77.5107V19.9144H76.488ZM72.7017 19.9144H71.6791V20.9371H72.7017V19.9144ZM72.7017 17.1553H73.7244V16.1326H72.7017V17.1553ZM3.02269 17.1553V2H0.977312V17.1553H3.02269ZM2.00008 16.1326H2V18.178H2.00008V16.1326ZM3.02276 19.9144V17.1553H0.977388V19.9144H3.02276ZM11.4709 18.8917H2.00008V20.9371H11.4709V18.8917ZM10.4482 18.0213V19.9144H12.4936V18.0213H10.4482ZM13.3691 16.9986H11.4709V19.044H13.3691V16.9986ZM12.3464 14.2299V18.0213H14.3918V14.2299H12.3464ZM13.369 15.2526H13.3691V13.2072H13.369V15.2526ZM12.3463 11.4708V14.2299H14.3917V11.4708H12.3463ZM11.4709 12.4935H13.369V10.4481H11.4709V12.4935ZM10.4482 10.4436V11.4708H12.4936V10.4436H10.4482ZM13.3691 9.42095H11.4709V11.4663H13.3691V9.42095ZM12.3464 6.65226V10.4436H14.3918V6.65226H12.3464ZM13.369 7.67495H13.3691V5.62958H13.369V7.67495ZM12.3463 3.89314V6.65226H14.3917V3.89314H12.3463ZM11.4708 4.91583H13.369V2.87045H11.4708V4.91583ZM10.4481 2V3.89314H12.4935V2H10.4481ZM2 3.02269H11.4708V0.977312H2V3.02269ZM15.2919 2V17.1553H17.3373V2H15.2919ZM20.1009 0.977312H16.3146V3.02269H20.1009V0.977312ZM21.1235 4.75912V2H19.0782V4.75912H21.1235ZM20.1009 3.73644H20.1009V5.78181H20.1009V3.73644ZM21.1236 19.9144V4.75912H19.0782V19.9144H21.1236ZM16.3147 20.9371H20.1009V18.8917H16.3147V20.9371ZM15.292 17.1553V19.9144H17.3373V17.1553H15.292ZM16.3146 18.178H16.3147V16.1326H16.3146V18.178ZM26.8225 7.52272H23.0363V9.56809H26.8225V7.52272ZM24.059 8.5454V5.78628H22.0136V8.5454H24.059ZM23.0363 4.76359H23.0363V6.80897H23.0363V4.76359ZM24.0589 5.78628V2H22.0136V5.78628H24.0589ZM23.0363 3.02269H34.4053V0.977312H23.0363V3.02269ZM33.3826 2V4.75912H35.428V2H33.3826ZM34.4053 5.78181H34.4054V3.73644H34.4053V5.78181ZM33.3827 4.75912V8.5454H35.428V4.75912H33.3827ZM34.4054 7.52272H30.614V9.56809H34.4054V7.52272ZM29.5913 8.5454V19.9144H31.6367V8.5454H29.5913ZM30.614 18.8917H26.8226V20.9371H30.614V18.8917ZM27.8453 19.9144V17.1553H25.7999V19.9144H27.8453ZM26.8226 16.1326H26.8225V18.178H26.8226V16.1326ZM27.8452 17.1553V8.5454H25.7999V17.1553H27.8452ZM36.3282 15.2622V18.0213H38.3736V15.2622H36.3282ZM37.3509 19.044H39.244V16.9986H37.3509V19.044ZM38.2214 18.0213V19.9144H40.2667V18.0213H38.2214ZM39.244 20.9371H46.8217V18.8917H39.244V20.9371ZM47.8444 19.9144V18.0213H45.799V19.9144H47.8444ZM46.8217 19.044H48.7199V16.9986H46.8217V19.044ZM49.7426 18.0213V14.2299H47.6972V18.0213H49.7426ZM48.7199 13.2072H48.7199V15.2526H48.7199V13.2072ZM49.7425 14.2299V11.4708H47.6972V14.2299H49.7425ZM48.7199 10.4481H44.9285V12.4935H48.7199V10.4481ZM43.9058 11.4708V13.369H45.9512V11.4708H43.9058ZM44.9285 12.3463H41.1372V14.3917H44.9285V12.3463ZM42.1599 13.369V8.5454H40.1145V13.369H42.1599ZM41.1372 9.56809H44.9286V7.52272H41.1372V9.56809ZM43.9059 8.5454V10.4436H45.9512V8.5454H43.9059ZM44.9286 11.4663H48.7199V9.42095H44.9286V11.4663ZM49.7426 10.4436V6.65226H47.6972V10.4436H49.7426ZM48.7199 5.62958H48.7199V7.67495H48.7199V5.62958ZM49.7425 6.65226V3.89314H47.6972V6.65226H49.7425ZM48.7199 2.87045H46.8216V4.91583H48.7199V2.87045ZM47.8443 3.89314V2H45.7989V3.89314H47.8443ZM46.8216 0.977312H39.244V3.02269H46.8216V0.977312ZM38.2213 2V3.89314H40.2667V2H38.2213ZM39.244 2.87045H37.3508V4.91583H39.244V2.87045ZM36.3281 3.89314V15.2622H38.3735V3.89314H36.3281ZM37.3508 16.2849H37.3509V14.2395H37.3508V16.2849ZM60.2658 13.369V8.5454H58.2204V13.369H60.2658ZM55.4518 14.3917H59.2431V12.3463H55.4518V14.3917ZM54.4291 8.5454V13.369H56.4745V8.5454H54.4291ZM59.2431 7.52272H55.4518V9.56809H59.2431V7.52272ZM63.0345 7.67495H63.0345V5.62958H63.0345V7.67495ZM62.0118 6.65226V18.0213H64.0572V6.65226H62.0118ZM63.0345 16.9986H61.1363V19.044H63.0345V16.9986ZM60.1136 18.0213V19.9144H62.159V18.0213H60.1136ZM61.1363 18.8917H53.5587V20.9371H61.1363V18.8917ZM54.5813 19.9144V18.0213H52.536V19.9144H54.5813ZM53.5587 16.9986H51.6655V19.044H53.5587V16.9986ZM52.6882 18.0213V15.2622H50.6428V18.0213H52.6882ZM51.6655 14.2395H51.6654V16.2849H51.6655V14.2395ZM52.6881 15.2622V3.89314H50.6427V15.2622H52.6881ZM51.6654 4.91583H53.5586V2.87045H51.6654V4.91583ZM54.5813 3.89314V2H52.5359V3.89314H54.5813ZM53.5586 3.02269H61.1362V0.977312H53.5586V3.02269ZM60.1135 2V3.89314H62.1589V2H60.1135ZM61.1362 4.91583H63.0345V2.87045H61.1362V4.91583ZM62.0118 3.89314V6.65226H64.0571V3.89314H62.0118ZM64.9573 2V17.1553H67.0027V2H64.9573ZM69.7663 0.977312H65.98V3.02269H69.7663V0.977312ZM70.789 4.75912V2H68.7436V4.75912H70.789ZM69.7664 3.73644H69.7663V5.78181H69.7664V3.73644ZM70.7891 19.9144V4.75912H68.7437V19.9144H70.7891ZM65.9801 20.9371H69.7664V18.8917H65.9801V20.9371ZM64.9574 17.1553V19.9144H67.0028V17.1553H64.9574ZM65.98 18.178H65.9801V16.1326H65.98V18.178ZM71.679 2V17.1553H73.7244V2H71.679ZM74.5948 0.977312H72.7017V3.02269H74.5948V0.977312ZM75.6175 3.89314V2H73.5721V3.89314H75.6175ZM76.4879 2.87045H74.5948V4.91583H76.4879V2.87045ZM77.5106 5.78628V3.89314H75.4653V5.78628H77.5106ZM78.3862 4.76359H76.4879V6.80897H78.3862V4.76359ZM79.4089 7.68451V5.78628H77.3635V7.68451H79.4089ZM80.2793 6.66182H78.3862V8.7072H80.2793V6.66182ZM79.2566 2V7.68451H81.302V2H79.2566ZM84.0707 0.977312H80.2793V3.02269H84.0707V0.977312ZM85.0934 4.75912V2H83.048V4.75912H85.0934ZM84.0708 3.73644H84.0707V5.78181H84.0708V3.73644ZM85.0935 19.9144V4.75912H83.0481V19.9144H85.0935ZM82.1725 20.9371H84.0708V18.8917H82.1725V20.9371ZM81.1498 18.0213V19.9144H83.1952V18.0213H81.1498ZM80.2794 19.044H82.1725V16.9986H80.2794V19.044ZM79.2567 16.1281V18.0213H81.3021V16.1281H79.2567ZM78.3863 17.1508H80.2794V15.1055H78.3863V17.1508ZM77.3636 14.2299V16.1281H79.4089V14.2299H77.3636ZM76.488 15.2526H78.3863V13.2072H76.488V15.2526ZM77.5107 19.9144V14.2299H75.4653V19.9144H77.5107ZM72.7017 20.9371H76.488V18.8917H72.7017V20.9371ZM71.6791 17.1553V19.9144H73.7244V17.1553H71.6791ZM72.7017 18.178H72.7017V16.1326H72.7017V18.178Z" fill="white" mask="url(#path-5-outside-2_49_19489)"/>
  <path d="M72.7018 19.9144V4.75912H74.5949V6.65226H76.4881V8.5454H78.3863V10.4436H80.2794V4.75912H84.0708V19.9144H82.1726V18.0213H80.2794V16.1281H78.3863V14.2299H76.4881V19.9144H72.7018Z" fill="#283EFF"/>
  <path d="M65.9801 19.9144V4.75912H69.7664V19.9144H65.9801Z" fill="#283EFF"/>
  <path d="M59.2432 16.1281V8.5454H55.4518V16.1281H59.2432ZM53.5587 19.9144V18.0213H51.6656V6.65226H53.5587V4.75912H61.1363V6.65226H63.0346V18.0213H61.1363V19.9144H53.5587Z" fill="#283EFF"/>
  <path d="M39.2441 19.9144V18.0213H37.351V6.65226H39.2441V4.75912H46.8217V6.65226H48.72V10.4436H44.9286V8.5454H41.1372V16.1281H44.9286V14.2299H48.72V18.0213H46.8217V19.9144H39.2441Z" fill="#283EFF"/>
  <path d="M26.8227 19.9144V8.5454H23.0364V4.75912H34.4054V8.5454H30.614V19.9144H26.8227Z" fill="#283EFF"/>
  <path d="M16.3147 19.9144V4.75912H20.101V19.9144H16.3147Z" fill="#283EFF"/>
  <path d="M9.57777 16.1281V14.2299H5.7864V16.1281H9.57777ZM9.57777 10.4436V8.5454H5.7864V10.4436H9.57777ZM2.00012 19.9144V4.75912H11.4709V6.65226H13.3691V10.4436H11.4709V14.2299H13.3691V18.0213H11.4709V19.9144H2.00012Z" fill="#283EFF"/>
  <path d="M72.702 17.1553V2.00001H74.5952V3.89315H76.4883V5.78629H78.3865V7.68452H80.2797V2.00001H84.0711V17.1553H82.1728V15.2622H80.2797V13.369H78.3865V11.4708H76.4883V17.1553H72.702Z" fill="url(#paint4_linear_49_19489)"/>
  <path d="M65.9804 17.1553V2.00001H69.7667V17.1553H65.9804Z" fill="url(#paint5_linear_49_19489)"/>
  <path d="M59.2435 13.369V5.78629H55.4521V13.369H59.2435ZM53.5589 17.1553V15.2622H51.6658V3.89315H53.5589V2.00001H61.1366V3.89315H63.0348V15.2622H61.1366V17.1553H53.5589Z" fill="url(#paint6_linear_49_19489)"/>
  <path d="M39.2443 17.1553V15.2622H37.3512V3.89315H39.2443V2.00001H46.822V3.89315H48.7202V7.68452H44.9289V5.78629H41.1375V13.369H44.9289V11.4708H48.7202V15.2622H46.822V17.1553H39.2443Z" fill="url(#paint7_linear_49_19489)"/>
  <path d="M26.8229 17.1553V5.78629H23.0366V2.00001H34.4056V5.78629H30.6143V17.1553H26.8229Z" fill="url(#paint8_linear_49_19489)"/>
  <path d="M16.3149 17.1553V2.00001H20.1012V17.1553H16.3149Z" fill="url(#paint9_linear_49_19489)"/>
  <path d="M9.57802 13.369V11.4708H5.78665V13.369H9.57802ZM9.57802 7.68452V5.78629H5.78665V7.68452H9.57802ZM2.00037 17.1553V2.00001H11.4712V3.89315H13.3694V7.68452H11.4712V11.4708H13.3694V15.2622H11.4712V17.1553H2.00037Z" fill="url(#paint10_linear_49_19489)"/>
  <defs>
    <linearGradient gradientUnits="userSpaceOnUse" id="paint0_linear_49_19489" x1="118.843" x2="118.843" y1="1.99997" y2="17.1553">
      <stop stop-color="#86B7FA"/>
      <stop offset="1" stop-color="#FD86CA"/>
    </linearGradient>
    <linearGradient gradientUnits="userSpaceOnUse" id="paint1_linear_49_19489" x1="118.843" x2="118.843" y1="1.99997" y2="17.1553">
      <stop stop-color="#86B7FA"/>
      <stop offset="1" stop-color="#FD86CA"/>
    </linearGradient>
    <linearGradient gradientUnits="userSpaceOnUse" id="paint2_linear_49_19489" x1="118.843" x2="118.843" y1="1.99997" y2="17.1553">
      <stop stop-color="#86B7FA"/>
      <stop offset="1" stop-color="#FD86CA"/>
    </linearGradient>
    <linearGradient gradientUnits="userSpaceOnUse" id="paint3_linear_49_19489" x1="118.843" x2="118.843" y1="1.99997" y2="17.1553">
      <stop stop-color="#86B7FA"/>
      <stop offset="1" stop-color="#FD86CA"/>
    </linearGradient>
    <linearGradient gradientUnits="userSpaceOnUse" id="paint4_linear_49_19489" x1="43.0357" x2="43.0357" y1="2.00001" y2="17.1553">
      <stop stop-color="#86B7FA"/>
      <stop offset="1" stop-color="#FD86CA"/>
    </linearGradient>
    <linearGradient gradientUnits="userSpaceOnUse" id="paint5_linear_49_19489" x1="43.0357" x2="43.0357" y1="2.00001" y2="17.1553">
      <stop stop-color="#86B7FA"/>
      <stop offset="1" stop-color="#FD86CA"/>
    </linearGradient>
    <linearGradient gradientUnits="userSpaceOnUse" id="paint6_linear_49_19489" x1="43.0357" x2="43.0357" y1="2.00001" y2="17.1553">
      <stop stop-color="#86B7FA"/>
      <stop offset="1" stop-color="#FD86CA"/>
    </linearGradient>
    <linearGradient gradientUnits="userSpaceOnUse" id="paint7_linear_49_19489" x1="43.0357" x2="43.0357" y1="2.00001" y2="17.1553">
      <stop stop-color="#86B7FA"/>
      <stop offset="1" stop-color="#FD86CA"/>
    </linearGradient>
    <linearGradient gradientUnits="userSpaceOnUse" id="paint8_linear_49_19489" x1="43.0357" x2="43.0357" y1="2.00001" y2="17.1553">
      <stop stop-color="#86B7FA"/>
      <stop offset="1" stop-color="#FD86CA"/>
    </linearGradient>
    <linearGradient gradientUnits="userSpaceOnUse" id="paint9_linear_49_19489" x1="43.0357" x2="43.0357" y1="2.00001" y2="17.1553">
      <stop stop-color="#86B7FA"/>
      <stop offset="1" stop-color="#FD86CA"/>
    </linearGradient>
    <linearGradient gradientUnits="userSpaceOnUse" id="paint10_linear_49_19489" x1="43.0357" x2="43.0357" y1="2.00001" y2="17.1553">
      <stop stop-color="#86B7FA"/>
      <stop offset="1" stop-color="#FD86CA"/>
    </linearGradient>
  </defs>
</svg>