<svg width="558" height="103" viewBox="0 0 558 103" fill="none" xmlns="http://www.w3.org/2000/svg">
  <g filter="url(#filter0_d_1282_1229)">
  <path d="M15.1809 0.875V8.46545H7.59045V16.0559H0V79.3096H7.59045V86.9001H15.1809V94.4905H22.7713V0.875H15.1809Z" fill="#653BF7"/>
  </g>
  <path d="M15.1809 0.875V8.46545H7.59045V16.0559H0V23.6463H7.59045H15.1809V16.0559H22.7713V8.46545V0.875H15.1809Z" fill="#161616"/>
  <rect y="23.6464" width="7.59045" height="48.1168" fill="#161616"/>
  <path d="M15.1809 94.5345V86.9441H7.59045V79.3536H0V71.7632H7.59045H15.1809V79.3536H22.7713V86.9441V94.5345H15.1809Z" fill="#161616"/>
  <g filter="url(#filter1_d_1282_1229)">
  <rect width="504.867" height="93.6155" transform="translate(22.7715 0.875)" fill="#653BF7"/>
  <rect x="22.7715" y="0.875" width="504.867" height="7.59045" fill="#161616"/>
  <path d="M45.9238 65.1826V39.003H37.2051V30.2842H63.3848V39.003H54.6543V65.1826H45.9238ZM67.7676 65.1826V30.2842H93.9473V39.003H76.4863V43.3741H89.5762V52.0928H76.4863V56.4639H93.9473V65.1826H67.7676ZM115.779 43.3741V39.003H107.049V43.3741H115.779ZM98.3301 65.1826V30.2842H120.139V34.6436H124.51V47.7334H120.139V52.0928H124.51V65.1826H115.779V52.0928H107.049V65.1826H98.3301ZM128.893 65.1826V30.2842H133.252V34.6436H137.611V39.003H141.982V43.3741H146.342V39.003H150.701V34.6436H155.072V30.2842H159.432V65.1826H150.701V52.0928H146.342V56.4639H141.982V52.0928H137.611V65.1826H128.893ZM163.814 65.1826V56.4639H181.264V52.0928H168.174V47.7334H163.814V34.6436H168.174V30.2842H189.994V39.003H172.533V43.3741H185.623V47.7334H189.994V60.8233H185.623V65.1826H163.814ZM203.096 39.003V34.6436H207.455V39.003H203.096ZM207.455 65.1826V56.4639H203.096V43.3741H207.455V47.7334H211.814V43.3741H207.455V39.003H211.814V34.6436H220.545V39.003H224.904V43.3741H220.545V47.7334H224.904V43.3741H229.275V56.4639H224.904V65.1826H220.545V60.8233H211.814V65.1826H207.455ZM224.904 39.003V34.6436H229.275V39.003H224.904ZM246.736 65.1826V60.8233H242.377V34.6436H246.736V30.2842H264.186V34.6436H268.557V43.3741H259.826V39.003H251.096V56.4639H259.826V52.0928H268.557V60.8233H264.186V65.1826H246.736ZM290.389 56.4639V39.003H281.658V56.4639H290.389ZM277.299 65.1826V60.8233H272.939V34.6436H277.299V30.2842H294.748V34.6436H299.119V60.8233H294.748V65.1826H277.299ZM303.502 65.1826V30.2842H307.861V34.6436H312.221V39.003H316.592V43.3741H320.951V30.2842H329.682V65.1826H325.311V60.8233H320.951V56.4639H316.592V52.0928H312.221V65.1826H303.502ZM351.514 56.4639V39.003H342.783V56.4639H351.514ZM334.064 65.1826V30.2842H355.873V34.6436H360.244V60.8233H355.873V65.1826H334.064ZM364.627 65.1826V30.2842H373.346V65.1826H364.627ZM386.424 65.1826V39.003H377.705V30.2842H403.885V39.003H395.154V65.1826H386.424ZM408.268 65.1826V30.2842H416.986V65.1826H408.268ZM438.795 56.4639V39.003H430.064V56.4639H438.795ZM425.705 65.1826V60.8233H421.346V34.6436H425.705V30.2842H443.154V34.6436H447.525V60.8233H443.154V65.1826H425.705ZM451.908 65.1826V30.2842H456.268V34.6436H460.627V39.003H464.998V43.3741H469.357V30.2842H478.088V65.1826H473.717V60.8233H469.357V56.4639H464.998V52.0928H460.627V65.1826H451.908ZM482.471 65.1826V56.4639H499.92V52.0928H486.83V47.7334H482.471V34.6436H486.83V30.2842H508.65V39.003H491.189V43.3741H504.279V47.7334H508.65V60.8233H504.279V65.1826H482.471Z" fill="white"/>
  <rect x="22.7715" y="86.9001" width="504.867" height="7.59045" fill="#161616"/>
  </g>
  <g filter="url(#filter2_d_1282_1229)">
  <path d="M535.228 0.875V8.46545H542.819V16.0559H550.409V79.3096H542.819V86.9001H535.228V94.4905H527.638V0.875H535.228Z" fill="#653BF7"/>
  </g>
  <path d="M535.228 0.875V8.46545H542.819V16.0559H550.409V23.6463H542.819H535.228V16.0559H527.638V8.46545V0.875H535.228Z" fill="#161616"/>
  <rect width="7.59045" height="48.1168" transform="matrix(-1 0 0 1 550.409 23.6464)" fill="#161616"/>
  <path d="M535.228 94.5345V86.9441H542.819V79.3536H550.409V71.7632H542.819H535.228V79.3536H527.638V86.9441V94.5345H535.228Z" fill="#161616"/>
  <defs>
  <filter id="filter0_d_1282_1229" x="0" y="0.875" width="30.3619" height="101.206" filterUnits="userSpaceOnUse" color-interpolation-filters="sRGB">
  <feFlood flood-opacity="0" result="BackgroundImageFix"/>
  <feColorMatrix in="SourceAlpha" type="matrix" values="0 0 0 0 0 0 0 0 0 0 0 0 0 0 0 0 0 0 127 0" result="hardAlpha"/>
  <feOffset dx="7.59045" dy="7.59045"/>
  <feComposite in2="hardAlpha" operator="out"/>
  <feColorMatrix type="matrix" values="0 0 0 0 0.117647 0 0 0 0 0.203922 0 0 0 0 0.270588 0 0 0 0.4 0"/>
  <feBlend mode="normal" in2="BackgroundImageFix" result="effect1_dropShadow_1282_1229"/>
  <feBlend mode="normal" in="SourceGraphic" in2="effect1_dropShadow_1282_1229" result="shape"/>
  </filter>
  <filter id="filter1_d_1282_1229" x="22.7715" y="0.875" width="512.458" height="101.206" filterUnits="userSpaceOnUse" color-interpolation-filters="sRGB">
  <feFlood flood-opacity="0" result="BackgroundImageFix"/>
  <feColorMatrix in="SourceAlpha" type="matrix" values="0 0 0 0 0 0 0 0 0 0 0 0 0 0 0 0 0 0 127 0" result="hardAlpha"/>
  <feOffset dx="7.59045" dy="7.59045"/>
  <feComposite in2="hardAlpha" operator="out"/>
  <feColorMatrix type="matrix" values="0 0 0 0 0.117647 0 0 0 0 0.203922 0 0 0 0 0.270588 0 0 0 0.4 0"/>
  <feBlend mode="normal" in2="BackgroundImageFix" result="effect1_dropShadow_1282_1229"/>
  <feBlend mode="normal" in="SourceGraphic" in2="effect1_dropShadow_1282_1229" result="shape"/>
  </filter>
  <filter id="filter2_d_1282_1229" x="527.638" y="0.875" width="30.3619" height="101.206" filterUnits="userSpaceOnUse" color-interpolation-filters="sRGB">
  <feFlood flood-opacity="0" result="BackgroundImageFix"/>
  <feColorMatrix in="SourceAlpha" type="matrix" values="0 0 0 0 0 0 0 0 0 0 0 0 0 0 0 0 0 0 127 0" result="hardAlpha"/>
  <feOffset dx="7.59045" dy="7.59045"/>
  <feComposite in2="hardAlpha" operator="out"/>
  <feColorMatrix type="matrix" values="0 0 0 0 0.117647 0 0 0 0 0.203922 0 0 0 0 0.270588 0 0 0 0.4 0"/>
  <feBlend mode="normal" in2="BackgroundImageFix" result="effect1_dropShadow_1282_1229"/>
  <feBlend mode="normal" in="SourceGraphic" in2="effect1_dropShadow_1282_1229" result="shape"/>
  </filter>
  </defs>
  </svg>
