<?xml version="1.0" encoding="utf-8"?>
<svg xmlns="http://www.w3.org/2000/svg" fill="none" height="20" viewBox="0 0 148 20" width="148">
  <mask fill="black" height="21" id="path-1-outside-1_49_20292" maskUnits="userSpaceOnUse" width="58" x="89.6865" y="-0.957031">
    <rect fill="white" height="21" width="58" x="89.6865" y="-0.957031"/>
    <path clip-rule="evenodd" d="M99.2642 7.58845H95.4728V12.412H99.2642V7.58845ZM91.6865 1.04297V3.80216V16.1983V18.9575H101.157V17.0643H103.056V14.3051V5.69531V2.93611H101.157V1.04297H91.6865ZM109.787 7.58845V12.412H113.579V7.58845H109.787ZM106.001 14.3051V17.0643H107.894V18.9575H115.472V17.0643H117.37V14.3051V5.69531V2.93611H115.472V1.04297H107.894V2.93611H106.001V5.69531V14.3051ZM131.685 14.3051V17.0643H129.786V18.9575H122.209V17.0643H120.316V14.3051V5.69531V2.93611H122.209V1.04297H129.786V3.80216V4.82925V6.72748H131.685V9.48668V14.3051ZM126 9.48668V7.58845H124.102V12.412H126V10.5138V9.48668ZM134.63 12.412V15.1712V16.1983V18.9575H144.101V17.0643H145.999V14.3051V11.3798V8.62062H144.101V7.58845H145.999V4.82925V3.80216V1.04297H136.523V2.93611H134.63V5.69531V8.62062V11.3798H136.523V12.412H134.63Z" fill-rule="evenodd"/>
  </mask>
  <path clip-rule="evenodd" d="M99.2642 7.58845H95.4728V12.412H99.2642V7.58845ZM91.6865 1.04297V3.80216V16.1983V18.9575H101.157V17.0643H103.056V14.3051V5.69531V2.93611H101.157V1.04297H91.6865ZM109.787 7.58845V12.412H113.579V7.58845H109.787ZM106.001 14.3051V17.0643H107.894V18.9575H115.472V17.0643H117.37V14.3051V5.69531V2.93611H115.472V1.04297H107.894V2.93611H106.001V5.69531V14.3051ZM131.685 14.3051V17.0643H129.786V18.9575H122.209V17.0643H120.316V14.3051V5.69531V2.93611H122.209V1.04297H129.786V3.80216V4.82925V6.72748H131.685V9.48668V14.3051ZM126 9.48668V7.58845H124.102V12.412H126V10.5138V9.48668ZM134.63 12.412V15.1712V16.1983V18.9575H144.101V17.0643H145.999V14.3051V11.3798V8.62062H144.101V7.58845H145.999V4.82925V3.80216V1.04297H136.523V2.93611H134.63V5.69531V8.62062V11.3798H136.523V12.412H134.63Z" fill="#283EFF" fill-rule="evenodd"/>
  <path d="M99.2642 7.58845H100.287V6.56576H99.2642V7.58845ZM95.4728 7.58845V6.56576H94.4501V7.58845H95.4728ZM95.4728 12.412H94.4501V13.4347H95.4728V12.412ZM99.2642 12.412V13.4347H100.287V12.412H99.2642ZM91.6865 1.04297V0.0202811H90.6638V1.04297H91.6865ZM91.6865 18.9575H90.6638V19.9802H91.6865V18.9575ZM101.157 18.9575V19.9802H102.18V18.9575H101.157ZM101.157 17.0643V16.0416H100.135V17.0643H101.157ZM103.056 17.0643V18.087H104.078V17.0643H103.056ZM103.056 2.93611H104.078V1.91342H103.056V2.93611ZM101.157 2.93611H100.135V3.9588H101.157V2.93611ZM101.157 1.04297H102.18V0.0202811H101.157V1.04297ZM109.787 12.412H108.765V13.4347H109.787V12.412ZM109.787 7.58845V6.56576H108.765V7.58845H109.787ZM113.579 12.412V13.4347H114.601V12.412H113.579ZM113.579 7.58845H114.601V6.56576H113.579V7.58845ZM106.001 17.0643H104.978V18.087H106.001V17.0643ZM107.894 17.0643H108.917V16.0416H107.894V17.0643ZM107.894 18.9575H106.872V19.9802H107.894V18.9575ZM115.472 18.9575V19.9802H116.495V18.9575H115.472ZM115.472 17.0643V16.0416H114.449V17.0643H115.472ZM117.37 17.0643V18.087H118.393V17.0643H117.37ZM117.37 2.93611H118.393V1.91342H117.37V2.93611ZM115.472 2.93611H114.449V3.9588H115.472V2.93611ZM115.472 1.04297H116.495V0.0202811H115.472V1.04297ZM107.894 1.04297V0.0202811H106.872V1.04297H107.894ZM107.894 2.93611V3.9588H108.917V2.93611H107.894ZM106.001 2.93611V1.91342H104.978V2.93611H106.001ZM131.685 17.0643V18.087H132.707V17.0643H131.685ZM129.786 17.0643V16.0416H128.764V17.0643H129.786ZM129.786 18.9575V19.9802H130.809V18.9575H129.786ZM122.209 18.9575H121.186V19.9802H122.209V18.9575ZM122.209 17.0643H123.232V16.0416H122.209V17.0643ZM120.316 17.0643H119.293V18.087H120.316V17.0643ZM120.316 2.93611V1.91342H119.293V2.93611H120.316ZM122.209 2.93611V3.9588H123.232V2.93611H122.209ZM122.209 1.04297V0.0202811H121.186V1.04297H122.209ZM129.786 1.04297H130.809V0.0202811H129.786V1.04297ZM129.786 6.72748H128.764V7.75017H129.786V6.72748ZM131.685 6.72748H132.707V5.70479H131.685V6.72748ZM126 7.58845H127.023V6.56576H126V7.58845ZM124.102 7.58845V6.56576H123.079V7.58845H124.102ZM124.102 12.412H123.079V13.4347H124.102V12.412ZM126 12.412V13.4347H127.023V12.412H126ZM134.63 12.412V11.3893H133.608V12.412H134.63ZM134.63 18.9575H133.608V19.9802H134.63V18.9575ZM144.101 18.9575V19.9802H145.124V18.9575H144.101ZM144.101 17.0643V16.0416H143.078V17.0643H144.101ZM145.999 17.0643V18.087H147.022V17.0643H145.999ZM145.999 8.62062H147.022V7.59793H145.999V8.62062ZM144.101 8.62062H143.078V9.64331H144.101V8.62062ZM144.101 7.58845V6.56576H143.078V7.58845H144.101ZM145.999 7.58845V8.61113H147.022V7.58845H145.999ZM145.999 1.04297H147.022V0.0202811H145.999V1.04297ZM136.523 1.04297V0.0202811H135.501V1.04297H136.523ZM136.523 2.93611V3.9588H137.546V2.93611H136.523ZM134.63 2.93611V1.91342H133.608V2.93611H134.63ZM134.63 11.3798H133.608V12.4025H134.63V11.3798ZM136.523 11.3798H137.546V10.3571H136.523V11.3798ZM136.523 12.412V13.4347H137.546V12.412H136.523ZM99.2642 6.56576H95.4728V8.61113H99.2642V6.56576ZM94.4501 7.58845V12.412H96.4955V7.58845H94.4501ZM95.4728 13.4347H99.2642V11.3893H95.4728V13.4347ZM100.287 12.412V7.58845H98.2415V12.412H100.287ZM92.7092 3.80216V1.04297H90.6638V3.80216H92.7092ZM92.7092 16.1983V3.80216H90.6638V16.1983H92.7092ZM92.7092 18.9575V16.1983H90.6638V18.9575H92.7092ZM101.157 17.9348H91.6865V19.9802H101.157V17.9348ZM100.135 17.0643V18.9575H102.18V17.0643H100.135ZM103.056 16.0416H101.157V18.087H103.056V16.0416ZM102.033 14.3051V17.0643H104.078V14.3051H102.033ZM102.033 5.69531V14.3051H104.078V5.69531H102.033ZM102.033 2.93611V5.69531H104.078V2.93611H102.033ZM101.157 3.9588H103.056V1.91342H101.157V3.9588ZM100.135 1.04297V2.93611H102.18V1.04297H100.135ZM91.6865 2.06566H101.157V0.0202811H91.6865V2.06566ZM110.81 12.412V7.58845H108.765V12.412H110.81ZM113.579 11.3893H109.787V13.4347H113.579V11.3893ZM112.556 7.58845V12.412H114.601V7.58845H112.556ZM109.787 8.61113H113.579V6.56576H109.787V8.61113ZM104.978 14.3051V17.0643H107.024V14.3051H104.978ZM106.001 18.087H107.894V16.0416H106.001V18.087ZM106.872 17.0643V18.9575H108.917V17.0643H106.872ZM107.894 19.9802H115.472V17.9348H107.894V19.9802ZM116.495 18.9575V17.0643H114.449V18.9575H116.495ZM115.472 18.087H117.37V16.0416H115.472V18.087ZM118.393 17.0643V14.3051H116.347V17.0643H118.393ZM118.393 14.3051V5.69531H116.347V14.3051H118.393ZM118.393 5.69531V2.93611H116.347V5.69531H118.393ZM117.37 1.91342H115.472V3.9588H117.37V1.91342ZM116.495 2.93611V1.04297H114.449V2.93611H116.495ZM115.472 0.0202811H107.894V2.06566H115.472V0.0202811ZM106.872 1.04297V2.93611H108.917V1.04297H106.872ZM107.894 1.91342H106.001V3.9588H107.894V1.91342ZM104.978 2.93611V5.69531H107.024V2.93611H104.978ZM104.978 5.69531V14.3051H107.024V5.69531H104.978ZM130.662 14.3051V17.0643H132.707V14.3051H130.662ZM131.685 16.0416H129.786V18.087H131.685V16.0416ZM128.764 17.0643V18.9575H130.809V17.0643H128.764ZM129.786 17.9348H122.209V19.9802H129.786V17.9348ZM123.232 18.9575V17.0643H121.186V18.9575H123.232ZM122.209 16.0416H120.316V18.087H122.209V16.0416ZM121.338 17.0643V14.3051H119.293V17.0643H121.338ZM121.338 14.3051V5.69531H119.293V14.3051H121.338ZM121.338 5.69531V2.93611H119.293V5.69531H121.338ZM120.316 3.9588H122.209V1.91342H120.316V3.9588ZM123.232 2.93611V1.04297H121.186V2.93611H123.232ZM122.209 2.06566H129.786V0.0202811H122.209V2.06566ZM128.764 1.04297V3.80216H130.809V1.04297H128.764ZM128.764 3.80216V4.82925H130.809V3.80216H128.764ZM128.764 4.82925V6.72748H130.809V4.82925H128.764ZM129.786 7.75017H131.685V5.70479H129.786V7.75017ZM130.662 6.72748V9.48668H132.707V6.72748H130.662ZM130.662 9.48668V14.3051H132.707V9.48668H130.662ZM127.023 9.48668V7.58845H124.977V9.48668H127.023ZM126 6.56576H124.102V8.61113H126V6.56576ZM123.079 7.58845V12.412H125.125V7.58845H123.079ZM124.102 13.4347H126V11.3893H124.102V13.4347ZM127.023 12.412V10.5138H124.977V12.412H127.023ZM127.023 10.5138V9.48668H124.977V10.5138H127.023ZM135.653 15.1712V12.412H133.608V15.1712H135.653ZM135.653 16.1983V15.1712H133.608V16.1983H135.653ZM135.653 18.9575V16.1983H133.608V18.9575H135.653ZM144.101 17.9348H134.63V19.9802H144.101V17.9348ZM143.078 17.0643V18.9575H145.124V17.0643H143.078ZM145.999 16.0416H144.101V18.087H145.999V16.0416ZM144.977 14.3051V17.0643H147.022V14.3051H144.977ZM144.977 11.3798V14.3051H147.022V11.3798H144.977ZM144.977 8.62062V11.3798H147.022V8.62062H144.977ZM144.101 9.64331H145.999V7.59793H144.101V9.64331ZM143.078 7.58845V8.62062H145.124V7.58845H143.078ZM145.999 6.56576H144.101V8.61113H145.999V6.56576ZM144.977 4.82925V7.58845H147.022V4.82925H144.977ZM144.977 3.80216V4.82925H147.022V3.80216H144.977ZM144.977 1.04297V3.80216H147.022V1.04297H144.977ZM136.523 2.06566H145.999V0.0202811H136.523V2.06566ZM137.546 2.93611V1.04297H135.501V2.93611H137.546ZM134.63 3.9588H136.523V1.91342H134.63V3.9588ZM135.653 5.69531V2.93611H133.608V5.69531H135.653ZM135.653 8.62062V5.69531H133.608V8.62062H135.653ZM135.653 11.3798V8.62062H133.608V11.3798H135.653ZM136.523 10.3571H134.63V12.4025H136.523V10.3571ZM137.546 12.412V11.3798H135.501V12.412H137.546ZM134.63 13.4347H136.523V11.3893H134.63V13.4347Z" fill="white" mask="url(#path-1-outside-1_49_20292)"/>
  <path d="M134.631 18.9576V15.1713H142.208V13.273H136.524V11.3799H134.631V5.69539H136.524V3.80225H146V7.58853H138.417V9.48676H144.101V11.3799H146V17.0644H144.101V18.9576H134.631Z" fill="#283EFF"/>
  <path d="M122.209 18.9576V17.0644H120.316V5.69539H122.209V3.80225H129.787V7.58853H124.102V15.1713H127.894V13.273H126.001V9.48676H131.685V17.0644H129.787V18.9576H122.209Z" fill="#283EFF"/>
  <path d="M113.579 15.1713V7.58853H109.788V15.1713H113.579ZM107.895 18.9576V17.0644H106.001V5.69539H107.895V3.80225H115.472V5.69539H117.37V17.0644H115.472V18.9576H107.895Z" fill="#283EFF"/>
  <path d="M99.2645 15.1713V7.58853H95.4731V15.1713H99.2645ZM91.6869 18.9576V3.80225H101.158V5.69539H103.056V17.0644H101.158V18.9576H91.6869Z" fill="#283EFF"/>
  <path d="M134.631 16.1983V12.412H142.208V10.5138H136.524V8.62062H134.631V2.93611H136.524V1.04297H146V4.82925H138.417V6.72748H144.101V8.62062H146V14.3051H144.101V16.1983H134.631Z" fill="url(#paint0_linear_49_20292)"/>
  <path d="M122.209 16.1983V14.3051H120.316V2.93611H122.209V1.04297H129.787V4.82925H124.102V12.412H127.894V10.5138H126.001V6.72748H131.685V14.3051H129.787V16.1983H122.209Z" fill="url(#paint1_linear_49_20292)"/>
  <path d="M113.579 12.412V4.82925H109.788V12.412H113.579ZM107.895 16.1983V14.3051H106.001V2.93611H107.895V1.04297H115.472V2.93611H117.37V14.3051H115.472V16.1983H107.895Z" fill="url(#paint2_linear_49_20292)"/>
  <path d="M99.2645 12.412V4.82925H95.4731V12.412H99.2645ZM91.6869 16.1983V1.04297H101.158V2.93611H103.056V14.3051H101.158V16.1983H91.6869Z" fill="url(#paint3_linear_49_20292)"/>
  <mask fill="black" height="21" id="path-5-outside-2_49_20292" maskUnits="userSpaceOnUse" width="86" x="0" y="-0.957031">
    <rect fill="white" height="21" width="86" y="-0.957031"/>
    <path clip-rule="evenodd" d="M2 1.04297V16.1983H2.00008V18.9574H11.4709V17.0643H13.3691V13.2729H13.369V10.5138H11.4709V9.4866H13.3691V5.69523H13.369V2.93611H11.4708V1.04297H2ZM16.3146 16.1983V1.04297H20.1009V3.80209H20.1009V18.9574H16.3147V16.1983H16.3146ZM26.8225 7.58837H23.0363V4.82925H23.0363V1.04297H34.4053V3.80209H34.4054V7.58837H30.614V18.9574H26.8226V16.1983H26.8225V7.58837ZM37.3509 14.3051V17.0643H39.244V18.9574H46.8217V17.0643H48.7199V13.2729H48.7199V10.5138H44.9285V12.412H41.1372V7.58837H44.9286V9.4866H48.7199V5.69523H48.7199V2.93611H46.8216V1.04297H39.244V2.93611H37.3508V14.3051H37.3509ZM59.2431 7.58837V12.412H55.4518V7.58837H59.2431ZM63.0345 5.69523H63.0345V17.0643H61.1363V18.9574H53.5587V17.0643H51.6655V14.3051H51.6654V2.93611H53.5586V1.04297H61.1362V2.93611H63.0345V5.69523ZM65.98 16.1983V1.04297H69.7663V3.80209H69.7664V18.9574H65.9801V16.1983H65.98ZM72.7017 16.1983V1.04297H74.5948V2.93611H76.4879V4.82925H78.3862V6.72748H80.2793V1.04297H84.0707V3.80209H84.0708V18.9574H82.1725V17.0643H80.2794V15.1711H78.3863V13.2729H76.488V18.9574H72.7017V16.1983H72.7017Z" fill-rule="evenodd"/>
  </mask>
  <path clip-rule="evenodd" d="M2 1.04297V16.1983H2.00008V18.9574H11.4709V17.0643H13.3691V13.2729H13.369V10.5138H11.4709V9.4866H13.3691V5.69523H13.369V2.93611H11.4708V1.04297H2ZM16.3146 16.1983V1.04297H20.1009V3.80209H20.1009V18.9574H16.3147V16.1983H16.3146ZM26.8225 7.58837H23.0363V4.82925H23.0363V1.04297H34.4053V3.80209H34.4054V7.58837H30.614V18.9574H26.8226V16.1983H26.8225V7.58837ZM37.3509 14.3051V17.0643H39.244V18.9574H46.8217V17.0643H48.7199V13.2729H48.7199V10.5138H44.9285V12.412H41.1372V7.58837H44.9286V9.4866H48.7199V5.69523H48.7199V2.93611H46.8216V1.04297H39.244V2.93611H37.3508V14.3051H37.3509ZM59.2431 7.58837V12.412H55.4518V7.58837H59.2431ZM63.0345 5.69523H63.0345V17.0643H61.1363V18.9574H53.5587V17.0643H51.6655V14.3051H51.6654V2.93611H53.5586V1.04297H61.1362V2.93611H63.0345V5.69523ZM65.98 16.1983V1.04297H69.7663V3.80209H69.7664V18.9574H65.9801V16.1983H65.98ZM72.7017 16.1983V1.04297H74.5948V2.93611H76.4879V4.82925H78.3862V6.72748H80.2793V1.04297H84.0707V3.80209H84.0708V18.9574H82.1725V17.0643H80.2794V15.1711H78.3863V13.2729H76.488V18.9574H72.7017V16.1983H72.7017Z" fill="#283EFF" fill-rule="evenodd"/>
  <path d="M2 16.1983H0.977312V17.221H2V16.1983ZM2 1.04297V0.0202811H0.977312V1.04297H2ZM2.00008 16.1983H3.02276V15.1756H2.00008V16.1983ZM2.00008 18.9574H0.977388V19.9801H2.00008V18.9574ZM11.4709 18.9574V19.9801H12.4936V18.9574H11.4709ZM11.4709 17.0643V16.0416H10.4482V17.0643H11.4709ZM13.3691 17.0643V18.0869H14.3918V17.0643H13.3691ZM13.3691 13.2729H14.3918V12.2502H13.3691V13.2729ZM13.369 13.2729H12.3463V14.2956H13.369V13.2729ZM13.369 10.5138H14.3917V9.49107H13.369V10.5138ZM11.4709 10.5138H10.4482V11.5364H11.4709V10.5138ZM11.4709 9.4866V8.46392H10.4482V9.4866H11.4709ZM13.3691 9.4866V10.5093H14.3918V9.4866H13.3691ZM13.3691 5.69523H14.3918V4.67254H13.3691V5.69523ZM13.369 5.69523H12.3463V6.71792H13.369V5.69523ZM13.369 2.93611H14.3917V1.91342H13.369V2.93611ZM11.4708 2.93611H10.4481V3.9588H11.4708V2.93611ZM11.4708 1.04297H12.4935V0.0202811H11.4708V1.04297ZM16.3146 1.04297V0.0202811H15.2919V1.04297H16.3146ZM16.3146 16.1983H15.2919V17.221H16.3146V16.1983ZM20.1009 1.04297H21.1235V0.0202811H20.1009V1.04297ZM20.1009 3.80209H19.0782V4.82478H20.1009V3.80209ZM20.1009 3.80209H21.1236V2.7794H20.1009V3.80209ZM20.1009 18.9574V19.9801H21.1236V18.9574H20.1009ZM16.3147 18.9574H15.292V19.9801H16.3147V18.9574ZM16.3147 16.1983H17.3373V15.1756H16.3147V16.1983ZM26.8225 7.58837H27.8452V6.56569H26.8225V7.58837ZM23.0363 7.58837H22.0136V8.61106H23.0363V7.58837ZM23.0363 4.82925H24.059V3.80656H23.0363V4.82925ZM23.0363 4.82925H22.0136V5.85194H23.0363V4.82925ZM23.0363 1.04297V0.0202811H22.0136V1.04297H23.0363ZM34.4053 1.04297H35.428V0.0202811H34.4053V1.04297ZM34.4053 3.80209H33.3826V4.82478H34.4053V3.80209ZM34.4054 3.80209H35.428V2.7794H34.4054V3.80209ZM34.4054 7.58837V8.61106H35.428V7.58837H34.4054ZM30.614 7.58837V6.56569H29.5913V7.58837H30.614ZM30.614 18.9574V19.9801H31.6367V18.9574H30.614ZM26.8226 18.9574H25.7999V19.9801H26.8226V18.9574ZM26.8226 16.1983H27.8453V15.1756H26.8226V16.1983ZM26.8225 16.1983H25.7999V17.221H26.8225V16.1983ZM37.3509 14.3051H38.3736V13.2824H37.3509V14.3051ZM37.3509 17.0643H36.3282V18.0869H37.3509V17.0643ZM39.244 17.0643H40.2667V16.0416H39.244V17.0643ZM39.244 18.9574H38.2214V19.9801H39.244V18.9574ZM46.8217 18.9574V19.9801H47.8444V18.9574H46.8217ZM46.8217 17.0643V16.0416H45.799V17.0643H46.8217ZM48.7199 17.0643V18.0869H49.7426V17.0643H48.7199ZM48.7199 13.2729H49.7426V12.2502H48.7199V13.2729ZM48.7199 13.2729H47.6972V14.2956H48.7199V13.2729ZM48.7199 10.5138H49.7425V9.49107H48.7199V10.5138ZM44.9285 10.5138V9.49107H43.9058V10.5138H44.9285ZM44.9285 12.412V13.4347H45.9512V12.412H44.9285ZM41.1372 12.412H40.1145V13.4347H41.1372V12.412ZM41.1372 7.58837V6.56569H40.1145V7.58837H41.1372ZM44.9286 7.58837H45.9512V6.56569H44.9286V7.58837ZM44.9286 9.4866H43.9059V10.5093H44.9286V9.4866ZM48.7199 9.4866V10.5093H49.7426V9.4866H48.7199ZM48.7199 5.69523H49.7426V4.67254H48.7199V5.69523ZM48.7199 5.69523H47.6972V6.71792H48.7199V5.69523ZM48.7199 2.93611H49.7425V1.91342H48.7199V2.93611ZM46.8216 2.93611H45.7989V3.9588H46.8216V2.93611ZM46.8216 1.04297H47.8443V0.0202811H46.8216V1.04297ZM39.244 1.04297V0.0202811H38.2213V1.04297H39.244ZM39.244 2.93611V3.9588H40.2667V2.93611H39.244ZM37.3508 2.93611V1.91342H36.3281V2.93611H37.3508ZM37.3508 14.3051H36.3281V15.3278H37.3508V14.3051ZM59.2431 12.412V13.4347H60.2658V12.412H59.2431ZM59.2431 7.58837H60.2658V6.56569H59.2431V7.58837ZM55.4518 12.412H54.4291V13.4347H55.4518V12.412ZM55.4518 7.58837V6.56569H54.4291V7.58837H55.4518ZM63.0345 5.69523H62.0118V6.71792H63.0345V5.69523ZM63.0345 5.69523H64.0572V4.67254H63.0345V5.69523ZM63.0345 17.0643V18.0869H64.0572V17.0643H63.0345ZM61.1363 17.0643V16.0416H60.1136V17.0643H61.1363ZM61.1363 18.9574V19.9801H62.159V18.9574H61.1363ZM53.5587 18.9574H52.536V19.9801H53.5587V18.9574ZM53.5587 17.0643H54.5813V16.0416H53.5587V17.0643ZM51.6655 17.0643H50.6428V18.0869H51.6655V17.0643ZM51.6655 14.3051H52.6882V13.2824H51.6655V14.3051ZM51.6654 14.3051H50.6427V15.3278H51.6654V14.3051ZM51.6654 2.93611V1.91342H50.6427V2.93611H51.6654ZM53.5586 2.93611V3.9588H54.5813V2.93611H53.5586ZM53.5586 1.04297V0.0202811H52.5359V1.04297H53.5586ZM61.1362 1.04297H62.1589V0.0202811H61.1362V1.04297ZM61.1362 2.93611H60.1135V3.9588H61.1362V2.93611ZM63.0345 2.93611H64.0571V1.91342H63.0345V2.93611ZM65.98 1.04297V0.0202811H64.9573V1.04297H65.98ZM65.98 16.1983H64.9573V17.221H65.98V16.1983ZM69.7663 1.04297H70.789V0.0202811H69.7663V1.04297ZM69.7663 3.80209H68.7436V4.82478H69.7663V3.80209ZM69.7664 3.80209H70.7891V2.7794H69.7664V3.80209ZM69.7664 18.9574V19.9801H70.7891V18.9574H69.7664ZM65.9801 18.9574H64.9574V19.9801H65.9801V18.9574ZM65.9801 16.1983H67.0028V15.1756H65.9801V16.1983ZM72.7017 1.04297V0.0202811H71.679V1.04297H72.7017ZM72.7017 16.1983H71.679V17.221H72.7017V16.1983ZM74.5948 1.04297H75.6175V0.0202811H74.5948V1.04297ZM74.5948 2.93611H73.5721V3.9588H74.5948V2.93611ZM76.4879 2.93611H77.5106V1.91342H76.4879V2.93611ZM76.4879 4.82925H75.4653V5.85194H76.4879V4.82925ZM78.3862 4.82925H79.4089V3.80656H78.3862V4.82925ZM78.3862 6.72748H77.3635V7.75017H78.3862V6.72748ZM80.2793 6.72748V7.75017H81.302V6.72748H80.2793ZM80.2793 1.04297V0.0202811H79.2566V1.04297H80.2793ZM84.0707 1.04297H85.0934V0.0202811H84.0707V1.04297ZM84.0707 3.80209H83.048V4.82478H84.0707V3.80209ZM84.0708 3.80209H85.0935V2.7794H84.0708V3.80209ZM84.0708 18.9574V19.9801H85.0935V18.9574H84.0708ZM82.1725 18.9574H81.1498V19.9801H82.1725V18.9574ZM82.1725 17.0643H83.1952V16.0416H82.1725V17.0643ZM80.2794 17.0643H79.2567V18.0869H80.2794V17.0643ZM80.2794 15.1711H81.3021V14.1484H80.2794V15.1711ZM78.3863 15.1711H77.3636V16.1938H78.3863V15.1711ZM78.3863 13.2729H79.4089V12.2502H78.3863V13.2729ZM76.488 13.2729V12.2502H75.4653V13.2729H76.488ZM76.488 18.9574V19.9801H77.5107V18.9574H76.488ZM72.7017 18.9574H71.6791V19.9801H72.7017V18.9574ZM72.7017 16.1983H73.7244V15.1756H72.7017V16.1983ZM3.02269 16.1983V1.04297H0.977312V16.1983H3.02269ZM2.00008 15.1756H2V17.221H2.00008V15.1756ZM3.02276 18.9574V16.1983H0.977388V18.9574H3.02276ZM11.4709 17.9347H2.00008V19.9801H11.4709V17.9347ZM10.4482 17.0643V18.9574H12.4936V17.0643H10.4482ZM13.3691 16.0416H11.4709V18.0869H13.3691V16.0416ZM12.3464 13.2729V17.0643H14.3918V13.2729H12.3464ZM13.369 14.2956H13.3691V12.2502H13.369V14.2956ZM12.3463 10.5138V13.2729H14.3917V10.5138H12.3463ZM11.4709 11.5364H13.369V9.49107H11.4709V11.5364ZM10.4482 9.4866V10.5138H12.4936V9.4866H10.4482ZM13.3691 8.46392H11.4709V10.5093H13.3691V8.46392ZM12.3464 5.69523V9.4866H14.3918V5.69523H12.3464ZM13.369 6.71792H13.3691V4.67254H13.369V6.71792ZM12.3463 2.93611V5.69523H14.3917V2.93611H12.3463ZM11.4708 3.9588H13.369V1.91342H11.4708V3.9588ZM10.4481 1.04297V2.93611H12.4935V1.04297H10.4481ZM2 2.06566H11.4708V0.0202811H2V2.06566ZM15.2919 1.04297V16.1983H17.3373V1.04297H15.2919ZM20.1009 0.0202811H16.3146V2.06566H20.1009V0.0202811ZM21.1235 3.80209V1.04297H19.0782V3.80209H21.1235ZM20.1009 2.7794H20.1009V4.82478H20.1009V2.7794ZM21.1236 18.9574V3.80209H19.0782V18.9574H21.1236ZM16.3147 19.9801H20.1009V17.9347H16.3147V19.9801ZM15.292 16.1983V18.9574H17.3373V16.1983H15.292ZM16.3146 17.221H16.3147V15.1756H16.3146V17.221ZM26.8225 6.56569H23.0363V8.61106H26.8225V6.56569ZM24.059 7.58837V4.82925H22.0136V7.58837H24.059ZM23.0363 3.80656H23.0363V5.85194H23.0363V3.80656ZM24.0589 4.82925V1.04297H22.0136V4.82925H24.0589ZM23.0363 2.06566H34.4053V0.0202811H23.0363V2.06566ZM33.3826 1.04297V3.80209H35.428V1.04297H33.3826ZM34.4053 4.82478H34.4054V2.7794H34.4053V4.82478ZM33.3827 3.80209V7.58837H35.428V3.80209H33.3827ZM34.4054 6.56569H30.614V8.61106H34.4054V6.56569ZM29.5913 7.58837V18.9574H31.6367V7.58837H29.5913ZM30.614 17.9347H26.8226V19.9801H30.614V17.9347ZM27.8453 18.9574V16.1983H25.7999V18.9574H27.8453ZM26.8226 15.1756H26.8225V17.221H26.8226V15.1756ZM27.8452 16.1983V7.58837H25.7999V16.1983H27.8452ZM36.3282 14.3051V17.0643H38.3736V14.3051H36.3282ZM37.3509 18.0869H39.244V16.0416H37.3509V18.0869ZM38.2214 17.0643V18.9574H40.2667V17.0643H38.2214ZM39.244 19.9801H46.8217V17.9347H39.244V19.9801ZM47.8444 18.9574V17.0643H45.799V18.9574H47.8444ZM46.8217 18.0869H48.7199V16.0416H46.8217V18.0869ZM49.7426 17.0643V13.2729H47.6972V17.0643H49.7426ZM48.7199 12.2502H48.7199V14.2956H48.7199V12.2502ZM49.7425 13.2729V10.5138H47.6972V13.2729H49.7425ZM48.7199 9.49107H44.9285V11.5364H48.7199V9.49107ZM43.9058 10.5138V12.412H45.9512V10.5138H43.9058ZM44.9285 11.3893H41.1372V13.4347H44.9285V11.3893ZM42.1599 12.412V7.58837H40.1145V12.412H42.1599ZM41.1372 8.61106H44.9286V6.56569H41.1372V8.61106ZM43.9059 7.58837V9.4866H45.9512V7.58837H43.9059ZM44.9286 10.5093H48.7199V8.46392H44.9286V10.5093ZM49.7426 9.4866V5.69523H47.6972V9.4866H49.7426ZM48.7199 4.67254H48.7199V6.71792H48.7199V4.67254ZM49.7425 5.69523V2.93611H47.6972V5.69523H49.7425ZM48.7199 1.91342H46.8216V3.9588H48.7199V1.91342ZM47.8443 2.93611V1.04297H45.7989V2.93611H47.8443ZM46.8216 0.0202811H39.244V2.06566H46.8216V0.0202811ZM38.2213 1.04297V2.93611H40.2667V1.04297H38.2213ZM39.244 1.91342H37.3508V3.9588H39.244V1.91342ZM36.3281 2.93611V14.3051H38.3735V2.93611H36.3281ZM37.3508 15.3278H37.3509V13.2824H37.3508V15.3278ZM60.2658 12.412V7.58837H58.2204V12.412H60.2658ZM55.4518 13.4347H59.2431V11.3893H55.4518V13.4347ZM54.4291 7.58837V12.412H56.4745V7.58837H54.4291ZM59.2431 6.56569H55.4518V8.61106H59.2431V6.56569ZM63.0345 6.71792H63.0345V4.67254H63.0345V6.71792ZM62.0118 5.69523V17.0643H64.0572V5.69523H62.0118ZM63.0345 16.0416H61.1363V18.0869H63.0345V16.0416ZM60.1136 17.0643V18.9574H62.159V17.0643H60.1136ZM61.1363 17.9347H53.5587V19.9801H61.1363V17.9347ZM54.5813 18.9574V17.0643H52.536V18.9574H54.5813ZM53.5587 16.0416H51.6655V18.0869H53.5587V16.0416ZM52.6882 17.0643V14.3051H50.6428V17.0643H52.6882ZM51.6655 13.2824H51.6654V15.3278H51.6655V13.2824ZM52.6881 14.3051V2.93611H50.6427V14.3051H52.6881ZM51.6654 3.9588H53.5586V1.91342H51.6654V3.9588ZM54.5813 2.93611V1.04297H52.5359V2.93611H54.5813ZM53.5586 2.06566H61.1362V0.0202811H53.5586V2.06566ZM60.1135 1.04297V2.93611H62.1589V1.04297H60.1135ZM61.1362 3.9588H63.0345V1.91342H61.1362V3.9588ZM62.0118 2.93611V5.69523H64.0571V2.93611H62.0118ZM64.9573 1.04297V16.1983H67.0027V1.04297H64.9573ZM69.7663 0.0202811H65.98V2.06566H69.7663V0.0202811ZM70.789 3.80209V1.04297H68.7436V3.80209H70.789ZM69.7664 2.7794H69.7663V4.82478H69.7664V2.7794ZM70.7891 18.9574V3.80209H68.7437V18.9574H70.7891ZM65.9801 19.9801H69.7664V17.9347H65.9801V19.9801ZM64.9574 16.1983V18.9574H67.0028V16.1983H64.9574ZM65.98 17.221H65.9801V15.1756H65.98V17.221ZM71.679 1.04297V16.1983H73.7244V1.04297H71.679ZM74.5948 0.0202811H72.7017V2.06566H74.5948V0.0202811ZM75.6175 2.93611V1.04297H73.5721V2.93611H75.6175ZM76.4879 1.91342H74.5948V3.9588H76.4879V1.91342ZM77.5106 4.82925V2.93611H75.4653V4.82925H77.5106ZM78.3862 3.80656H76.4879V5.85194H78.3862V3.80656ZM79.4089 6.72748V4.82925H77.3635V6.72748H79.4089ZM80.2793 5.70479H78.3862V7.75017H80.2793V5.70479ZM79.2566 1.04297V6.72748H81.302V1.04297H79.2566ZM84.0707 0.0202811H80.2793V2.06566H84.0707V0.0202811ZM85.0934 3.80209V1.04297H83.048V3.80209H85.0934ZM84.0708 2.7794H84.0707V4.82478H84.0708V2.7794ZM85.0935 18.9574V3.80209H83.0481V18.9574H85.0935ZM82.1725 19.9801H84.0708V17.9347H82.1725V19.9801ZM81.1498 17.0643V18.9574H83.1952V17.0643H81.1498ZM80.2794 18.0869H82.1725V16.0416H80.2794V18.0869ZM79.2567 15.1711V17.0643H81.3021V15.1711H79.2567ZM78.3863 16.1938H80.2794V14.1484H78.3863V16.1938ZM77.3636 13.2729V15.1711H79.4089V13.2729H77.3636ZM76.488 14.2956H78.3863V12.2502H76.488V14.2956ZM77.5107 18.9574V13.2729H75.4653V18.9574H77.5107ZM72.7017 19.9801H76.488V17.9347H72.7017V19.9801ZM71.6791 16.1983V18.9574H73.7244V16.1983H71.6791ZM72.7017 17.221H72.7017V15.1756H72.7017V17.221Z" fill="white" mask="url(#path-5-outside-2_49_20292)"/>
  <path d="M72.7018 18.9576V3.80225H74.5949V5.69539H76.4881V7.58853H78.3863V9.48676H80.2794V3.80225H84.0708V18.9576H82.1726V17.0644H80.2794V15.1713H78.3863V13.273H76.4881V18.9576H72.7018Z" fill="#283EFF"/>
  <path d="M65.9801 18.9576V3.80225H69.7664V18.9576H65.9801Z" fill="#283EFF"/>
  <path d="M59.2432 15.1713V7.58853H55.4518V15.1713H59.2432ZM53.5587 18.9576V17.0644H51.6656V5.69539H53.5587V3.80225H61.1363V5.69539H63.0346V17.0644H61.1363V18.9576H53.5587Z" fill="#283EFF"/>
  <path d="M39.2441 18.9576V17.0644H37.351V5.69539H39.2441V3.80225H46.8217V5.69539H48.72V9.48676H44.9286V7.58853H41.1372V15.1713H44.9286V13.273H48.72V17.0644H46.8217V18.9576H39.2441Z" fill="#283EFF"/>
  <path d="M26.8227 18.9576V7.58853H23.0364V3.80225H34.4054V7.58853H30.614V18.9576H26.8227Z" fill="#283EFF"/>
  <path d="M16.3147 18.9576V3.80225H20.101V18.9576H16.3147Z" fill="#283EFF"/>
  <path d="M9.57777 15.1713V13.273H5.7864V15.1713H9.57777ZM9.57777 9.48676V7.58853H5.7864V9.48676H9.57777ZM2.00012 18.9576V3.80225H11.4709V5.69539H13.3691V9.48676H11.4709V13.273H13.3691V17.0644H11.4709V18.9576H2.00012Z" fill="#283EFF"/>
  <path d="M72.702 16.1983V1.04297H74.5952V2.93611H76.4883V4.82925H78.3865V6.72748H80.2797V1.04297H84.0711V16.1983H82.1728V14.3051H80.2797V12.412H78.3865V10.5138H76.4883V16.1983H72.702Z" fill="url(#paint4_linear_49_20292)"/>
  <path d="M65.9804 16.1983V1.04297H69.7667V16.1983H65.9804Z" fill="url(#paint5_linear_49_20292)"/>
  <path d="M59.2435 12.412V4.82925H55.4521V12.412H59.2435ZM53.5589 16.1983V14.3051H51.6658V2.93611H53.5589V1.04297H61.1366V2.93611H63.0348V14.3051H61.1366V16.1983H53.5589Z" fill="url(#paint6_linear_49_20292)"/>
  <path d="M39.2443 16.1983V14.3051H37.3512V2.93611H39.2443V1.04297H46.822V2.93611H48.7202V6.72748H44.9289V4.82925H41.1375V12.412H44.9289V10.5138H48.7202V14.3051H46.822V16.1983H39.2443Z" fill="url(#paint7_linear_49_20292)"/>
  <path d="M26.8229 16.1983V4.82925H23.0366V1.04297H34.4056V4.82925H30.6143V16.1983H26.8229Z" fill="url(#paint8_linear_49_20292)"/>
  <path d="M16.3149 16.1983V1.04297H20.1012V16.1983H16.3149Z" fill="url(#paint9_linear_49_20292)"/>
  <path d="M9.57802 12.412V10.5138H5.78665V12.412H9.57802ZM9.57802 6.72748V4.82925H5.78665V6.72748H9.57802ZM2.00037 16.1983V1.04297H11.4712V2.93611H13.3694V6.72748H11.4712V10.5138H13.3694V14.3051H11.4712V16.1983H2.00037Z" fill="url(#paint10_linear_49_20292)"/>
  <defs>
    <linearGradient gradientUnits="userSpaceOnUse" id="paint0_linear_49_20292" x1="118.843" x2="118.843" y1="1.04297" y2="16.1983">
      <stop stop-color="#86B7FA"/>
      <stop offset="1" stop-color="#FD86CA"/>
    </linearGradient>
    <linearGradient gradientUnits="userSpaceOnUse" id="paint1_linear_49_20292" x1="118.843" x2="118.843" y1="1.04297" y2="16.1983">
      <stop stop-color="#86B7FA"/>
      <stop offset="1" stop-color="#FD86CA"/>
    </linearGradient>
    <linearGradient gradientUnits="userSpaceOnUse" id="paint2_linear_49_20292" x1="118.843" x2="118.843" y1="1.04297" y2="16.1983">
      <stop stop-color="#86B7FA"/>
      <stop offset="1" stop-color="#FD86CA"/>
    </linearGradient>
    <linearGradient gradientUnits="userSpaceOnUse" id="paint3_linear_49_20292" x1="118.843" x2="118.843" y1="1.04297" y2="16.1983">
      <stop stop-color="#86B7FA"/>
      <stop offset="1" stop-color="#FD86CA"/>
    </linearGradient>
    <linearGradient gradientUnits="userSpaceOnUse" id="paint4_linear_49_20292" x1="43.0357" x2="43.0357" y1="1.04297" y2="16.1983">
      <stop stop-color="#86B7FA"/>
      <stop offset="1" stop-color="#FD86CA"/>
    </linearGradient>
    <linearGradient gradientUnits="userSpaceOnUse" id="paint5_linear_49_20292" x1="43.0357" x2="43.0357" y1="1.04297" y2="16.1983">
      <stop stop-color="#86B7FA"/>
      <stop offset="1" stop-color="#FD86CA"/>
    </linearGradient>
    <linearGradient gradientUnits="userSpaceOnUse" id="paint6_linear_49_20292" x1="43.0357" x2="43.0357" y1="1.04297" y2="16.1983">
      <stop stop-color="#86B7FA"/>
      <stop offset="1" stop-color="#FD86CA"/>
    </linearGradient>
    <linearGradient gradientUnits="userSpaceOnUse" id="paint7_linear_49_20292" x1="43.0357" x2="43.0357" y1="1.04297" y2="16.1983">
      <stop stop-color="#86B7FA"/>
      <stop offset="1" stop-color="#FD86CA"/>
    </linearGradient>
    <linearGradient gradientUnits="userSpaceOnUse" id="paint8_linear_49_20292" x1="43.0357" x2="43.0357" y1="1.04297" y2="16.1983">
      <stop stop-color="#86B7FA"/>
      <stop offset="1" stop-color="#FD86CA"/>
    </linearGradient>
    <linearGradient gradientUnits="userSpaceOnUse" id="paint9_linear_49_20292" x1="43.0357" x2="43.0357" y1="1.04297" y2="16.1983">
      <stop stop-color="#86B7FA"/>
      <stop offset="1" stop-color="#FD86CA"/>
    </linearGradient>
    <linearGradient gradientUnits="userSpaceOnUse" id="paint10_linear_49_20292" x1="43.0357" x2="43.0357" y1="1.04297" y2="16.1983">
      <stop stop-color="#86B7FA"/>
      <stop offset="1" stop-color="#FD86CA"/>
    </linearGradient>
  </defs>
</svg>