<?xml version="1.0" encoding="utf-8"?>
<svg xmlns="http://www.w3.org/2000/svg" fill="none" height="90" viewBox="0 0 600 90" width="600">
<path d="M107.9 10.4001C111 10.4001 112.7 11.4001 113.4 12.5001C114.4 13.5001 115.5 14.6 115.5 17.7C115.5 20.8 114.5 22.2001 113.4 22.9001C112.4 23.9001 111 25.0001 107.9 25.0001C104.8 25.0001 103.4 24.0001 102.4 22.9001C101.4 21.9001 100.3 20.5 100.3 17.7C100.3 14.9 101.3 13.6001 102.4 12.5001C103.4 11.8001 104.8 10.4001 107.9 10.4001ZM107.9 1.80005C103.4 1.80005 99.6 3.50005 96.5 6.30005C93.4 9.10005 92 12.9 92 17.7C92 22.5 93.4 26.3001 96.5 29.1001C99.6 32.2001 103.4 33.6001 108.2 33.6001C113 33.6001 116.8 32.2001 119.9 29.1001C123 26.0001 124.4 22.2 124.4 17.7C124.4 13.2 123 9.10005 119.9 6.30005C116.6 3.50005 112.8 1.80005 107.9 1.80005Z" fill="#E57B29"/>
<path d="M11 79C3.8 72.1 0 62.1 0 49.3V1.69998H29V48.3C29 54.5 30 59.3 32.4 62.1C34.8 64.9 37.9 66.2 42.1 66.2C46.3 66.2 49.7 64.8 51.8 62.1C54.2 59.3 55.2 54.5 55.2 48.3V1.69998H83.8V48.9C83.8 61.7 80 71.7 72.8 78.9C65.2 86.1 55.2 89.6 41.8 89.6C28.6 89.7 18.3 86.3 11 79ZM158.3 24.6H133.1V1.79999H212.4V24.2H187.2V87.6H158.2C158.3 87.7 158.3 24.6 158.3 24.6ZM239 84.2C232 80.5 226 75.1 221.8 68.3C217.7 61.4 215.6 53.8 215.6 45.2C215.6 36.6 217.7 29 221.8 22.1C225.9 15.2 231.8 9.99998 239 6.19998C246.2 1.69998 254.5 0 263.8 0C273.1 0 281.4 2.09999 288.6 5.89999C295.6 9.59999 301.6 15 305.8 21.8C309.9 28.4 312 36.3 312 44.9C312 53.5 309.9 61.1 305.8 68C301.7 74.9 295.8 80.1 288.6 83.9C281.4 87.7 273.1 89.8 263.8 89.8C254.5 89.7 246.2 88 239 84.2ZM273.4 63.9C276.4 62.1 278.8 59.4 280.3 56.3C282 53.2 282.7 49.4 282.7 44.9C282.7 40.4 282 36.6 280.3 33.5C278.6 30.4 276.2 27.6 273.4 25.9C270.6 24.2 267.2 23.1 263.7 23.1C256.7 23.1 250.3 27.1 247.1 33.4C245.4 36.5 244.7 40.3 244.7 44.8C244.7 49.3 245.7 53.1 247.1 56.2C248.8 59.3 251.2 62.1 254 63.8C256.8 65.5 260.2 66.6 263.7 66.6C267.2 66.3 270.7 65.6 273.4 63.9ZM322.8 1.79999H365.2C374.9 1.79999 383.1 3.5 390.7 7C397.7 10.3 403.6 15.4 407.9 21.8C412 28.4 414.1 35.9 414.1 44.6C414.1 53.2 412 60.8 407.9 67.4C403.8 74 398.2 78.8 390.7 82.2C383.5 85.6 374.8 87.4 365.2 87.4H322.8V1.79999ZM364.1 65.2C370.3 65.2 375.1 63.5 378.9 60C382.7 56.5 384.4 51.4 384.4 44.8C384.4 38.2 382.7 33.4 378.9 29.6C375.1 26.2 370.3 24.4 364.1 24.4H351.7V65.1H364.1V65.2ZM481.7 72.8H449L443.1 87.6H413.8L451.4 1.69998H480L517.2 87.9H487.2C487.2 88 481.7 72.8 481.7 72.8ZM473.8 52.1L465.5 30.4L457.2 52.1H473.8ZM567.6 56.6V87.6H538.6V55.9L506.2 1.39999H536.9L554.5 31.1L572.1 1.39999H600C600 1.49999 567.6 56.6 567.6 56.6Z" fill="white"/>
</svg>