<?xml version="1.0" encoding="utf-8"?>
<svg xmlns="http://www.w3.org/2000/svg" fill="none" height="100" viewBox="0 0 772 100" width="772">
<path d="M473.75 54.2C473.75 72.3 463.35 83.1 446.25 83.1C429.15 83.1 418.75 72.3 418.75 54.2C418.75 36.1 429.25 25.3 446.25 25.3C463.35 25.3 473.75 36.1 473.75 54.2ZM433.65 54.2C433.65 65.7 438.05 71.6 446.25 71.6C454.45 71.6 458.75 65.6 458.75 54.2C458.75 42.8 454.35 36.8 446.25 36.8C438.15 36.8 433.65 42.7 433.65 54.2ZM540.65 82.2H524.45L507.05 51.9L502.85 43.4H502.75L503.05 53.9V82.2H490.15V26.1H502.95C505.05 26.1 507.05 27.3 508.15 29.1L523.85 56.4L528.05 64.9H528.15L527.85 54.4V26.1H540.75L540.65 82.2ZM604.15 70.9V82.2H561.35V26.1H575.95V70.9H604.15ZM635.45 82.2H620.85V26.1H635.45V82.2ZM706.15 82.2H689.95L672.55 51.9L668.35 43.4H668.25L668.55 53.9V82.2H655.65V26.1H668.35C670.45 26.1 672.45 27.3 673.55 29.1L689.25 56.4L693.45 64.9H693.55L693.25 54.4V26.1H706.15V82.2ZM770.95 70.9V82.2H726.15V26.1H769.85V37.4H740.75V48.8H763.85V59.4H740.75V70.9H770.95Z" fill="white"/>
<path clip-rule="evenodd" d="M98.1 58.5C96.5 58.6 95.3 59.1 94.3 60C93.3 60.8 92.6 61.9 92.2 63.5C91.8 65 91.7 66.8 91.7 69C91.7 70.8 91.8 72.2 92.1 73.5C92.3 74.7 92.7 75.7 93.1 76.3C93.5 76.7 94.2 77 95 77C96.2 77 97.2 76.5 98.1 75.5C99 74.5 99.6 73.1 100.1 71.3C100.6 69.5 100.8 67.4 100.8 65V58.2L98.1 58.5ZM300 45.2C299.6 43 299.1 41.2 298.4 40C297.7 38.8 296.7 38.2 295.6 38.2C294.5 38.2 293.4 38.8 292.4 40C291.5 41.2 290.8 42.8 290.2 45.1C289.7 47.3 289.4 50 289.4 53.3H300.5C300.6 50.1 300.4 47.5 300 45.2ZM341 45.2C340.6 43 340.1 41.2 339.4 40C338.7 38.8 337.7 38.2 336.6 38.2C335.5 38.2 334.4 38.8 333.4 40C332.5 41.2 331.8 42.8 331.2 45.1C330.7 47.3 330.4 50 330.4 53.3H341.5C341.6 50.1 341.4 47.5 341 45.2ZM0 0V100H400V0H0ZM75 38.9C74.4 39.3 73.8 40 73.4 41C72.9 42 72.4 43.5 71.9 45.5L62.1 82.3H53L45.8 52.1L38.2 82.3H29L19.5 43.3C19.2 42 18.8 41 18.3 40.3C17.9 39.6 17.3 39.2 16.7 38.9C16 38.6 15.2 38.4 14.2 38.4H14V33.6H37.6V38.4H36.7C35.2 38.4 34.1 38.7 33.3 39.2C32.6 39.7 32.2 40.7 32.2 42.2C32.2 42.7 32.3 43.3 32.4 44.1C32.6 44.8 32.7 45.5 32.9 46.2L35.1 57.9C35.4 59.4 35.7 60.8 35.9 62.4C36.2 63.9 36.4 65.4 36.6 66.8C36.8 68.1 37 69.3 37.1 70.2H37.4C37.5 69.2 37.7 68.2 37.9 67C38.1 65.8 38.4 64.6 38.7 63.4C39 62.2 39.3 61.1 39.5 60L47 34.1H52L59 60.9C59.2 61.6 59.4 62.3 59.5 63.2C59.7 64 59.8 64.9 60 65.8C60.1 66.6 60.2 67.5 60.3 68.3C60.4 69 60.5 69.7 60.6 70.3H60.9C61 69.3 61.1 68.4 61.3 67.4C61.5 66.4 61.7 65.4 61.8 64.3C62 63.1 62.2 62 62.5 60.8L65.6 47.5C65.8 46.7 65.9 45.9 66.1 45C66.2 44.1 66.3 43.4 66.3 42.9C66.3 41.3 65.9 40.2 65 39.5C64.2 38.8 63 38.4 61.4 38.4H60.9V33.6H78.5V38.4H77.5C76.5 38.4 75.7 38.6 75 38.9ZM116.7 82.5H103.3L101.6 76.2H100.9C99.7 77.8 98.7 79.2 97.7 80.3C96.7 81.3 95.6 82.1 94.4 82.6C93.1 83 91.6 83.3 89.8 83.3C87.6 83.3 85.6 82.8 83.8 81.8C82 80.7 80.6 79.1 79.5 76.9C78.5 74.7 78 71.9 78 68.5C78 63.5 79.4 59.9 82.1 57.6C84.9 55.2 89.1 53.9 94.6 53.7L100.8 53.4V48.4C100.8 46.2 100.6 44.3 100.3 42.8C100 41.2 99.5 40 98.8 39.3C98.2 38.5 97.4 38.1 96.3 38.1C95.3 38.1 94.4 38.5 93.8 39.3C93.2 40 92.7 41.1 92.3 42.7C92 44.2 91.8 45.9 91.8 48C88.1 48 85.3 47.5 83.5 46.5C81.7 45.5 80.9 44 80.9 41.9C80.9 39.8 81.6 38.1 83.1 36.7C84.6 35.3 86.6 34.3 89.1 33.6C91.6 32.9 94.3 32.6 97.4 32.6C102.9 32.6 107.1 33.8 109.9 36.1C112.7 38.4 114.2 42.4 114.2 48.1V71.3C114.2 73 114.3 74.3 114.6 75.2C114.9 76.1 115.4 76.8 116.1 77.2L116.7 77.5V82.5ZM171.9 82.3H120V77.6H121C121.9 77.6 122.7 77.4 123.5 77.1C124.3 76.8 124.8 76.1 125.2 75.2C125.6 74.2 125.8 72.9 125.8 71.1V23.7C125.8 22.1 125.5 20.9 124.9 20.1C124.3 19.3 123.6 18.8 122.8 18.6C122.1 18.4 121.4 18.2 120.9 18.2H120V13.4H139.3V71C139.3 72.8 139.5 74.1 139.9 75.1C140.3 76 140.9 76.6 141.6 77C142.4 77.4 143.3 77.5 144.2 77.5H148C148.9 77.5 149.7 77.3 150.5 77C151.3 76.7 151.8 76 152.2 75.1C152.6 74.1 152.8 72.8 152.8 71V23.7C152.8 22.1 152.5 20.9 151.9 20.1C151.3 19.3 150.6 18.8 149.8 18.6C149.1 18.4 148.4 18.2 147.9 18.2H147V13.4H166.3V71C166.3 72.8 166.5 74.1 166.9 75.1C167.3 76 167.9 76.6 168.6 77C169.4 77.4 170.3 77.5 171.2 77.5H171.9V82.3ZM202.3 79.2C199.6 82 195.4 83.4 189.8 83.4C185.9 83.4 182.7 83 180.3 82.1C178 81.2 176.4 80 175.4 78.5C174.4 77 173.9 75.2 173.9 73.1C173.9 71.5 174.2 70.2 174.9 69.3C175.6 68.3 176.4 67.6 177.5 67.2C178.7 66.8 179.9 66.6 181.2 66.6C181.2 69.1 181.6 71.2 182.3 72.9C183 74.6 184 75.9 185.3 76.7C186.6 77.5 188.1 78 189.8 78C192.3 78 194 77.4 195.1 76.2C196.1 75 196.6 73.5 196.6 71.7C196.6 70.4 196.3 69.2 195.6 68.3C195 67.4 194.1 66.5 192.8 65.8C191.5 65 189.9 64.1 187.8 63.3C184.8 62 182.3 60.7 180.3 59.4C178.4 58 176.9 56.4 175.8 54.5C174.8 52.6 174.3 50.1 174.3 47.2C174.3 42.4 175.8 38.7 178.9 36.4C182.1 34 186.2 32.8 191.3 32.8C194.6 32.8 197.2 33.2 199.2 34.1C201.2 34.9 202.7 35.9 203.6 37.3C204.6 38.6 205.1 40 205.1 41.5C205.1 43.5 204.5 45 203.3 46C202.1 47 200.1 47.5 197.5 47.5C197.5 44.5 196.8 42.2 195.4 40.6C194 39 192.3 38.2 190.2 38.2C189.1 38.2 188.1 38.4 187.3 38.8C186.5 39.2 185.8 39.9 185.3 40.7C184.9 41.5 184.7 42.5 184.7 43.6C184.7 45 184.9 46.1 185.4 47.1C185.9 48 186.9 48.9 188.1 49.6C189.4 50.4 191.3 51.3 193.6 52.2C196.3 53.3 198.6 54.5 200.6 55.8C202.6 57.1 204.1 58.7 205.1 60.6C206.2 62.5 206.7 64.9 206.7 67.9C206.7 72.6 205.2 76.3 202.3 79.2ZM273.2 46.8C271.3 48.1 268.7 48.7 265.5 48.7C265.5 47 265.4 45.6 265.2 44.5C265.1 43.4 264.8 42.6 264.3 42C263.8 41.4 263.1 41.1 262.1 41.1C261.2 41.1 260.4 41.6 259.6 42.6C258.9 43.5 258.4 44.8 257.9 46.3C257.4 47.8 257.1 49.5 256.8 51.5C256.6 53.4 256.4 55.3 256.4 57.1V71.4C256.4 73.2 256.6 74.5 256.9 75.4C257.3 76.2 257.9 76.8 258.5 77.1C259.2 77.3 260.1 77.5 261 77.5H263.5V82.3H237.9V77.6C238.8 77.6 239.5 77.4 240.2 77.1C241 76.8 241.7 76.2 242.1 75.3C242.6 74.3 242.8 72.9 242.8 71V45.5C242.8 43.7 242.6 42.3 242.2 41.5C241.8 40.6 241.3 40 240.6 39.8C239.9 39.5 239 39.3 237.9 39.3H226.9V67.8C226.9 70.5 227.2 72.5 227.8 73.8C228.5 75 229.7 75.6 231.4 75.6C231.9 75.6 232.5 75.6 233 75.5V82.3C232.9 82.3 232.8 82.4 232.7 82.4C230.9 83 228.5 83.3 225.6 83.3C221.8 83.3 218.8 82.2 216.6 80.1C214.4 78 213.3 74.3 213.3 68.9V39.4H207.8V35.1C209.8 35 211.5 34.5 212.8 33.7C214.1 32.9 215.2 31.9 215.9 31C216.6 30.2 217.2 29 217.8 27.6C218.4 26.2 218.9 24.4 219.3 22.3H226.9V33.6H254.2L255.7 42.6H256.2C257 40.4 257.9 38.6 258.9 37.1C260 35.6 261.3 34.5 262.7 33.7C264.2 32.9 265.9 32.5 267.9 32.5C270.7 32.5 272.8 33.3 274.1 34.8C275.4 36.3 276 38.3 276 40.7C276 43.4 275.1 45.5 273.2 46.8ZM313.8 59H289.3C289.4 63.1 289.8 66.4 290.6 69.1C291.4 71.7 292.5 73.6 294.1 74.9C295.6 76.2 297.5 76.8 299.6 76.8C301.4 76.8 302.8 76.5 304.1 75.8C305.3 75.1 306.4 74.1 307.3 72.9C308.2 71.7 308.9 70.4 309.5 68.9C310.3 69.1 311 69.6 311.6 70.3C312.2 71 312.5 71.8 312.5 72.9C312.5 74.4 312 76 310.9 77.6C309.8 79.2 308.1 80.6 305.7 81.7C303.2 82.8 300.1 83.3 296.2 83.3C289.4 83.3 284.2 81.1 280.8 76.8C277.4 72.4 275.7 66.2 275.7 58.3C275.7 49.8 277.4 43.3 280.8 39C284.3 34.6 289.1 32.5 295.3 32.5C301.1 32.5 305.6 34.4 308.8 38.1C312.1 41.8 313.8 47.3 313.8 54.5V59ZM354.7 59H330.2C330.3 63.1 330.7 66.4 331.5 69.1C332.3 71.7 333.4 73.6 335 74.9C336.5 76.2 338.4 76.8 340.5 76.8C342.3 76.8 343.7 76.5 345 75.8C346.2 75.1 347.3 74.1 348.2 72.9C349.1 71.7 349.8 70.4 350.4 68.9C351.2 69.1 351.9 69.6 352.5 70.3C353.1 71 353.4 71.8 353.4 72.9C353.4 74.4 352.9 76 351.8 77.6C350.7 79.2 349 80.6 346.6 81.7C344.1 82.8 341 83.3 337.1 83.3C330.3 83.3 325.1 81.1 321.7 76.8C318.3 72.4 316.6 66.2 316.6 58.3C316.6 49.8 318.3 43.3 321.7 39C325.2 34.6 330 32.5 336.2 32.5C342 32.5 346.5 34.4 349.7 38.1C353 41.8 354.7 47.3 354.7 54.5V59ZM383.9 80.9C383 81.3 381.6 81.8 379.6 82.4C377.8 83 375.4 83.3 372.5 83.3C368.7 83.3 365.7 82.2 363.5 80.1C361.3 78 360.2 74.3 360.2 68.9V39.4H354.7V35.1C356.7 35 358.4 34.5 359.7 33.7C361 32.9 362.1 31.9 362.8 31C363.5 30.2 364.1 29 364.7 27.6C365.3 26.2 365.8 24.4 366.2 22.3H373.8V33.6H383.3V39.3H373.8V67.8C373.8 70.5 374.1 72.5 374.7 73.8C375.4 75 376.6 75.6 378.3 75.6C379.3 75.6 380.3 75.5 381.3 75.4C382.3 75.2 383.1 75 383.9 74.8V80.9Z" fill="white" fill-rule="evenodd"/>
</svg>